<svg width="600" height="97" xmlns="http://www.w3.org/2000/svg" xml:space="preserve" version="1.1">

 <g>
  <title>Layer 1</title>
  <path id="svg_1" fill="#000" d="m363.09999,2.80001l-5.1,0l-13.6,33.3l6.7,0l3.3,-8.3l12.5,0l3.4,8.3l6.9,0l-14.1,-33.3zm-6.9,20.1l2.6,-6.5c1,-2.6 1.5,-4 1.8,-5.2l0.1,0c0.3,1.1 0.8,2.6 1.8,5.1l2.5,6.6l-8.8,0z" class="st0"/>
  <path id="svg_2" fill="#000" d="m430.79999,11.70001c-7.2,0 -11.4,5.4 -11.4,12.5c0,6.5 3.7,12.4 12.9,12.4c3.1,0 6.2,-0.7 8.9,-2.2l-1.9,-4.1c-1.8,1 -3.8,1.6 -6.3,1.6c-4.2,0 -7,-2.4 -7.2,-6l16.2,0l0,-1.4c0,-8 -4.1,-12.8 -11.2,-12.8m-5,10c0.1,-2.9 1.8,-5.4 4.9,-5.4c3.3,0 4.8,2.7 4.8,5.4l-9.7,0z" class="st0"/>
  <path id="svg_3" fill="#000" d="m540.89999,11.70001c-7.2,0 -11.4,5.4 -11.4,12.5c0,6.5 3.7,12.4 12.9,12.4c3.1,0 6.2,-0.7 8.9,-2.2l-1.9,-4.1c-1.8,1 -3.9,1.6 -6.4,1.6c-4.2,0 -7,-2.4 -7.1,-6l16.2,0l0,-1.4c0,-8 -4.1,-12.8 -11.2,-12.8m-5,10c0.1,-2.9 1.8,-5.4 4.9,-5.4c3.4,0 4.8,2.7 4.9,5.4l-9.8,0z" class="st0"/>
  <path id="svg_4" fill="#000" d="m591.69999,5.00001l-6.3,1.8l0,5.5l-4.5,0l0,4.7l4.5,0l0,13.2c0,4 2.7,6.4 7.2,6.4c2.5,0 5.5,-0.7 7.4,-1.9l-1.9,-4.1c-1,0.6 -2.4,1.2 -3.8,1.2c-1.7,0 -2.5,-0.8 -2.5,-3l0,-11.8l0.3,0l0,0l2.1,0c2.8,0 3.6,-1.4 4,-2.1l1.3,-2.4l0.1,-0.1l-0.1,-0.1l-7.4,0l0,0l-0.3,0l0,-7.3l-0.1,0z" class="st0"/>
  <path id="svg_5" fill="#000" d="m408.09999,11.70001c-5.9,0 -9.5,3 -9.5,7.2c0,8 11.8,6.4 11.8,10.5c0,1.8 -1.9,2.5 -4.4,2.5c-2.6,0 -5,-0.8 -6.9,-2l-0.3,0.6l-1.1,4c2.1,1.1 5.1,2 8.7,2c5.5,0 10.3,-2.2 10.3,-7.4c0,-8.3 -11.9,-6.8 -11.9,-10.6c0,-1.6 1.4,-2.2 3.6,-2.2c2.2,0 4.1,0.5 6,1.1l1.2,-4.3l0,-0.4c-2.1,-0.6 -4.6,-1 -7.5,-1" class="st0"/>
  <path id="svg_6" fill="#000" d="m454.59999,11.70001c-5.9,0 -9.6,3 -9.6,7.2c0,8 11.9,6.4 11.9,10.5c0,1.8 -1.9,2.5 -4.4,2.5c-2.4,0 -4.7,-0.7 -6.6,-1.8l-1.3,4.7c2.1,1 4.9,1.8 8.4,1.8c5.4,0 10.3,-2.2 10.3,-7.4c0,-8.3 -11.8,-6.8 -11.8,-10.6c0,-1.6 1.5,-2.2 3.6,-2.2c2.2,0 4.1,0.5 5.9,1.1l1.2,-4.4l0,-0.2c-2.3,-0.8 -4.8,-1.2 -7.6,-1.2" class="st0"/>
  <path id="svg_7" fill="#000" d="m475.69999,11.70001c-5.9,0 -9.6,3 -9.6,7.2c0,8 11.8,6.4 11.8,10.5c0,1.8 -1.9,2.5 -4.4,2.5c-2.5,0 -4.8,-0.7 -6.7,-1.8l-1.3,4.7c2.1,1 5,1.9 8.4,1.9c5.5,0 10.3,-2.2 10.3,-7.4c0,-8.3 -11.9,-6.8 -11.9,-10.6c0,-1.6 1.4,-2.2 3.6,-2.2c2.1,0 4.1,0.5 5.9,1l1.2,-4.5l0,-0.1c-2,-0.8 -4.5,-1.2 -7.3,-1.2" class="st0"/>
  <path id="svg_8" fill="#000" d="m387.19999,11.70001c-5.9,0 -9.5,3 -9.5,7.2c0,8 11.8,6.4 11.8,10.5c0,1.8 -1.9,2.5 -4.4,2.5c-2.6,0 -5,-0.8 -6.9,-2l0,0l2.4,6.1c1.5,0.4 3.1,0.6 4.9,0.6c5.4,0 10.3,-2.2 10.3,-7.4c0,-8.3 -11.9,-6.8 -11.9,-10.6c0,-1.6 1.4,-2.2 3.6,-2.2c2.2,0 4.1,0.5 5.9,1.1l1.2,-4.4l0,-0.2c-2.1,-0.8 -4.6,-1.2 -7.4,-1.2" class="st0"/>
  <path id="svg_9" fill="#000" d="m487.59999,11.30001l-0.1,0.1l0,13.6l0,11.1l6.3,0l0,-16.8c1.9,-1.4 4,-2.4 6,-2.4c3.3,0 3.7,2.3 3.7,5.1l0,14.1l6.4,0l0,-15.9l-0.1,-0.9c1.8,-1.4 3.9,-2.4 6,-2.4c3.3,0 3.9,2.2 3.9,5l0,14.2l6.3,0l0,-15.8c0,-6.3 -3.9,-8.6 -8.4,-8.6c-2.8,0 -6,1.3 -9.1,3.7c-1.2,-2.4 -3.6,-3.7 -6.7,-3.7c-3.1,0 -6,1.4 -8.5,3.3l-0.2,0c-0.7,-1.3 -1.7,-1.8 -2.3,-2.1l-3.2,-1.5l0,-0.1z" class="st0"/>
  <path id="svg_10" fill="#000" d="m555.69999,11.30001l-0.1,0.1l0,13.6l0,11.1l6.3,0l0,-16.7c1.9,-1.5 4.1,-2.5 6.2,-2.5c3.3,0 3.9,2.4 3.9,5.3l0,13.9l6.4,0l0,-15.8c0,-6.8 -4.1,-8.7 -8.1,-8.7c-3.1,0 -6,1.3 -8.7,3.3l-0.3,0c-0.6,-1.3 -1.7,-1.8 -2.3,-2.1l-3.2,-1.5l-0.1,0z" class="st0"/>
  <path id="svg_11" fill="#000" d="m117.09999,2.40001c-11.3,0 -18.6,7.7 -18.6,17.3c0,9.7 6.3,16.7 17.8,16.7c3.4,0 7.1,-0.6 10.9,-2.5c-0.9,-1.4 -1.5,-3 -1.5,-4.9c-2.5,1.4 -5.2,2.3 -8.6,2.3c-7.2,0 -11.7,-4.8 -11.7,-11.8c0,-6.5 4.1,-12 11.9,-12c3.4,0 6.3,0.8 9.1,2.2l0,-5.6c-2.3,-1 -5.5,-1.7 -9.3,-1.7" class="st0"/>
  <path id="svg_12" fill="#000" d="m203.79999,0.00001l-6.4,0l0,34.5c2.1,1 5,1.7 8.3,1.7c8.6,0 15.1,-4.8 15.1,-13.2c0,-7.6 -5.4,-11.7 -12.1,-11.7c-2,0 -3.5,0.3 -4.9,0.7l0,-12zm2.9,31.2c-0.9,0 -1.9,-0.1 -2.9,-0.4l0,-13.8c0.8,-0.3 1.9,-0.8 3.8,-0.8c4.2,0 6.6,2.9 6.6,7.1c0,4.7 -2.9,7.9 -7.5,7.9" class="st0"/>
  <path id="svg_13" fill="#000" d="m278.19999,0.20001l-6.4,0l0,11.5c-1,-0.2 -2.5,-0.3 -3.4,-0.3c-8,0 -13.8,5.2 -13.8,12.7c0,7.9 6.1,12.2 14.3,12.2c3.1,0 6.8,-0.6 9.3,-1.8l0,-34.3zm-9.4,31.2c-4.6,0 -7.7,-2.7 -7.7,-7.3c0,-4.9 3.2,-7.7 7.7,-7.7c1.3,0 2.1,0.1 3,0.4l0,14.2c-0.9,0.3 -2.1,0.4 -3,0.4" class="st0"/>
  <path id="svg_14" fill="#000" d="m317.99999,11.50001c-7.2,0 -11.4,5.4 -11.4,12.5c0,6.4 3.7,12.4 12.9,12.4c3.1,0 6.2,-0.7 8.9,-2.2l-1.9,-4.1c-1.8,1 -3.8,1.6 -6.4,1.6c-4.2,0 -7,-2.4 -7.2,-6l16.2,0l0,-1.4c0.1,-8 -4,-12.8 -11.1,-12.8m-5,9.9c0,-2.9 1.8,-5.4 4.9,-5.4c3.3,0 4.8,2.7 4.9,5.4l-9.8,0z" class="st0"/>
  <path id="svg_15" fill="#000" d="m139.39999,11.50001c-3.5,0 -6.8,0.8 -9.8,2.4l2.1,3.9c1.8,-0.9 4.1,-1.7 6.6,-1.7c2.9,0 4.9,1.2 4.9,4l0,0.7l-4.3,0.1c-2.6,0.1 -4.7,0.5 -6.5,1.4c-2.6,1.2 -4.3,3.3 -4.3,6.5c0,4.6 3.6,7.6 8.4,7.6c3.2,0 5.4,-1.2 7.3,-2.8l0.5,0c0.6,0.7 1.3,1.1 1.8,1.3l3.3,1.6l0.1,0.1l0.1,-0.1l0,-14l0,0l0,-2.4c0,-5.7 -3.4,-8.6 -10.2,-8.6m-1.1,20.2c-2.3,0 -3.7,-1.2 -3.7,-3.3c0,-1.2 0.5,-2.2 1.6,-2.7c0.8,-0.5 2,-0.7 3.7,-0.8l3.3,-0.1l0,5l0,0.2c-1,0.7 -2.7,1.7 -4.9,1.7" class="st0"/>
  <path id="svg_16" fill="#000" d="m154.39999,10.90001l-0.1,0.1l0,3.6l0,21.1l6.4,0l0,-11.2l0,-5.6c1.9,-1.4 4,-2.4 6,-2.4c3.3,0 3.7,2.3 3.7,5.1l0,14.1l6.4,0l0,-15.9l0,-0.9c1.8,-1.4 3.9,-2.4 6,-2.4c3.3,0 3.8,2.2 3.8,5l0,14.1l6.3,0l0,-15.8c0,-6.3 -4,-8.6 -8.4,-8.6c-2.8,0 -6,1.3 -9.1,3.7c-1.2,-2.4 -3.6,-3.7 -6.7,-3.7c-3.1,0 -6,1.4 -8.5,3.3l-0.2,0c-0.6,-1.3 -1.7,-1.8 -2.3,-2.1l-3.2,-1.5l-0.1,0z" class="st0"/>
  <path id="svg_17" fill="#000" d="m237.49999,11.60001c-2.9,0 -5.4,1.5 -6.9,3.2l-0.7,-2.7l-5.4,0l0,23.8l6.4,0l0,-16.8c2,-2.3 3.9,-2.9 5.5,-2.9c2.3,0 3.9,1.4 3.9,1.4l0,-5.5c-1,-0.4 -1.9,-0.5 -2.8,-0.5" class="st0"/>
  <path id="svg_18" fill="#000" d="m247.29999,1.00001c-2.2,0 -3.9,1.6 -3.9,3.6c0,2 1.7,3.6 3.9,3.6c2.3,0 3.9,-1.6 3.9,-3.6c0,-2.1 -1.7,-3.6 -3.9,-3.6m3.2,11.1l-6.4,0l0,23.8l6.4,0l0,-23.8z" class="st0"/>
  <path id="svg_19" fill="#000" d="m306.39999,10.50001l-4.8,0l-5,0l-0.1,0l0,0l-3.9,0c-6.9,0 -10.3,4.4 -10.3,8.8c0,3.2 1.6,5.9 4.2,7.4c-2.1,1.4 -3,3.1 -3,4.5c0,1.3 0.6,2.4 1.7,3c-2.6,1.1 -4.5,3.1 -4.5,5.8c0,4.1 4.3,7 11.7,7c8.8,0 13.3,-3.5 13.3,-7.9c0,-8.9 -16.6,-4.9 -16.6,-9.2c0,-0.5 0.2,-1 0.6,-1.8c0.9,0.2 1.9,0.4 3.1,0.4c6.1,0 10.4,-3.5 10.4,-8.8c0,-1.9 -0.6,-3.6 -1.8,-5.1l0.2,0l0.5,0l0,0c2.1,-0.2 2.7,-1.2 3,-1.8l1.1,-2.1l0,-0.2l0.2,0zm-13.6,13.4c-2.8,0 -4.4,-2.1 -4.4,-4.4c0,-2.9 1.9,-4.4 4.4,-4.4c2.8,0 4.5,2.1 4.5,4.5c0,2.8 -1.9,4.3 -4.5,4.3m0.4,18.8c-4.2,0 -6.9,-1.5 -6.9,-3.8c0,-1.6 1.2,-2.6 2,-3.1c3.4,1.3 11.2,0.6 11.2,4c0.1,1.7 -2.4,2.9 -6.3,2.9" class="st0"/>
  <polygon id="svg_20" fill="#000" points="100.09999465942383,52 117.79999351501465,52 116.29999351501465,55.899993896484375 104.79999351501465,55.899993896484375 104.79999351501465,66.39999389648438 116.19999408721924,66.39999389648438 116.19999408721924,70.20001220703125 104.79999351501465,70.20001220703125 104.79999351501465,81.30001831054688 117.9999942779541,81.30001831054688 117.9999942779541,85.10000610351562 100.09999465942383,85.10000610351562 " class="st0"/>
  <path id="svg_21" fill="#000" d="m123.39999,61.40001l3.9,0l0.6,2.9c2.7,-2.1 5.5,-3.5 8.7,-3.5c4,0 7.7,2.2 7.7,8.4l0,15.9l-4.7,0l0,-14.5c0,-3.4 -0.8,-6 -4.3,-6c-2.6,0 -5,1.4 -7.2,3.2l0,17.3l-4.7,0l0,-23.7z" class="st0"/>
  <path id="svg_22" fill="#000" d="m147.39999,90.10001c0,-2.5 1.6,-4.7 4.6,-6c-1.1,-0.6 -1.8,-1.7 -1.8,-3c0,-1.2 0.6,-2.9 2.8,-4.6c-2.5,-1.5 -4,-4.1 -4,-7.2c0,-4.7 3.7,-8.5 9.6,-8.5c2.2,0 3.8,0.5 4.9,0.9c0.3,0.2 0.4,0.2 0.6,0c1.2,-1.1 2.9,-2 5.5,-2c0.6,0 1.3,0.1 1.6,0.2l-1.1,3.3c-0.5,-0.1 -1.1,-0.1 -1.5,-0.1c-0.7,0 -1.6,0.1 -2.2,0.5c1.7,1.6 2.6,3.8 2.6,6c0,5.2 -4,8.6 -10,8.6c-1.2,0 -2.3,-0.2 -3.2,-0.5c-0.8,0.9 -1.2,1.7 -1.2,2.4c0,4.6 16.6,0.4 16.6,9.3c0,4.4 -4.6,7.5 -12.5,7.5c-6.9,0.1 -11.3,-2.5 -11.3,-6.8m19.1,-0.2c0,-4.1 -7.5,-3.3 -11.8,-4.6c-1.2,0.7 -3,2 -3,4c0,2.7 3,4.3 7.4,4.3c4.9,0.1 7.4,-1.6 7.4,-3.7m-2.2,-20.4c0,-3 -2.1,-5.2 -5.3,-5.2c-3.1,0 -5.3,1.9 -5.3,5.1c0,3 2,5.2 5.3,5.2c3,0.1 5.3,-1.7 5.3,-5.1" class="st0"/>
  <path id="svg_23" fill="#000" d="m174.69999,49.60001l4.7,0l0,29.6c0,1.8 0.6,2.4 1.9,2.4c0.4,0 1.2,-0.2 1.6,-0.3l1,3.5c-1.2,0.5 -2.7,0.7 -3.9,0.7c-3.5,0 -5.2,-1.8 -5.2,-5l0,-30.9l-0.1,0z" class="st0"/>
  <path id="svg_24" fill="#000" d="m186.79999,53.70001c0,-1.6 1.2,-2.8 3,-2.8c1.8,0 3.1,1.2 3.1,2.8c0,1.6 -1.3,2.8 -3.1,2.8c-1.8,0 -3,-1.2 -3,-2.8m0.6,7.7l4.7,0l0,23.7l-4.7,0l0,-23.7z" class="st0"/>
  <path id="svg_25" fill="#000" d="m197.59999,80.20001c1.6,0.9 3.8,1.8 6.5,1.8c2.8,0 5.1,-1 5.1,-3.4c0,-4.8 -11.8,-3.2 -11.8,-11.1c0,-3.8 3.2,-6.7 8.8,-6.7c2.5,0 4.8,0.5 6.6,1.1l0,3.8c-1.8,-0.7 -3.9,-1.4 -6.4,-1.4c-2.3,0 -4.4,0.7 -4.4,2.9c0,4.8 11.8,3.1 11.8,11.2c0,4.9 -4.4,7.1 -9.6,7.1c-3.5,0 -6.4,-1.1 -8.1,-2.1l1.5,-3.2z" class="st0"/>
  <path id="svg_26" fill="#000" d="m218.29999,49.60001l4.7,0l0,14.7c2.5,-2 5.3,-3.5 8.6,-3.5c3.9,0 7.7,2.2 7.7,8.4l0,15.9l-4.7,0l0,-14.5c0,-3.4 -0.9,-6 -4.4,-6c-2.6,0 -5,1.4 -7.2,3.2l0,17.3l-4.7,0l0,-35.5z" class="st0"/>
  <path id="svg_27" fill="#fff" d="m78.89999,49.60001c-0.2,4.1 -0.8,7.8 -1.9,11c-1.1,3.1 -2.5,5.9 -4.4,8.3c-3.5,4.4 -7.8,6.6 -10.7,8.1c-0.2,0.1 -1.9,0.9 -10.1,4.8l0.1,0.2l0.2,0l0,-32.1l27,0l0,-0.4l-27.4,0l0,32.8l0.3,-0.2c8.2,-3.8 9.9,-4.7 10.1,-4.8c2.9,-1.5 7.2,-3.7 10.8,-8.2c1.9,-2.4 3.4,-5.2 4.5,-8.4c1.1,-3.3 1.7,-7 1.9,-11.1l-0.4,0z" class="st1"/>
  <path id="svg_28" fill="#fff" d="m30.79999,49.60001l0,32.3l0.2,0l0.1,-0.2c-8.2,-3.8 -9.9,-4.7 -10.1,-4.8c-2.9,-1.5 -7.2,-3.7 -10.7,-8.1c-1.9,-2.4 -3.4,-5.2 -4.4,-8.3c-1.1,-3.2 -1.7,-6.9 -1.9,-11l-0.2,0l0,0.2l27.2,0l0,-0.4l-27.4,0l0,0.2c0.2,4.1 0.8,7.8 1.9,11.1c1.1,3.2 2.6,6 4.5,8.4c3.6,4.5 7.9,6.7 10.8,8.2c0.3,0.1 2,0.9 10.1,4.8l0.3,0.2l0,-32.6l-0.4,0z" class="st1"/>
  <polygon id="svg_29" fill="#171716" points="79.09999465942383,3.5 79.09999465942383,3.4000091552734375 51.69999694824219,3.4000091552734375 51.69999694824219,30.100006103515625 79.29999542236328,30.100006103515625 79.29999542236328,3.4000091552734375 79.09999465942383,3.4000091552734375 79.09999465942383,3.5 78.89999389648438,3.5 78.89999389648438,29.70001220703125 52.09999084472656,29.70001220703125 52.09999084472656,3.70001220703125 79.09999465942383,3.70001220703125 79.09999465942383,3.5 78.89999389648438,3.5 " class="st2"/>
  <polygon id="svg_30" fill="#171716" points="30.99999237060547,3.5 30.99999237060547,3.4000091552734375 3.5999908447265625,3.4000091552734375 3.5999908447265625,30.100006103515625 31.199996948242188,30.100006103515625 31.199996948242188,3.4000091552734375 30.99999237060547,3.4000091552734375 30.99999237060547,3.5 30.79999542236328,3.5 30.79999542236328,29.70001220703125 3.9999923706054688,29.70001220703125 3.9999923706054688,3.70001220703125 30.99999237060547,3.70001220703125 30.99999237060547,3.5 30.79999542236328,3.5 " class="st2"/>
  <path id="svg_31" fill="#000" d="m41.39999,90.80001l-0.8,-0.4c-1.2,-0.6 -20.4,-9.6 -21.5,-10.2c-6.2,-3.2 -19.1,-9.8 -19.1,-33l0,-47.2l82.9,0l0,47.2c0,23.2 -12.9,29.8 -19.1,33c-1.1,0.6 -20.4,9.6 -21.5,10.2l-0.9,0.4z" class="st0"/>
  <path id="svg_32" fill="#FFFFFF" d="m49.89999,31.80001l0,-30.1l-16.9,0l0,30.1l-31.2,0l0,15.4l0,0.5l31.2,0l0,37.2c4.5,2.1 8.4,4 8.4,4l0,0l0,0c0,0 3.9,-1.8 8.4,-4l0,-37.2l31.2,0l0,-0.5l0,-15.4l-31.1,0z" class="st3"/>
  <rect id="svg_33" fill="#000" height="30.1" width="31.2" class="st4" y="1.70001" x="1.79999"/>
  <rect id="svg_34" fill="#000" height="30.1" width="31.2" class="st4" y="1.70001" x="49.89999"/>
  <path id="svg_35" fill="#000" d="m32.99999,47.70001l-31.2,0c0.2,21.6 11.9,27.8 18.2,31.1c0.6,0.3 7.3,3.5 13.1,6.2l0,-37.3l-0.1,0z" class="st4"/>
  <path id="svg_36" fill="#000" d="m49.89999,47.70001l0,37.2c5.7,-2.7 12.4,-5.8 13.1,-6.2c6.3,-3.2 18,-9.5 18.2,-31.1l-31.3,0l0,0.1z" class="st4"/>
  <path id="svg_37" fill="#000" d="m60.59999,40.00001l0.7,-0.7l-0.8,-0.9l-0.8,0.9l0.7,0.7c0,0.4 0,3.6 -2,4.7c0,0 0.7,0.1 1.6,0c0,0 0.1,0.8 0.6,1.8c0.4,-1 0.6,-1.8 0.6,-1.8c0.9,0.2 1.6,0 1.6,0c-2.2,-1.2 -2.2,-4.4 -2.2,-4.7" class="st0"/>
  <path id="svg_38" fill="#000" d="m65.69999,34.50001l0.7,-0.7l-0.8,-0.9l-0.8,0.9l0.7,0.7c0,0.4 0,3.6 -2,4.7c0,0 0.7,0.1 1.6,0c0,0 0.2,0.8 0.6,1.8c0.4,-1 0.6,-1.8 0.6,-1.8c0.9,0.2 1.5,0 1.5,0c-2.1,-1.1 -2.1,-4.3 -2.1,-4.7" class="st0"/>
  <path id="svg_39" fill="#000" d="m70.79999,40.00001l0.6,-0.7l-0.8,-0.9l-0.8,0.9l0.6,0.7c0,0.4 0,3.6 -2,4.7c0,0 0.7,0.1 1.6,0c0,0 0.2,0.8 0.6,1.8c0.4,-1 0.6,-1.8 0.6,-1.8c0.9,0.2 1.5,0 1.5,0c-2,-1.2 -1.9,-4.4 -1.9,-4.7" class="st0"/>
  <path id="svg_40" fill="#000" d="m75.89999,34.50001l0.6,-0.7l-0.8,-0.9l-0.8,0.9l0.6,0.7c0,0.4 0,3.6 -2,4.7c0,0 0.7,0.1 1.6,0c0,0 0.2,0.8 0.6,1.8c0.4,-1 0.6,-1.8 0.6,-1.8c0.9,0.2 1.6,0 1.6,0c-2.1,-1.1 -2,-4.3 -2,-4.7" class="st0"/>
  <path id="svg_41" fill="#000" d="m55.49999,34.50001l0.6,-0.7l-0.8,-0.9l-0.8,0.9l0.7,0.7c0,0.4 0,3.6 -2,4.7c0,0 0.7,0.1 1.6,0c0,0 0.2,0.8 0.6,1.8c0.4,-1 0.6,-1.8 0.6,-1.8c0.9,0.2 1.5,0 1.5,0c-2,-1.1 -2,-4.3 -2,-4.7" class="st0"/>
  <path id="svg_42" fill="#000" d="m12.39999,40.00001l0.6,-0.7l-0.8,-0.9l-0.8,0.9l0.6,0.7c0,0.4 0.1,3.6 -2,4.7c0,0 0.7,0.1 1.6,0c0,0 0.2,0.8 0.6,1.8c0.4,-1 0.6,-1.8 0.6,-1.8c0.9,0.2 1.6,0 1.6,0c-2,-1.2 -2,-4.4 -2,-4.7" class="st0"/>
  <path id="svg_43" fill="#000" d="m17.49999,34.50001l0.6,-0.7l-0.8,-0.9l-0.8,0.9l0.7,0.7c0,0.4 0,3.6 -2,4.7c0,0 0.7,0.1 1.6,0c0,0 0.2,0.8 0.6,1.8c0.4,-1 0.6,-1.8 0.6,-1.8c0.9,0.2 1.5,0 1.5,0c-2,-1.1 -2,-4.3 -2,-4.7" class="st0"/>
  <path id="svg_44" fill="#000" d="m22.59999,40.00001l0.6,-0.7l-0.8,-0.9l-0.8,0.9l0.6,0.7c0,0.4 0,3.6 -2,4.7c0,0 0.7,0.1 1.5,0c0,0 0.2,0.8 0.6,1.8c0.4,-1 0.6,-1.8 0.6,-1.8c0.9,0.2 1.6,0 1.6,0c-1.9,-1.2 -1.9,-4.4 -1.9,-4.7" class="st0"/>
  <path id="svg_45" fill="#000" d="m27.69999,34.50001l0.6,-0.7l-0.8,-0.9l-0.8,0000.9l0.7,0.7c0,0.4 0,3.6 -2,4.7c0,0 0.7,0.1 1.5,0c0,0 0.2,0.8 0.6,1.8c0.4,-1 0.6,-1.8 0.6,-1.8c0.9,0.2 1.6,0 1.6,0c-2,-1.1 -2,-4.3 -2,-4.7" class="st0"/>
  <path id="svg_46" fill="#000" d="m7.29999,34.50001l0.6,-0.7l-0.8,-0.9l-0.8,0.9l0.6,0.7c0,0.4 0,3.6 -2,4.7c0,0 0.7,0.1 1.6,0c0,0 0.2,0.8 0.6,1.8c0.4,-1 0.6,-1.8 0.6,-1.8c0.9,0.2 1.6,0 1.6,0c-2,-1.1 -2,-4.3 -2,-4.7" class="st0"/>
  <path id="svg_47" fill="#000" d="m41.69999,52.20001l0.6,-0.7l-0.8,-0.9l-0.8,0.9l0.6,0.7c0,0.4 0,3.6 -2,4.7c0,0 0.7,0.1 1.6,0c0,0 0.2,0.8 0.6,1.8c0.4,-0.9 0.6,-1.8 0.6,-1.8c0.9,0.2 1.5,0 1.5,0c-2,-1.2 -2,-4.4 -1.9,-4.7" class="st0"/>
  <path id="svg_48" fill="#000" d="m41.69999,68.50001l0.6,-0.7l-0.8,-0.9l-0.8,0.9l0.6,0.7c0,0.4 0,3.6 -2,4.7c0,0 0.7,0.1 1.6,0c0,0 0.2,0.8 0.6,1.8c0.4,-0.9 0.6,-1.8 0.6,-1.8c0.9,0.2 1.5,0 1.5,0c-2,-1.2 -2,-4.3 -1.9,-4.7" class="st0"/>
  <path id="svg_49" fill="#000" d="m46.39999,60.30001l0.6,-0.7l-0.8,-0.9l-0.8,0.9l0.7,0.7c0,0.4 0,3.6 -2,4.7c0,0 0.7,0.1 1.6,0c0,0 0.2,0.8 0.6,1.8c0.4,-1 0.6,-1.8 0.6,-1.8c0.9,0.1 1.5,0 1.5,0c-2.1,-1.1 -2,-4.3 -2,-4.7" class="st0"/>
  <path id="svg_50" fill="#000" d="m36.89999,60.30001l0.6,-0.7l-0.8,-0.9l-0.8,0.9l0.7,0.7c0,0.4 0,3.6 -2,4.7c0,0 0.7,0.1 1.6,0c0,0 0.2,0.8 0.6,1.8c0.4,-1 0.6,-1.8 0.6,-1.8c0.9,0.1 1.5,0 1.5,0c-2.1,-1.1 -2,-4.3 -2,-4.7" class="st0"/>
  <path id="svg_51" fill="#000" d="m46.39999,76.60001l0.6,-0.7l-0.8,-0.9l-0.8,0.9l0.7,0.7c0,0.4 0,3.6 -2,4.7c0,0 0.7,0.1 1.6,0c0,0 0.2,0.8 0.6,1.8c0.4,-0.9 0.6,-1.8 0.6,-1.8c0.9,0.2 1.5,0 1.5,0c-2.1,-1.1 -2,-4.3 -2,-4.7" class="st0"/>
  <path id="svg_52" fill="#000" d="m36.89999,76.60001l0.6,-0.7l-0.8,-0.9l-0.8,0.9l0.7,0.7c0,0.4 0,3.6 -2,4.7c0,0 0.7,0.1 1.6,0c0,0 0.2,0.8 0.6,1.8c0.4,-0.9 0.6,-1.8 0.6,-1.8c0.9,0.2 1.5,0 1.5,0c-2.1,-1.1 -2,-4.3 -2,-4.7" class="st0"/>
  <path id="svg_53" fill="#000" d="m41.69999,15.00001l0.6,-0.7l-0.8,-0.9l-0.8,0.9l0.6,0.7c0,0.4 0,3.6 -2,4.7c0,0 0.7,0.1 1.6,0c0,0 0.2,0.8 0.6,1.8c0.4,-0.9 0.6,-1.8 0.6,-1.8c0.9,0.2 1.5,0 1.5,0c-2,-1.1 -2,-4.3 -1.9,-4.7" class="st0"/>
  <path id="svg_54" fill="#000" d="m46.39999,6.90001l0.6,-0.7l-0.8,-0.9l-0.8,0.9l0.7,0.7c0,0.4 0,3.5 -2,4.7c0,0 0.7,0.1 1.6,0c0,0 0.2,0.8 0.6,1.8c0.4,-1 0.6,-1.8 0.6,-1.8c0.9,0.2 1.5,0 1.5,0c-2.1,-1.2 -2,-4.3 -2,-4.7" class="st0"/>
  <path id="svg_55" fill="#000" d="m36.89999,6.90001l0.6,-0.7l-0.8,-0.9l-0.8,0.9l0.7,0.7c0,0.4 0,3.5 -2,4.7c0,0 0.7,0.1 1.6,0c0,0 0.2,0.8 0.6,1.8c0.4,-1 0.6,-1.8 0.6,-1.8c0.9,0.2 1.5,0 1.5,0c-2.1,-1.2 -2,-4.3 -2,-4.7" class="st0"/>
  <path id="svg_56" fill="#000" d="m46.39999,23.20001l0.6,-0.7l-0.8,-0.9l-0.8,0.9l0.7,0.7c0,0.4 0,3.5 -2,4.7c0,0 0.7,0.1 1.6,0c0,0 0.2,0.8 0.6,1.8c0.4,-0.9 0.6,-1.8 0.6,-1.8c0.9,0.2 1.5,0 1.5,0c-2.1,-1.2 -2,-4.3 -2,-4.7" class="st0"/>
  <path id="svg_57" fill="#000" d="m36.89999,23.20001l0.6,-0.7l-0.8,-0.9l-0.8,0.9l0.7,0.7c0,0.4 0,3.5 -2,4.7c0,0 0.7,0.1 1.6,0c0,0 0.2,0.8 0.6,1.8c0.4,-0.9 0.6,-1.8 0.6,-1.8c0.9,0.2 1.5,0 1.5,0c-2.1,-1.2 -2,-4.3 -2,-4.7" class="st0"/>
  <path id="svg_58" fill="#000" d="m26.29999,16.50001l0.1,0.4l0.2,0.8c0.4,1.4 0.6,1.8 1.3,1.8c0.4,0 0.8,-0.2 0.9,-0.5l0.2,-0.5l0.2,-0.2c0.3,0 0.4,0.3 0.4,0.9c0,0.2 0.1,0.6 0.2,1.2c0.1,0.4 0.1,0.7 0.1,1.1l-0.2,0.8c0.1,0.5 0.2,1.2 0.2,1.5c0,0.6 -0.1,1.2 -0.3,1.5c0.1,0.4 0.1,0.6 0.1,0.9l-0.1,0.8c-0.1,0.6 -0.1,0.7 -0.1,0.9l0.1,0.3l0.1,0.3l-0.1,0.1l-0.5,-0.2l-0.6,-0.3l-0.6,-0.4c-0.5,0.4 -0.7,0.5 -2,0.8l-0.6,0.2l-0.4,0.2c-0.2,0 -0.3,-0.4 -0.3,-1.1c0,-0.5 0,-1 0.1,-1.4c-0.4,-0.1 -0.7,-0.2 -1,-0.2l-0.4,0l-0.1,0l-0.1,-0.2l0.2,-0.5l0.2,-0.6l0.7,-0.7l0.7,-0.4l1,-0.2c0.6,-0.1 0.9,-0.4 0.9,-0.8c0,-0.3 -0.2,-0.6 -0.8,-0.8l-1.1,-0.4l-1,-0.5c-0.6,-0.3 -0.7,-0.4 -0.9,-0.4l-0.3,0.4c0,0.4 0.3,0.8 0.7,0.8l0.3,0l0.3,-0.1l0.2,0.2l0,0.1l-0.1,0.4c0,0.4 -0.3,0.8 -0.9,1.5l-0.2,0.3c-0.2,0.8 -0.7,1.5 -1.4,2l-0.3,0.2l-0.2,0.3l-0.5,0.6l-0.7,0.6l-0.5,0.5l-0.3,0.4l-0.2,0.1c-0.2,0 -0.4,-0.2 -0.6,-0.6l-0.4,-0.4l-0.5,0.1l-0.4,0l-0.9,0c-0.5,0 -1.2,0.1 -1.5,0.3l-0.3,0.1l-0.2,-0.2l-0.1,-0.2c0,-0.5 0.3,-1.3 0.8,-2c0.3,-0.4 0.4,-0.5 0.7,-0.8c-0.1,-0.4 -0.4,-0.8 -0.7,-0.9l-0.5,-0.1l-0.1,-0.1c0,-0.1 0.2,-0.3 0.6,-0.5c0.5,-0.2 1,-0.4 1.5,-0.4c0.5,0 0.9,0.2 1.3,0.5c0.7,0.5 0.9,0.6 1.3,0.6c0.6,0 1.1,-0.5 1.1,-1c0,-0.4 -0.2,-0.7 -0.7,-1.3c-0.7,-0.9 -1,-1.4 -1,-2c0,-0.4 0.1,-0.9 0.3,-1.2l0.3,-0.4l0.1,-0.2l-0.5,-0.3c-0.4,0 -1.2,0.3 -1.9,0.7l-0.5,0.5l0.1,0.2l0.3,0.2l0,0.1l-0.1,0.2l-0.5,0.7c-0.3,0.3 -0.7,0.8 -1.1,1.1l-0.3,0.3l-0.2,0.4c-0.2,0.3 -0.7,0.8 -1.2,1.1l-0.4,0.3l-0.2,0.3l-0.4,0.5l-0.6,0.8l-0.7,0.7c-0.2,0.2 -0.4,0.6 -0.7,1.6c-0.2,0.5 -0.4,0.9 -0.5,0.9l-0.2,-0.2c-0.5,-0.6 -1,-0.9 -1.2,-0.9l-0.3,0.1l-0.7,0.3l-1,0.2c-0.7,0.1 -1,0.3 -1.5,0.8l-0.2,0.2l-0.1,-0.3l0,-0.2l0.1,-0.7c0.1,-0.7 0.3,-1.2 0.5,-1.6l0.4,-0.8l0.1,-0.4c0,-0.6 -0.6,-1.1 -1.4,-1.2l-0.3,-0.2l0.5,-0.6c0.5,-0.4 1.2,-0.6 1.7,-0.6c0.3,0 0.7,0.1 1.2,0.3l0.6,0.2l0.6,0.1c0.6,0 1.2,-0.5 1.9,-1.7c0.3,-0.6 0.5,-0.9 0.5,-1.3c0,-0.6 -0.3,-1 -0.8,-1c-0.4,0 -0.8,0.2 -1.2,0.5l-0.4,0.8l0,0.3l0,0.1l-0.2,0.4c-0.2,0 -0.6,-0.3 -1.6,-1.5c-0.8,-0.9 -1,-1.3 -1,-2.1c-0.9,-1.1 -1.1,-1.5 -1.1,-2.3l0,-0.5c-0.6,-0.7 -0.8,-1.1 -0.8,-1.7l0.2,-0.7c-0.3,-0.4 -0.4,-0.6 -0.5,-1l-0.1,-0.5l-0.4,-0.9l-0.3,-0.5c0,-0.3 0.2,-0.4 1.1,-0.6l-0.1,-0.5l0.1,-0.6l0.2,-0.9c0.1,-0.4 0.1,-0.6 0.1,-0.8c0,-0.2 0,-0.3 -0.2,-0.8l-0.2,-0.6l-0.2,-0.3l0.2,-0.2c0.3,0 1,0.4 1.7,1c1.5,1.2 1.8,1.7 2,3.1l0.1,0.5c0.7,0.5 1.1,1.1 1.1,1.8c0,0.5 -0.2,1.1 -0.5,1.6l-0.5,0.8l-0.2,0.8c0,0.5 0.1,0.9 0.5,1.5c0.4,0.7 0.7,0.9 1.2,0.9c0.7,0 1.3,-1.1 1.3,-2.4l0,-0.2l0,-0.5l0.1,-0.8c0.1,-0.4 0.1,-0.6 0.1,-0.7l0,-0.6l0,-0.4l-0.3,-0.5l-0.6,-0.6c-0.9,-0.9 -1.3,-1.7 -1.3,-2.3c0,-0.8 0.6,-1.3 1.4,-1.3l0.6,0.1l0,-0.2c0,-1.1 0.2,-1.9 0.6,-1.9l0.1,0l0.5,0.4l0.6,0.4l0.2,0.1l0.4,-0.7l0.4,-0.5l0.2,-0.4l0.2,-0.2l0.2,-0.2l0.2,0.4c0.1,0.2 0.1,0.2 0.5,0.6l0.3,0.3l0.2,0.5l0.1,0.2l0.5,-0.5l0.4,-0.2l0.3,-0.1l0.1,0.1l0.2,0.4c0.3,0.5 0.4,0.7 0.4,0.9l0,0.2l0,0.3c0.9,0.3 1.2,0.7 1.2,1.6c0,0.6 -0.4,1.4 -1,2.1c-0.5,0.5 -0.5,0.6 -0.5,1c0,1.8 1.4,2.9 3.8,2.9l1.8,0c1.1,0 1.8,0.1 2.9,0.4c1.3,0.4 1.6,0.5 2,0.5l0.3,-0.1l0.1,-0.2c0,-0.4 -0.6,-0.6 -2.8,-1.2c-4.4,-1.2 -6.2,-2.8 -6.2,-5.6c0,-2.1 1.9,-3.7 4.3,-3.7c0.8,0 2,0.2 2.6,0.4l1.1,0.4l0.6,0.1c0.4,0 0.6,-0.3 0.6,-0.9l0.3,-0.4c0.3,0 0.8,0.4 1.2,0.9c0.4,0.6 0.7,1.2 0.7,1.6c0,0.6 -0.3,1 -0.9,1.3c-0.6,0.9 -1.3,1.2 -2.3,1.2c-0.8,0 -1.9,-0.4 -3.7,-1.4c-0.6,-0.3 -1,-0.5 -1.3,-0.5c-0.5,0 -0.8,0.3 -0.8,0.7c0,0.4 0.3,0.6 1.1,0.9c1.1,0.4 1.4,0.5 1.9,1c1.4,0.2 2,0.4 2.8,1.1c2.3,0.7 3.8,2.2 3.8,3.9c0,1.7 -1.2,2.9 -2.9,2.9c-0.5,-0.1 -0.7,-0.1 -1.3,-0.3" class="st0"/>
  <path id="svg_59" fill="#fff" d="m28.89999,27.50001l-0.1,-0.6l0,-0.2l0.1,-0.4l0,-0.3l-0.2,-0.8l-0.3,-0.4l-0.3,-0.5l-0.1,-0.2l0.2,-0.2l0.3,0.1l0.3,0.1c0.2,0 0.2,-0.2 0.2,-0.7c0,-0.5 -0.1,-0.8 -0.2,-0.9l-0.4,-0.4l-0.3,-0.3l-0.1,-0.2l0.2,-0.2l0.6,0.1l0.1,0l0.2,-0.2l0,-0.1l-0.1,-0.5l-0.2,-0.6l-0.2,-0.2l-0.1,0l-0.7,0.1l-0.1,0c-0.9,0 -1.8,-0.7 -2.1,-1.6l-0.5,-1.6c-0.2,-0.5 -0.6,-1 -1.3,-1.5l-0.5,-0.3l-0.5,0l-0.1,-0.1l0.3,-0.1l0.9,0.1c0.3,0 0.8,0.1 1.4,0.4c0.8,0.2 1.3,0.4 1.8,0.4c1.3,0 2.1,-0.7 2.1,-1.8c0,-0.8 -0.4,-1.6 -1.1,-2.2l-0.9,-0.5l-0.1,0.1l0,0.3l0,0l-0.2,0.2l-0.5,-0.5c-0.5,-1 -1.3,-1.6 -2.1,-1.6l-0.2,0.1l0.1,0.4l0.2,0.5l0.1,0.2l-0.1,0.1l-0.4,-0.2l-0.4,-0.4l-0.3,-0.5c-0.3,-0.4 -0.5,-0.6 -1.1,-0.9l-0.6,-0.3l-0.3,-0.1l-0.1,0.1l0.1,0.3l0.3,0.5l-0.1,0.1c-0.2,0 -0.6,-0.4 -1,-0.9c-0.3,-0.4 -0.5,-0.9 -0.5,-1.4c0,-1.1 0.8,-1.9 2,-1.9c0.6,0 1.3,0.2 2,0.6l1.2,0.7c0.4,0.2 1.1,0.4 1.4,0.4l0.8,-0.1l0.3,-0.1l0.1,-0.2l-0.1,-0.1l-0.2,0l-0.6,-0.1l-0.7,-0.2c-0.7,-0.3 -1.1,-0.5 -1.3,-0.6c-0.4,-0.3 -0.7,-0.4 -0.9,-0.5l-0.4,-0.2l0.1,-0.1l0.3,0.1l1,0.4l1.1,0.4c0.6,0.2 1.4,0.4 1.8,0.4c0.5,0 0.9,-0.4 0.9,-0.8l-0.5,-1.1l-0.2,-0.1l-0.2,0.2l0,0.2l0,0.3l-0.5,0.6l-0.4,-0.1l-1.7,-0.5c-1.4,-0.4 -2.1,-0.6 -2.8,-0.6c-2.1,0 -3.6,1.3 -3.6,3.1c0,2 1.5,3.3 5.1,4.5c3.6,1.2 4.1,1.5 4.1,2.3c0,0.5 -0.6,0.9 -1.1,0.9l-0.6,0c-0.1,0 -0.7,-0.2 -1.8,-0.4c-1.1,-0.2 -2.1,-0.4 -3.3,-0.4c-2.6,0 -4,0.4 -5.3,1.6l-0.8,0.3l-0.2,0l-0.4,0l0,0l-0.7,0.4c-0.3,0.4 -0.4,0.7 -0.5,0.7l-0.3,0.1c-0.3,0 -0.4,-0.2 -0.7,-0.8l-0.6,-0.7l-0.5,-0.4l-0.1,-0.2l0.1,-0.2l0.4,-0.6l0.3,-0.4c0.2,0 0.2,0.2 0.2,0.7l0.2,0.7l0.3,0.6l0.2,0.1c0.3,0 0.6,-0.6 0.7,-1.3c0.1,-0.5 0.1,-0.7 0.3,-0.7l0.1,0.1l0.2,0.4l0.3,0.4l0.3,0.2l0,0c0.2,0 0.3,-0.1 0.3,-0.6l0,-0.2l-0.1,-0.4l0,-0.2l0.1,-0.3l0.2,0.1l0.3,0.3l0.5,0.2l0.3,-0.2l-0.2,-0.6l-0.2,-0.3c-0.2,-0.4 -0.4,-0.5 -0.6,-0.5l-0.3,0l-0.3,0.1l-0.2,0.1l-0.1,-0.1c0,-0.2 0.2,-0.6 0.4,-1c0.2,-0.3 0.4,-1 0.4,-2c0.1,-1.3 0.3,-2.2 0.5,-2.2l0.2,0.4l0,0.3l0,0.2l0.1,0.4c0.2,0 0.5,-0.3 0.7,-0.8l0.1,-0.5l0,-0.1l-0.5,-0.9l-0.5,-0.2l-0.2,-0.1l0,-0.3l0,-0.3l-0.1,-0.3l-0.1,-0.3l-0.1,-0.3c-0.6,0.3 -0.9,0.5 -1.1,0.7l-0.4,0.4l-0.1,-0.1l0.1,-0.4l0,-0.1c0,-0.5 -0.4,-1.1 -0.9,-1.4l-0.2,0.2l-0.2,0.2l-0.3,0.4l-0.3,0.5l0,0.3l0,0l0,0.1l-0.1,0.3l-0.1,0l-0.2,-0.3l-0.3,-0.3l-0.5,-0.3l-0.2,-0.2l-0.1,0.2l-0.1,0.4l0,0.4l0,0.4l0,0.1l-0.2,0.3l-0.3,-0.1l-0.4,-0.1c-0.4,0 -0.7,0.3 -0.7,0.7c0,0.5 0.1,1 0.4,1.3l0.3,0.4l0.3,0.1l0.1,-0.5l-0.1,-0.4l0,-0.2l0.1,-0.3c0.1,0 0.2,0.1 0.3,0.6l0.2,0.9l0.2,1.2l0.3,1c0.2,0.5 0.3,0.8 0.4,0.9l0.3,0.5l-0.1,0.1l-0.2,-0.1l-0.3,-0.1l-0.2,0c-0.4,0 -0.5,0.3 -0.5,2c0,1 0.2,2.4 0.5,3.1l0.6,1.3l0.1,0.6c0,1.8 -2.6,4.7 -5.4,6c-1,0.5 -1.4,1 -1.5,2l0,0.3c0.4,-0.2 0.6,-0.3 0.9,-0.3c0.8,-0.2 0.9,-0.3 1.1,-0.7l0.1,-0.3c0,-0.1 0.1,-0.2 0.7,-0.5l0.4,-0.3l0.3,-0.3l0.1,0.1l0,0.1l-0.3,0.7l0,0.2c0,0.5 0.3,1 0.9,1.2c0.1,-0.6 0.2,-0.8 0.4,-1.1l0.5,-0.7c0.2,-0.3 0.2,-0.6 0.2,-1.1l-0.1,-0.8l0,-0.2l0.2,-0.2l0.2,0.1l0.1,0.5l0.3,0.2c0.3,0 0.6,-0.3 0.9,-0.9l0.2,-0.7l0,-0.3l-0.1,-0.4l0,-0.1l0.2,-0.3l0.1,0l0.2,0.6l0.3,0.3l0.7,-0.6c0.2,-0.3 0.2,-0.6 0.2,-1c0,-0.5 0.1,-0.7 0.3,-0.7l0.1,0.1l0.1,0.3l0.2,0.2l0.6,-0.6l0.1,-0.2l-0.2,-0.4l-0.3,-0.6c0,-0.3 0.1,-0.5 0.3,-0.9l0.3,-0.6c0.3,-0.6 0.5,-0.8 0.6,-0.8l0.2,0.2l-0.1,0.2l-0.1,0.3l0.2,0.2l0.5,-0.1c0.1,0 0.3,-0.1 0.7,-0.3l0.9,-0.3l0.5,-0.1l0.5,0l0.6,0.1l0.4,-0.4l-0.4,-0.8l-0.1,-0.2l0,-0.1l0.1,-0.1c0.2,0 0.6,0.4 1,1c2.3,3.4 3.1,4.2 4.6,4.6c1.6,0.5 2,0.8 2,1.7c0,0.5 -0.3,1 -0.8,1.8c-1.2,1.5 -1.4,2.1 -1.4,3.2l0,0.2l0.3,-0.1l0.4,-0.2l0.7,-0.1l0.4,-0.5l0,-0.1l-0.1,-0.5l0,-0.1l0.2,-0.5l0.2,-0.1l0.2,0.2l0.4,0.8c0.7,0.5 0.9,0.6 1.5,0.9" class="st1"/>
  <path id="svg_60" fill="#fff" d="m7.49999,9.30001l-0.3,0.5l0,0.5c-0.1,0.4 -0.1,0.5 -0.1,0.6l0.3,0.6l0.6,-0.7l0.1,-0.6l-0.1,-0.6l-0.5,-0.3z" class="st1"/>
  <path id="svg_61" fill="#fff" d="m5.29999,5.70001l0.4,0.4c0.6,0.6 0.9,1.5 0.9,2.9c0,0.3 0,0.5 -0.1,1.3c0,0.4 -0.1,0.8 -0.1,1.1c0,3.1 1.1,5.4 2.5,5.4c0.4,0 0.7,-0.2 1.2,-0.8l0.2,-0.2l0.1,0.2l0,0.5l0.1,0.5l0,0.5l0.1,0.5l0,0.1l-0.2,0.2l-0.5,0.1l-0.7,0.3c-0.4,0.2 -0.6,0.4 -0.7,0.5l-0.3,0.6l-0.2,0.1c-0.2,0 -0.4,-0.3 -0.7,-0.7c-0.2,-0.4 -0.4,-0.7 -0.4,-0.8l0.2,-0.1l0.1,0l0.3,0l0.2,0l0.2,0l0.2,-0.2l-0.1,-0.1l-1.2,-0.5c-0.4,-0.1 -0.7,-0.4 -0.9,-0.8c-0.3,-0.6 -0.5,-1 -0.5,-1.1l0.2,-0.3l0.2,0.1l0.3,0.1l0.2,-0.2l-0.2,-0.3c-1,-0.7 -1.6,-1.5 -1.6,-2.1l0.2,-0.3l0.2,0l0.3,0l0,0l0.2,-0.2l-0.2,-0.2l-0.4,-0.2l-0.4,-0.4c0,-0.1 -0.2,-0.3 -0.4,-0.8l-0.4,-0.7l-0.2,-0.4l-0.2,-0.2l0.8,-0.2c0.4,0 0.6,0.2 0.9,0.8c0.2,0.4 0.3,0.6 0.4,0.6l0.1,-0.3l-0.1,-0.7l-0.1,-0.6l0,-0.4l-0.3,-0.1l-0.2,-0.2l-0.2,-0.6l0.1,-0.5c0.3,-0.9 0.3,-1.3 0.3,-1.6l0,-0.2l0.4,0.2z" class="st1"/>
  <path id="svg_62" fill="#fff" d="m8.49999,23.70001l-0.8,-0.2l-0.5,-0.2c-0.4,-0.2 -0.7,-0.3 -1,-0.3c-0.4,0 -0.7,0.1 -1.1,0.4l0.2,0.2l0.5,0.3l0.5,0.4l0.4,0.2c0.7,0.1 1.1,-0.2 1.8,-0.8" class="st1"/>
  <path id="svg_63" fill="#fff" d="m18.69999,28.30001l0.5,-0.7c0.7,-0.6 1.1,-1 1.1,-1.4l0,-0.3l0,-0.3l0.2,-0.4l0.2,0.1l0.1,0.3l0.2,0.1l0.4,-0.3l0.3,-0.4l0.2,-0.5l-0.1,-0.3l-0.2,-0.4l-0.1,-0.4l0.2,-0.2l0.2,0.1l0.2,0.2l0.2,0.1l0.3,-0.2l0.2,-0.4l0.1,-0.2l-0.2,-0.2l-0.3,-0.1c-0.5,-0.2 -0.8,-0.9 -0.8,-1.6l0.1,-0.3l0.2,-0.4l0.1,-0.4l-0.3,-0.8l-0.3,-0.5c-0.2,-0.4 -0.2,-0.5 -0.4,-0.5l-0.1,0l-0.2,0.1l-0.3,0.1l-0.3,0.4l-0.4,0.2l-0.4,0.9c0,0.6 0.1,0.8 1,2.3c0.4,0.6 0.5,1.1 0.5,1.4c0,1 -1,1.8 -2.9,2.2l-1.2,0.3c-0.9,0.2 -1.4,0.8 -1.6,1.8c0.4,-0.2 0.5,-0.2 1.2,-0.2l0.4,0l0.1,0l0.6,-0.3l0.9,-0.7l0.4,-0.2l0.3,-0.2l0.1,0l0.1,0.1l-0.3,0.4c-0.3,0.3 -0.4,0.6 -0.4,0.9l0.2,0.8z" class="st1"/>
  <path id="svg_64" fill="#fff" d="m15.39999,24.40001l0.8,0.7l0.5,0.3l0.4,0l0.2,0c0.4,-0.1 0.6,-0.1 0.6,-0.2l-0.1,-0.2l-0.3,-0.2l-0.3,-0.3l-0.9,-0.3c-0.3,-0.1 -0.5,-0.1 -0.9,0.2" class="st1"/>
  <path id="svg_65" fill="#fff" d="m23.89999,25.80001l0.2,0l0.2,0l0.2,0l0.1,0c0.6,0 1.2,-0.5 1.2,-1l-0.5,-0.3c-0.6,0 -1.1,0.4 -1.4,1.3" class="st1"/>
  <path id="svg_66" fill="#232017" d="m14.09999,8.50001l0.3,0.4c0.1,0 0.2,-0.3 0.5,-0.7c0.4,-0.6 0.7,-1.2 0.7,-1.5l-0.1,-0.2l0,0l-0.3,0.2c-0.2,0.2 -0.4,0.3 -0.9,0.5l-0.4,0.4l0,0.2l0.1,0.4l0.1,0.3z" class="st5"/>
  <path id="svg_67" fill="#232017" d="m12.49999,7.20001l0.4,0.2l0.2,0.2l0,0.1l0,0.5c0,0.4 -0.4,0.4 -0.5,0.4l-0.2,-0.3l-0.6,-0.6c-0.2,-0.2 -0.3,-0.6 -0.4,-1.1l0,-0.1l0.2,-0.2l0.3,0.1l0.6,0.8z" class="st5"/>
  <path id="svg_68" fill="#232017" d="m13.49999,9.80001l-0.1,0l-0.3,0l-0.3,-0.2l-0.4,-0.1l-0.4,0.3c0,0.2 0.1,0.6 0.4,1.1l0.3,0.8c0.3,0.7 0.6,1 1,1c0.4,0 0.4,-0.3 0.6,-0.9c0.5,-1.2 0.8,-1.4 0.8,-1.9l-0.4,-0.4l-0.2,-0.1l-0.4,0.3l-0.6,0.1z" class="st5"/>
  <polygon id="svg_69" fill="#fff" points="13.899993896484375,10.400009155273438 13.499992370605469,10.5 13.099990844726562,10.5 12.999992370605469,10.600006103515625 12.899993896484375,10.70001220703125 13.099990844726562,11.300003051757812 13.199996948242188,11.800003051757812 13.599990844726562,12.20001220703125 13.999992370605469,11.70001220703125 14.099990844726562,11.20001220703125 14.099990844726562,10.600006103515625 14.099990844726562,10.5 13.899993896484375,10.400009155273438 " class="st1"/>
  <path id="svg_70" fill="#000" d="m75.69999,16.50001l0.1,0.4l0.2,0.8c0.4,1.4 0.6,1.8 1.3,1.8c0.4,0 0.8,-0.2 0.9,-0.5l0.2,-0.5l0.2,-0.2c0.3,0 0.4,0.3 0.5,0.9c0,0.2 0.1,0.6 0.1,1.2c0.1,0.4 0.1,0.8 0.1,1.1l-0.2,0.7l0.1,0.3c0.1,0.5 0.1,0.7 0.1,0.9c0,1.1 -0.1,1.4 -0.3,1.8c0.1,0.4 0.1,0.6 0.1,0.9c0,0.2 0,0.5 -0.1,0.9l-0.1,0.7l0,0.5l0.1,0.3l-0.1,0.1l-0.5,-0.2l-0.6,-0.3l-0.6,-0.4c-0.5,0.4 -0.6,0.5 -1.2,0.6c-0.9,0.2 -1.2,0.3 -1.4,0.4l-0.4,0.2c-0.2,0 -0.4,-0.4 -0.4,-0.9c0,-0.8 0.1,-1.2 0.2,-1.5c-0.5,-0.2 -0.8,-0.2 -1,-0.2l-0.4,0l-0.1,0l-0.1,-0.2c0,-0.2 0.2,-0.7 0.4,-1.1c0.3,-0.6 0.9,-1 1.3,-1.1l1,-0.2c0.6,-0.1 0.9,-0.4 0.9,-0.8c0,-0.3 -0.2,-0.6 -0.8,-0.8l-1.1,-0.4l-1.1,-0.5l-0.6,-0.3l-0.3,-0.1l-0.4,0.4c0,0.4 0.4,0.8 0.8,0.8l0.3,0l0.2,-0.1l0.2,0.3c0,0.4 -0.3,1.2 -0.6,1.6l-0.3,0.4l-0.2,0.3c-0.1,0.6 -0.8,1.6 -1.4,2l-0.3,0.2l-0.2,0.3l-0.5,0.6l-0.7,0.6l-0.5,0.5l-0.3,0.4l-0.2,0.1c-0.2,0 -0.4,-0.2 -0.6,-0.6l-0.4,-0.4l-0.5,0.1l-0.4,0l-0.9,0c-0.5,0 -1.2,0.1 -1.5,0.3l-0.3,0.1l-0.2,-0.4c0,-0.8 0.6,-2 1.5,-2.8c-0.1,-0.5 -0.4,-0.8 -0.7,-0.9l-0.5,-0.1l-0.1,-0.1c0,-0.1 0.2,-0.3 0.6,-0.5c0.8,-0.3 1,-0.4 1.4,-0.4c0.5,0 0.9,0.2 1.4,0.5c0.7,0.5 0.9,0.6 1.3,0.6c0.6,0 1.1,-0.5 1.1,-1c0,-0.4 -0.2,-0.7 -0.7,-1.3c-0.7,-0.9 -1,-1.4 -1,-2.1c0,-0.5 0.1,-0.8 0.6,-1.5l0.1,-0.3l-0.5,-0.3c-0.3,0 -0.6,0.1 -1.1,0.3c-0.8,0.4 -1.3,0.7 -1.3,0.9l0.1,0.2l0.3,0.2l0.1,0.1l-0.1,0.2c0,0 -0.2,0.3 -0.5,0.7c-0.4,0.5 -0.7,0.8 -1.1,1.1l-0.3,0.3l-0.2,0.4c-0.2,0.3 -0.7,0.8 -1.1,1.1l-0.4,0.3l-0.2,0.3c-0.3,0.5 -0.7,1 -1,1.3l-0.7,0.7c-0.2,0.2 -0.5,0.8 -0.7,1.6c-0.2,0.6 -0.4,0.9 -0.5,0.9l-0.2,-0.2c-0.5,-0.5 -1,-0.9 -1.2,-0.9l-0.3,0.1l-0.7,0.3l-1,0.2c-0.8,0.1 -1.1,0.3 -1.5,0.8l-0.2,0.2l-0.2,-0.3l0,-0.2c0,0 0.1,-0.2 0.1,-0.7c0.1,-0.7 0.3,-1.3 0.5,-1.6l0.5,-0.8l0.1,-0.4c0,-0.6 -0.6,-1 -1.4,-1.2l-0.3,-0.2l0.5,-0.6c0.5,-0.4 1.2,-0.6 1.6,-0.6c0.3,0 0.7,0.1 1.2,0.3l0.6,0.2l0.6,0.1c0.6,0 1.2,-0.5 1.9,-1.7c0.4,-0.6 0.5,-0.9 0.5,-1.3c0,-0.6 -0.3,-1 -0.8,-1c-0.4,0 -0.8,0.2 -1.1,0.5l-0.4,0.8l0,0.3l0,0.1l-0.2,0.3c-0.2,0 -0.5,-0.2 -0.9,-0.7l-0.7,-0.8c-0.8,-0.9 -1,-1.2 -1,-2.1c-0.9,-1.1 -1.1,-1.7 -1.1,-2.3l0,-0.5c-0.6,-0.7 -0.8,-1 -0.8,-1.7l0.1,-0.7c-0.3,-0.4 -0.4,-0.6 -0.5,-1l-0.1,-0.5l-0.4,-0.9l-0.3,-0.5c0,-0.2 0.3,-0.4 0.9,-0.6l0.2,-0.1l0,-0.5l0.1,-0.6l0.2,-0.9l0.1,-0.8c0,-0.2 0,-0.4 -0.2,-0.8l-0.3,-0.6l-0.2,-0.3l0.2,-0.2l0.3,0.1c0.9,0.5 1.9,1.2 2.6,1.9c0.6,0.6 0.8,1.2 0.9,2.6c0.8,0.6 1.1,1.1 1.1,1.9c0,0.5 -0.2,0.9 -0.5,1.5c-0.3,0.5 -0.5,0.7 -0.5,0.8l-0.2,0.8c0,0.5 0.2,0.9 0.5,1.5c0.4,0.7 0.8,0.9 1.2,0.9c0.7,0 1.3,-1.1 1.3,-2.4l0,-0.2l0,-0.7l0.1,-0.6l0,-0.7l0.1,-0.6l0,-0.3c0,-0.3 -0.1,-0.3 -0.9,-1.1c-0.9,-0.9 -1.3,-1.7 -1.3,-2.4c0,-0.7 0.6,-1.2 1.4,-1.2l0.5,0.1l0,-0.3l0,-0.5l0.2,-0.6c0.1,-0.5 0.2,-0.6 0.4,-0.6l0.1,0l0.5,0.4l0.6,0.4l0.2,0.1l0.3,-0.7l0.4,-0.5l0.3,-0.4l0.2,-0.2l0.2,-0.2l0.2,0.4l0.2,0.3l0.4,0.3c0.3,0.2 0.5,0.6 0.6,1l0.5,-0.5l0.4,-0.2l0.3,-0.1l0.1,0.1l0.2,0.4c0.3,0.5 0.4,0.6 0.4,0.9l0,0.2l0,0.3c0.9,0.2 1.2,0.7 1.2,1.6c0,0.7 -0.3,1.4 -1,2.1c-0.5,0.5 -0.5,0.7 -0.5,1.1c0,1.8 1.4,2.8 3.8,2.8l1.7,0c1.2,0 1.8,0.1 2.9,0.4c1.2,0.4 1.6,0.5 2,0.5l0.5,-0.3c0,-0.4 -0.6,-0.6 -2.8,-1.2c-4.4,-1.2 -6.2,-2.8 -6.2,-5.6c0,-2.1 1.9,-3.7 4.3,-3.7c0.8,0 2,0.2 2.6,0.4l1.1,0.4l0.6,0.1c0.4,0 0.5,-0.2 0.6,-0.9l0.3,-0.4c0.3,0 0.8,0.4 1.2,0.9c0.4,0.5 0.7,1.2 0.7,1.7c0,0.5 -0.3,0.9 -0.9,1.3c-0.6,0.9 -1.3,1.2 -2.3,1.2c-0.8,0 -2,-0.5 -3.6,-1.4c-0.6,-0.3 -0.9,-0.5 -1.2,-0.5c-0.5,0 -0.8,0.3 -0.8,0.7c0,0.4 0.3,0.6 1.1,0.9c1.2,0.4 1.5,0.5 1.9,1c1.3,0.2 1.9,0.4 2.8,1.1c2.4,0.7 3.8,2.1 3.8,3.9c0,1.7 -1.2,2.8 -2.8,2.8c-0.7,-0.2 -0.9,-0.2 -1.5,-0.4" class="st0"/>
  <path id="svg_71" fill="#fff" d="m78.29999,27.50001l-0.1,-0.5l0,-0.3c0.1,-0.5 0.1,-0.7 0.1,-1l-0.2,-0.5l-0.3,-0.4l-0.3,-0.7l0.1,-0.2l0.1,0l0.2,0.1l0.3,0.1c0.2,0 0.2,-0.2 0.2,-0.7c0,-0.7 -0.1,-1 -0.5,-1.3l-0.4,-0.3l-0.1,-0.2l0.2,-0.2l0.3,0.1l0.3,0.1l0.1,0l0.1,-0.2l0,-0.1l-0.1,-0.5c-0.1,-0.6 -0.2,-0.8 -0.3,-0.8l-0.1,0l-0.7,0.1l-0.1,0c-0.8,0 -1.8,-0.7 -2.1,-1.6l-0.5,-1.6c-0.1,-0.5 -0.6,-1 -1.3,-1.5l-0.5,-0.3l-0.5,0l-0.1,-0.1l0.3,-0.1c0.7,0 1.4,0.1 2.3,0.4c0.9,0.3 1.3,0.4 1.8,0.4c1.3,0 2.1,-0.6 2.1,-1.7c0,-0.5 -0.2,-1.2 -0.5,-1.7c-0.3,-0.4 -0.7,-0.8 -1.2,-1.1l-0.2,-0.1l-0.1,0.1l0,0.3l0,0l-0.2,0.2l-0.5,-0.5c-0.5,-1 -1.3,-1.6 -2.1,-1.6l-0.3,0.2l0.1,0.3l0.2,0.5l0.1,0.2l-0.1,0.1l-0.5,-0.2l-0.4,-0.4l-0.3,-0.5c-0.3,-0.4 -0.6,-0.6 -1.1,-0.9l-0.7,-0.3l-0.3,-0.1l-0.1,0.1l0.1,0.3l0.2,0.5l-0.1,0.1c-0.2,0 -0.5,-0.3 -1,-0.9c-0.3,-0.4 -0.5,-0.9 -0.5,-1.4c0,-1.1 0.9,-1.9 2,-1.9c0.6,0 1.3,0.2 2,0.6l1.3,0.7c0.5,0.2 1.1,0.4 1.5,0.4c0.2,0 0.3,0 0.7,-0.1l0.4,-0.1l0.1,-0.2l-0.2,-0.1c-0.6,0 -1.8,-0.5 -2.6,-1c-0.5,-0.3 -0.8,-0.4 -0.9,-0.5l-0.4,-0.3l0.1,-0.1l0.2,0l1.1,0.4l1.1,0.4c0.5,0.2 1.4,0.4 1.8,0.4c0.5,0 0.8,-0.3 0.8,-0.8l-0.2,-0.7l-0.5,-0.5l-0.2,0.3l0,0.1l0,0.3l-0.5,0.5l-0.4,-0.1l-1.7,-0.5c-1.5,-0.5 -2.1,-0.6 -2.8,-0.6c-2.1,0 -3.6,1.3 -3.6,3.1c0,2 1.4,3.2 5.2,4.5c3.6,1.2 4.1,1.5 4.1,2.4c0,0.5 -0.5,0.9 -1.2,0.9l-0.6,0c-0.2,0 -0.7,-0.2 -1.8,-0.4c-1.1,-0.2 -2,-0.4 -3.3,-0.4c-2.6,0 -3.9,0.4 -5.3,1.6l-0.8,0.3l-0.2,0l-0.4,0l-0.7,0.4l-0.4,0.7l-0.3,0.1c-0.3,0 -0.4,-0.2 -0.7,-0.8l-0.5,-0.7l-0.6,-0.4l-0.1,-0.2l0.1,-0.2l0.2,-0.4l0.1,-0.3l0,-0.2l0.2,-0.1c0.2,0 0.2,0.1 0.2,0.7l0.2,0.7l0.3,0.6l0.2,0.1c0.3,0 0.6,-0.6 0.7,-1.3c0.1,-0.5 0.1,-0.7 0.3,-0.7c0.1,0 0.1,0.1 0.4,0.5l0.3,0.4l0.3,0.2l0,0c0.2,0 0.3,-0.1 0.4,-0.6l0,-0.2l-0.1,-0.4l0,-0.2l0.1,-0.3l0.2,0.1l0.3,0.3l0.5,0.2l0.4,-0.2l-0.3,-0.6l-0.2,-0.3c-0.2,-0.4 -0.3,-0.5 -0.5,-0.5l-0.3,0l-0.4,0.1l-0.2,0.1l-0.1,-0.1c0,-0.2 0.1,-0.6 0.4,-1c0.2,-0.3 0.3,-0.9 0.4,-2l0.1,-1.2c0.1,-0.7 0.1,-1 0.3,-1l0.1,0.1l0.1,0.4l0,0.3l0.1,0.7l0.4,-0.3l0.2,-0.5l0.1,-0.7c0,-0.6 -0.3,-0.8 -1.1,-1l-0.2,-0.1l0,-0.2l0,-0.4l-0.1,-0.3l-0.1,-0.3l-0.1,-0.3l-0.2,0.1c-0.5,0.3 -0.7,0.4 -0.8,0.6l-0.4,0.4l-0.1,-0.1l0.1,-0.4l0,-0.1c0,-0.6 -0.3,-1.1 -0.9,-1.5l-0.2,0.2l-0.2,0.2l-0.3,0.4l-0.3,0.7l0,0.1l0,0.1l-0.1,0.3l-0.1,0l-0.2,-0.3l-0.3,-0.3l-0.5,-0.3l-0.2,-0.2c-0.3,0.5 -0.3,0.6 -0.3,1.3l0,0.2l-0.2,0.4l-0.3,-0.1l-0.4,-0.1c-0.4,0 -0.7,0.3 -0.7,0.7c0,0.5 0.1,0.8 0.4,1.3l0.6,0.6l0.1,-0.5l-0.1,-0.4l0,-0.2l0.2,-0.3c0.1,0 0.2,0.1 0.3,0.6l0.2,0.9l0.2,1.2l0.3,1c0.2,0.5 0.4,0.8 0.4,0.9l0.3,0.5l-0.1,0.1l-0.2,-0.1l-0.3,-0.1l-0.2,0c-0.5,0 -0.5,0.3 -0.5,2c0,1 0.2,2.4 0.5,3.1l0.6,1.3l0.1,0.6c0,1.8 -2.6,4.8 -5.4,6c-1.1,0.5 -1.4,1 -1.5,2.4c0.5,-0.2 0.7,-0.3 0.9,-0.3c0.8,-0.2 0.9,-0.3 1.1,-0.7l0.1,-0.3c0,-0.1 0.2,-0.2 0.7,-0.5l0.4,-0.3l0.3,-0.3l0.1,0.1l0,0l-0.3,0.7l0,0.2c0,0.5 0.3,1 0.9,1.2l0.1,-0.3c0.1,-0.4 0.2,-0.6 0.3,-0.8l0.5,-0.7c0.2,-0.3 0.2,-0.4 0.2,-1.1l0,-0.8l0,-0.2l0.2,-0.2l0.2,0.1l0.1,0.5l0.3,0.2c0.2,0 0.6,-0.3 0.9,-0.9l0.2,-0.6l-0.1,-0.8l0,-0.1l0.2,-0.2l0.1,0l0.2,0.6l0.3,0.3c0.4,0 0.8,-0.8 0.9,-1.6c0,-0.5 0.1,-0.7 0.3,-0.7l0.1,0.1l0.1,0.3l0.2,0.2l0.4,-0.3l0.2,-0.3l0.1,-0.3l-0.2,-0.3l-0.3,-0.5c0,-0.4 0.2,-0.8 0.6,-1.5c0.4,-0.7 0.5,-0.8 0.6,-0.8l0.2,0.2l0,0.2l-0.1,0.3l0.2,0.2l0.5,-0.1l0.7,-0.3c0.5,-0.2 0.8,-0.3 0.9,-0.3l0.5,-0.1l0.5,0l0.6,0.1l0.4,-0.4l-0.2,-0.4l-0.2,-0.4l-0.2,-0.2l0,-0.1l0.2,-0.1c0.2,0 0.6,0.4 1,1c2.1,3.2 3.1,4.2 4.6,4.6c1.6,0.5 2,0.8 2,1.7c0,0.5 -0.3,1 -0.8,1.8c-1.1,1.4 -1.5,2.2 -1.5,3.1l0,0.2l0.3,-0.1l0.4,-0.2l0.7,-0.1l0.4,-0.5l0,0l0,-0.5l0,-0.1l0.4,-0.6l0.2,0.1l0.4,0.8c0.7,0.5 0.9,0.6 1.5,0.9" class="st1"/>
  <path id="svg_72" fill="#fff" d="m56.59999,10.30001l0,0.4l0,0.2c0,0.4 0.1,0.6 0.2,0.6l0.6,-0.7l0.1,-0.7l-0.1,-0.5l-0.4,-0.4c-0.3,0.1 -0.4,0.4 -0.4,1.1" class="st1"/>
  <path id="svg_73" fill="#fff" d="m54.69999,5.70001l0.4,0.4c0.5,0.5 0.9,1.6 0.9,2.6l0,0.4l-0.1,1.2l0,1c0,3.3 1,5.5 2.5,5.5c0.4,0 0.8,-0.3 1.2,-0.8l0.2,-0.2l0.2,0.2l0,0.5l0,0.5l0.1,0.5l0.1,0.5c0,0.3 -0.1,0.3 -0.7,0.4l-0.7,0.3c-0.4,0.3 -0.6,0.4 -0.7,0.5l-0.3,0.6l-0.2,0.1c-0.2,0 -0.4,-0.2 -0.7,-0.7c-0.3,-0.4 -0.4,-0.7 -0.4,-0.8l0.2,-0.1l0,0l0.3,0l0.2,0l0.2,0l0.1,-0.2l-0.1,-0.1l-1.2,-0.5c-0.3,-0.1 -0.6,-0.4 -0.9,-0.8c-0.3,-0.5 -0.5,-0.9 -0.5,-1.1l0.2,-0.3l0.2,0.1l0.3,0.1l0.1,0l0.1,-0.1l-0.2,-0.3c-1,-0.7 -1.6,-1.5 -1.6,-2.1l0.1,-0.3l0.2,0l0.4,0l0.2,-0.2l0.1,-0.4c-0.7,-0.3 -0.8,-0.5 -1.3,-1.4c-0.3,-0.7 -0.5,-1 -0.8,-1.3l0.8,-0.2c0.4,0 0.6,0.2 0.8,0.8c0.2,0.4 0.3,0.6 0.5,0.6l0.1,-0.3l-0.1,-0.8l0,-0.4l0,-0.4l-0.3,-0.1l-0.5,-0.8l0,-0.5l0.2,-0.6c0.1,-0.4 0.2,-0.8 0.2,-1.1l0,-0.2l0.2,0.3z" class="st1"/>
  <path id="svg_74" fill="#fff" d="m57.89999,23.70001c-0.6,-0.1 -0.6,-0.1 -1.3,-0.4c-0.4,-0.2 -0.7,-0.3 -1,-0.3c-0.4,0 -0.7,0.1 -1.1,0.4l0.2,0.2l0.5,0.3l0.5,0.4l0.4,0.2c0.7,0.1 1.1,-0.2 1.8,-0.8" class="st1"/>
  <path id="svg_75" fill="#fff" d="m68.09999,28.30001l0.5,-0.7c0.7,-0.6 1.1,-1 1.1,-1.4l0,-0.3l0,-0.3l0.2,-0.4l0.2,0.1l0.1,0.3l0.2,0.1c0.2,0 0.3,-0.1 0.6,-0.7l0.2,-0.5l-0.1,-0.3l-0.2,-0.4l-0.1,-0.4l0.2,-0.2l0.2,0.1l0.2,0.2l0.1,0.1l0.4,-0.2l0.2,-0.4l0.1,-0.2l-0.2,-0.2l-0.4,-0.1c-0.4,-0.2 -0.8,-0.9 -0.8,-1.6l0.1,-0.3l0.2,-0.4l0.1,-0.4l-0.3,-0.8l-0.3,-0.5c-0.2,-0.4 -0.2,-0.5 -0.4,-0.5l-0.3,0.1l-0.2,0.1l-0.4,0.4l-0.4,0.2c-0.2,0.1 -0.4,0.6 -0.4,0.9c0,0.5 0.1,0.8 1,2.3c0.4,0.6 0.5,1.1 0.5,1.4c0,1 -1.1,1.9 -2.9,2.2c-2.1,0.4 -2.6,0.7 -2.8,2c0.4,-0.2 0.5,-0.2 1.2,-0.2l0.4,0l0.1,0l0.6,-0.3l0.9,-0.7l0.4,-0.2l0.3,-0.2l0.1,0l0.1,0.1l-0.2,0.4l-0.4,0.8l0.3,1z" class="st1"/>
  <path id="svg_76" fill="#fff" d="m64.79999,24.40001l0.8,0.7l0.6,0.3l0.4,0l0.2,0c0.5,-0.1 0.6,-0.1 0.6,-0.3l-0.1,-0.2l-0.3,-0.2l-0.3,-0.3l-0.8,-0.3c-0.5,0 -0.7,0.1 -1.1,0.3" class="st1"/>
  <path id="svg_77" fill="#fff" d="m73.39999,25.80001l0.1,0l0.3,0l0.2,0l0.1,0l0.5,-0.1l0.5,-0.6l0.1,-0.3l-0.5,-0.3c-0.6,0 -1.1,0.4 -1.3,1.3" class="st1"/>
  <path id="svg_78" fill="#232017" d="m63.49999,8.50001l0.3,0.4c0.1,0 0.3,-0.4 0.6,-0.8c0.4,-0.6 0.7,-1.1 0.7,-1.4l-0.1,-0.2l0,0l-0.3,0.2l-0.9,0.4l-0.4,0.4l0,0.2l0.2,0.4l-0.1,0.4z" class="st5"/>
  <path id="svg_79" fill="#232017" d="m61.09999,6.60001l-0.3,-0.1l-0.2,0.2l0,0.1l0.1,0.4c0.1,0.4 0.3,0.6 0.3,0.7l0.4,0.6l0.6,0.3l0,0l0.1,-0.1l0.1,-0.5l0.1,-0.5l0,-0.1l-0.2,-0.3l-0.4,-0.2l-0.6,-0.5z" class="st5"/>
  <path id="svg_80" fill="#232017" d="m62.89999,9.80001l-0.1,0l-0.3,0l-0.3,-0.2l-0.4,-0.1l-0.4,0.4c0,0.2 0.1,0.5 0.3,1l0.3,0.8c0.3,0.7 0.6,1 1,1c0.3,0 0.6,-0.3 0.8,-0.8l0.3,-1.1l0.5,-0.7l-0.6,-0.6l-0.1,0l-0.4,0.3l-0.6,0z" class="st5"/>
  <polygon id="svg_81" fill="#fff" points="63.29999542236328,10.400009155273438 62.899993896484375,10.5 62.59999084472656,10.5 62.399993896484375,10.600006103515625 62.29999542236328,10.70001220703125 62.49999237060547,11.300003051757812 62.59999084472656,11.800003051757812 62.899993896484375,12.20001220703125 63.399993896484375,11.70001220703125 63.49999237060547,11.20001220703125 63.49999237060547,10.600006103515625 63.49999237060547,10.5 63.29999542236328,10.400009155273438 " class="st1"/>
  <path id="svg_82" fill="#000" d="m26.69999,63.70001c0.2,0.5 0.3,0.8 0.3,1.2l0.1,1.1c0,1.1 0.4,1.6 1.1,1.6l0.6,-0.2l0.3,-0.3l0.1,0l0.3,0.3l0,0.4c0,0.2 0,0.6 0.1,1.1l0.1,1c0,0.5 0,0.7 -0.2,1.2c0.2,0.5 0.3,1 0.3,1.5c0,0.6 -0.1,0.9 -0.3,1.2c0.1,0.4 0.1,0.6 0.1,0.8c0,0.2 0,0.6 -0.1,0.9c-0.1,0.5 -0.1,0.9 -0.1,1.2l0,0.1l-0.2,0.2l-0.3,-0.2l-0.4,-0.3c-0.2,0 -0.2,0.1 -0.5,0.8c-0.1,0.2 -0.3,0.5 -0.6,0.9l-0.5,0.7l-0.2,0.5l-0.1,0.1l0,0c-0.4,0 -0.9,-0.9 -1.4,-2.5c-0.2,-0.5 -0.3,-0.7 -0.6,-0.7l-0.4,0.3l-0.2,0.4l-0.1,0.1c-0.2,0 -0.5,-0.4 -0.7,-0.8c-0.2,-0.4 -0.3,-0.8 -0.3,-1.2c0,-0.8 0.6,-1.4 2.5,-2.3c0.8,-0.4 1.1,-1 1.1,-1.9c0,-0.8 -0.2,-1.2 -1,-1.7c-0.6,-0.4 -0.9,-0.6 -1.2,-0.6l-0.5,0.4l0.5,0.5c0.4,0.1 0.6,0.3 0.6,0.4c0,0.2 -0.2,0.5 -0.5,0.9c-0.3,0.4 -0.4,0.6 -0.8,0.8c-0.1,0.7 -0.5,1.1 -1.3,1.6c-0.2,0.4 -0.2,0.6 -0.5,0.9l-0.6,0.7l-0.4,0.8c-0.1,0.4 -0.1,0.4 -0.3,0.4c-0.2,0 -0.6,-0.3 -1.1,-0.9l-0.4,-0.8c-0.3,0.2 -0.4,0.2 -0.9,0.3l-0.7,0.2c-0.4,0.2 -0.5,0.3 -0.6,0.3l-0.1,-0.2l0,-0.5c0,-0.8 0.3,-1.6 0.8,-2.2c-0.4,-0.4 -0.9,-0.6 -1.3,-0.7l-0.2,-0.1l0.2,-0.5l0.5,-0.5c0.4,-0.3 1,-0.5 1.5,-0.5c0.4,0 0.9,0.1 1.5,0.4l0.6,0.1l0.5,-0.5c0,-0.5 -0.2,-1.2 -0.8,-2.3c-0.4,-0.8 -0.5,-1.3 -0.5,-1.6c0,-0.9 0.4,-1.8 1,-2l-0.6,-0.2l-0.8,0.3l-0.6,0.5l0.2,0.2l0.2,0.4c0,0.6 -0.5,1.4 -1.3,2c-0.2,0.9 -0.6,1.4 -1.4,1.8c-0.1,0.5 -0.2,0.6 -0.6,1.2c-0.7,0.9 -0.9,1.2 -1,1.7l-0.2,0.4l-0.6,-0.4l-0.4,-0.5c-0.1,-0.2 -0.2,-0.3 -0.3,-0.8l-0.4,0.1l-0.4,0l-0.3,0c-0.6,0 -1.2,0.1 -1.5,0.3l-0.2,0.1c-0.2,0 -0.3,-0.3 -0.3,-0.8c0,-0.9 0.3,-1.7 0.9,-2.5l-0.5,-0.5l-0.2,-0.2l-0.3,-0.1l-0.1,-0.2c0,-0.1 0.4,-0.5 0.9,-0.8c0.5,-0.3 0.9,-0.4 1.3,-0.4c0.4,0 0.7,0.1 1.2,0.6l0.8,0.4l0.4,-0.2l0.2,-0.4c0,-0.5 -0.6,-1.3 -1.3,-1.7c-0.5,-0.3 -1.1,-0.5 -1.6,-0.5c-0.7,0 -1.4,0.3 -1.7,0.9l-0.3,0.6l-0.2,0.2c-0.2,0 -0.3,-0.1 -0.9,-0.7l-0.7,-0.7l-0.4,-0.7l-0.1,-0.3l-0.3,-0.2c-0.5,-0.3 -0.9,-1.1 -1.1,-2.1l-0.1,-0.3c-0.7,-0.7 -1,-1.7 -1,-2.5l0,-0.3c-0.4,-0.4 -0.4,-0.5 -0.7,-1.4c-0.2,-0.7 -0.4,-1 -0.6,-1.3l-0.1,-0.2l0.6,-0.3l0.5,-0.1l0.5,0l0,-0.7c0,-0.4 0,-0.7 0.1,-1.1l0.1,-0.5l-0.1,-0.4l-0.1,-0.4l-0.1,-0.2l0.2,-0.1l0.3,0.1c0.5,0.2 0.8,0.4 1.1,0.7c0.9,0.7 1.6,1.7 1.6,2.4l0,0.2l0,0.4l0.2,0.4l0.3,0.4l0.4,1c0,0.2 0,0.3 -0.5,0.9c-0.3,0.4 -0.5,0.7 -0.5,1.1c0,0.5 0.2,1 0.5,1.6c0.3,0.5 0.7,0.8 1,0.8c0.6,0 0.8,-0.5 0.9,-1.8c0,-0.7 0.1,-1.3 0.2,-1.9l0,-0.4l-0.2,-0.5l-0.8,-0.9c-0.8,-0.8 -1,-1.3 -1,-1.9c0,-0.7 0.5,-1.2 1.2,-1.2l0.3,0l0,-0.2l0.1,-0.7c0.2,-0.5 0.4,-0.9 0.5,-0.9l0.3,0.1l0.5,0.2l0.5,0.3c0.1,-0.4 0.2,-0.6 0.4,-0.9c0.3,-0.4 0.7,-0.8 0.9,-0.8l0.4,0.3l0.5,0.5l0.3,0.5l0.1,0.2l0.3,-0.2l0.4,-0.2l0.5,-0.2l0.3,-0.1c0.1,0 0.2,0.1 0.3,1c0.1,0.6 0.1,0.7 0.2,1.1c0.8,0.1 1.2,0.6 1.2,1.4c0,0.8 -0.4,1.6 -1.3,2.5l-0.3,0.6c0,2.2 0.8,2.9 3.7,3.2c1.8,0.2 2.3,0.3 4.5,0.9c1.1,0.3 1.8,0.5 2.2,0.5c0.5,0 0.8,-0.2 0.8,-0.5c0,-0.5 -0.4,-0.6 -2.5,-1c-4.9,-1 -6.8,-2.6 -6.8,-5.6c0,-2.2 1.7,-3.8 4,-3.8c1,0 1.9,0.3 3.4,1.1c1.3,0.7 1.6,0.9 1.9,0.9c0.4,0 0.5,-0.2 0.5,-0.8l0.3,-0.5l0.8,0.5c0.4,0.5 0.6,0.7 0.6,1.4c0,0.9 -0.5,1.5 -1.5,1.8l-0.2,0.2c-0.5,0.6 -1,0.8 -1.9,0.8c-0.8,0 -1.7,-0.3 -2.4,-0.7l-1.2,-0.8c-0.6,-0.4 -1,-0.5 -1.3,-0.5c-0.6,0 -0.9,0.3 -0.9,0.8c0,0.5 0.4,0.9 0.9,1.1l1.2,0.4c0.4,0.1 0.6,0.2 1.1,0.5l0.6,-0.1c0.8,0 1.6,0.2 2.2,0.5l0.5,0.2l0.7,0.2c1.5,0.4 2.7,2 2.7,3.5c0,1.8 -1.2,2.9 -3.2,2.9l-0.3,-0.3z" class="st0"/>
  <path id="svg_83" fill="#fff" d="m26.29999,78.60001l0.2,-0.3l0.4,-0.4c0.3,-0.3 0.5,-0.8 0.5,-1.3l-0.1,-0.8l-0.1,-0.4l0.3,-0.3l0.2,0.1l0.4,0.4l0.6,0.4l0,-0.3l0,-0.4c0,-0.6 -0.2,-1.3 -0.6,-1.7l-0.3,-0.5l0.1,-0.2l0.1,0.1l0.5,0.2l0.2,-0.6c0,-0.5 -0.2,-1 -0.5,-1.4l-0.3,-0.4l0,-0.1l0.2,-0.2l0.3,0.1l0.2,0.1c0.2,0 0.3,-0.3 0.3,-1l0,-0.3l0,-0.4c0,-0.5 -0.1,-0.6 -0.3,-0.6l-0.2,0c-1.3,0 -1.9,-0.8 -2.2,-2.9c-0.2,-1.5 -0.8,-2.6 -1.6,-2.8c-0.4,-0.1 -0.6,-0.2 -0.6,-0.3l0.2,-0.1l0.5,0.1c1,0.4 1.9,0.6 2.7,0.6c1.3,0 2.3,-0.9 2.3,-2c0,-0.8 -0.4,-1.7 -1.2,-2.4l-0.7,-0.4l0,0l-0.1,0l0.1,0.4l0.1,0.3l0,0.1l-0.1,0.1l-0.2,-0.1l-0.5,-0.7c-0.4,-0.5 -1.2,-1 -1.8,-1l-0.4,0.2l0.2,0.3l0.2,0.4l0,0.1l-0.1,0.1l0,0c-0.1,0 -0.2,-0.1 -0.8,-0.7c-0.5,-0.5 -1.4,-1 -1.9,-1l-0.2,0.1l-0.1,0.1l0.2,0.3l0.3,0.4l-0.2,0.1c-0.2,0 -0.5,-0.2 -1.1,-0.7c-1,-0.7 -1.4,-1.4 -1.4,-2.2c0,-1 0.7,-1.7 1.7,-1.7c0.6,0 1.3,0.2 1.8,0.6l1.3,0.9c0.6,0.4 1.3,0.7 2.1,0.7l0.4,-0.1l0.2,-0.2l-0.2,-0.1c-0.5,-0.1 -0.8,-0.3 -1.1,-0.4l-1.3,-1c-0.5,-0.4 -0.8,-0.6 -1.1,-0.7c-0.7,-0.3 -0.8,-0.4 -0.8,-0.5l0.2,-0.1l0.2,0l0.7,0.3c0.2,0.1 0.6,0.3 1.1,0.6c1.4,0.9 2.1,1.2 3,1.2c0.8,0 1.4,-0.5 1.4,-1.3l-0.1,-0.4l-0.1,-0.2l-0.2,-0.1l-0.1,0.1l-0.1,0.5l-0.1,0.2l-0.2,0.3l-0.5,0.2c-0.4,0 -0.9,-0.2 -2.1,-0.9c-1.2,-0.8 -2.4,-1.2 -3.3,-1.2c-1.9,0 -3.4,1.4 -3.4,3.2c0,2.5 1.6,3.6 6.7,4.7c1.9,0.4 2.8,0.9 2.8,1.7c0,0.7 -0.6,1.2 -1.6,1.2l-0.7,0c-0.2,0 -1.1,-0.3 -2.7,-0.7c-1.1,-0.3 -2.4,-0.5 -3.5,-0.5c-2,0 -3.3,0.6 -4.3,1.8l-0.3,0.2l-0.2,-0.1l-0.4,-0.3l-1,-0.3l-0.6,0.2l-0.3,0.2c-0.2,0 -0.4,-0.3 -0.6,-0.7c-0.3,-0.6 -0.4,-1.2 -0.4,-1.7l0.2,-0.4l0.2,0.2l0.2,0.7c0.1,0.4 0.4,0.7 0.5,0.7l0.4,-0.3l0.2,-0.4c0.2,-0.5 0.2,-0.5 0.3,-0.5c0.2,0 0.2,0.1 0.3,0.6l0.2,0.4l0.3,0.4l0.3,0.1c0.2,0 0.5,-0.4 0.5,-0.8l0,-0.1l0,-0.5l0.1,-0.2l0.2,0.1l0.4,0.3l0.4,0.1l0.3,-0.1l0.1,-0.2l-0.4,-0.4c-0.1,-0.2 -0.3,-0.5 -0.5,-1l-0.3,-0.3l-0.2,0.1l-0.3,0.1l-0.3,0.1l-0.1,0l-0.2,-0.2l0.5,-0.6l0.3,-0.7c0,-0.4 0.1,-0.8 0.2,-0.8l0.1,-0.9c0,-0.4 0.2,-1.3 0.4,-1.7l0.1,-0.2l0.2,0.4l0,0.1l0,0.3l0.1,0.5l0.4,-0.4l0.2,-0.6l0.1,-0.5c0,-0.5 -0.3,-0.8 -0.7,-0.8l-0.2,0l-0.2,0.1l-0.3,-0.3l0,-0.4l0,-0.5l-0.1,-0.5l0,-0.2l-0.2,0.1l-0.3,0.2l-0.4,0.3l-0.4,0.3l-0.2,0.1c-0.2,0 -0.2,0 -0.2,-0.4l0,-0.1c0,-0.3 -0.1,-0.6 -0.7,-1.2l-0.1,-0.1l-0.1,0.2l-0.3,0.4l-0.3,0.7l-0.1,0.4l-0.1,0.2l-0.3,-0.2c-0.4,-0.4 -0.5,-0.5 -1.1,-0.7l0,0.2l-0.2,0.5l0,0.5l0,0.2l0,0.2l-0.1,0.2l0,0l-0.2,-0.1l-0.3,-0.1c-0.5,0 -0.8,0.3 -0.8,0.7c0,0.3 0.1,0.5 0.6,1.2l0.6,0.6l0.1,-0.4l0,-0.3l-0.1,-0.4l0.1,-0.2c0.2,0 0.5,0.7 0.6,1.5l0.1,0.9l0.3,1c0.2,0.5 0.5,0.8 0.7,0.9l0.4,0.4l-0.1,0.2l-0.5,-0.2l-0.2,0c-0.5,0 -0.7,0.3 -0.7,1.1c0,1 0.7,2.5 1.6,3.2l1.2,0.9c0.6,0.5 1.1,1.2 1.1,1.8c0,0.7 -0.8,1.5 -2.3,2l-0.9,0.3c-0.7,0.2 -0.9,0.7 -1.2,1.9l0.7,-0.1l0.1,0l0.4,0l0.6,-0.5l0,-0.4l0.2,-0.2l0.4,-0.2l0.3,-0.2l0.1,-0.1l0.1,0.1l-0.1,0.2l-0.1,0.9c0,0.6 0.1,0.9 0.4,1.4l0.1,-0.3l0.5,-0.7c0.4,-0.5 0.7,-1.2 0.7,-1.5l0,-0.1l-0.1,-0.6l0.1,-0.3l0.2,-0.1l0.3,0.2l0.2,0.2l0.4,-0.5l0.1,-0.5l-0.1,-0.3l-0.1,-0.3l0.1,-0.2l0.1,-0.1l0.1,0.1l0.3,0.1l0.2,0.1l0.4,-0.3l0.4,-0.7l-0.2,-0.2c-0.5,-0.4 -0.9,-0.9 -0.9,-1.3l0.1,-0.4l0.3,-0.7l0.2,-0.5l0.1,0l0.2,0.2l-0.1,0.3l-0.1,0.5l0.3,0.3l0.4,-0.1c0.8,-0.3 1.4,-0.5 1.8,-0.5l1,0.3l0.2,0.1l0.1,-0.1l0.1,-0.1l-0.2,-0.3l-0.2,-0.4l0.1,-0.1c0.4,0 1.1,1.2 1.7,3.2c0.5,1.6 0.6,1.7 2.2,2.6c1.3,0.7 1.8,1.4 1.8,2.6c0,1.1 -0.3,2.6 -1,4.4c-0.2,0.6 -0.3,1 -0.3,1.3c0,0.3 0.1,0.5 0.3,1.2l0.2,0.6l0,0.5z" class="st1"/>
  <path id="svg_84" fill="#fff" d="m20.19999,75.10001c0.2,-0.3 0.2,-0.4 0.5,-0.8c0.4,-0.6 0.6,-0.9 0.6,-1.2l0,-0.4c0,-0.4 0.1,-0.5 0.2,-0.5l0.1,0.1l0.1,0.2l0.2,0.1l0.3,-0.2l0.3,-0.9l0,-0.3l0,-0.3l0.2,-0.2l0.2,0.2l0.2,0.2l0.2,-0.1l0.2,-0.3l0.2,-0.2l0,-0.1l-0.2,-0.2c-0.5,-0.3 -0.7,-0.8 -0.7,-1.8c0,-0.7 -0.1,-1.2 -0.1,-1.4c0,-0.1 -0.2,-0.4 -0.5,-1.1l-0.3,-0.9l-0.3,-0.3c-0.7,0 -1.3,0.6 -1.3,1.3c0,0.4 0.2,1.2 0.6,2c0.5,1.2 0.6,1.7 0.6,2.1c0,0.9 -0.4,1.3 -1.7,1.8c-1.5,0.5 -2.2,1.2 -2.5,2.6l0.3,-0.1l0.4,-0.1l0.4,-0.1l0.7,-0.5l0.1,-0.4l0.1,-0.2l0.2,-0.1l0.2,-0.1l0,0.1l-0.1,0.3l-0.1,0.6c0.2,0.4 0.3,0.8 0.7,1.2" class="st1"/>
  <path id="svg_85" fill="#fff" d="m5.89999,51.90001l0.1,0.3l-0.1,0.6l-0.1,0.5c0,0.4 0.1,0.9 0.2,1.3l0.2,0.6l0,0.1l-0.1,0.2l-0.3,-0.2l-1,-0.4l-0.5,0l0.1,0.3l0.4,0.9l0.6,0.8l0.6,0.4l0.1,0.2l0.1,0.1l-0.1,0.1l-0.5,0l-0.1,0.1c0,0.1 0.1,0.3 0.2,0.8l0.3,0.7l0.4,0.4l0.5,0.3l0.2,0.3l-0.1,0.1l-0.3,0l-0.1,0.2c0,0.2 0.2,0.5 0.5,1c0.4,0.5 0.7,0.7 1.2,0.7l0.4,0l0.3,0.2l-0.2,0.2l-0.5,0.3l0.1,0.3l0.2,0.3l0.5,0.4l0.4,-0.2l0.8,-0.6c0.9,-0.2 1.1,-0.3 1.1,-0.5l-0.1,-0.3c-0.3,-0.5 -0.4,-0.8 -0.4,-1.2l-0.2,-0.5l-0.2,0.2l-0.9,0.5c-0.9,0 -2,-1.4 -2.6,-3.2c-0.1,-0.4 -0.2,-0.9 -0.2,-1.3c0,-0.5 0.1,-1 0.2,-1.5c0.2,-0.7 0.3,-1.1 0.3,-1.2l0,-0.3c0.2,-0.6 -0.4,-1.3 -1.4,-2" class="st1"/>
  <path id="svg_86" fill="#fff" d="m7.79999,55.40001c-0.2,0.4 -0.4,1.1 -0.4,1.6l0.2,0.5l0.1,-0.1l0.3,-0.5l0.2,-0.3l0.2,-0.4l-0.6,-0.8z" class="st1"/>
  <path id="svg_87" fill="#fff" d="m10.79999,66.70001l0.1,0.1l0.2,0.2c0.5,0.5 0.6,0.6 0.8,0.6l1,-0.2l0.2,-0.2l-0.3,-0.3l-0.3,-0.2l-0.7,-0.4c-0.2,-0.1 -0.5,0.1 -1,0.4" class="st1"/>
  <path id="svg_88" fill="#fff" d="m16.89999,71.20001l0.5,0.2l0.4,0.2l0.4,0l0.3,0l0.6,-0.2l0.5,-0.2l0.2,-0.2l-0.3,-0.1l-0.4,-0.1c-0.7,-0.3 -0.8,-0.3 -1,-0.3c-0.4,0.1 -0.9,0.3 -1.2,0.7" class="st1"/>
  <path id="svg_89" fill="#fff" d="m23.59999,76.20001c0.2,-0.4 0.3,-0.5 0.9,-0.5c0.7,0 1.3,-1.2 1.3,-2l-0.1,-0.1l-0.2,0.1l-0.4,0.2l-0.8,0.3c-0.5,0.2 -1,0.9 -1,1.4l0.3,0.6z" class="st1"/>
  <path id="svg_90" fill="#232017" d="m12.19999,54.50001l0.3,0.4l0.6,0.4l0.2,-0.2l0.1,-0.4l0,-0.4c0,-0.3 -0.1,-0.4 -0.9,-0.6l-0.4,-0.1l-0.3,-0.2l-0.1,0.1l0,0.1l0.1,0.4l0.4,0.5z" class="st5"/>
  <polygon id="svg_91" fill="#232017" points="15.599990844726562,53.300018310546875 15.199996948242188,53.600006103515625 14.699996948242188,53.800018310546875 14.099990844726562,54.100006103515625 14.199996948242188,54.600006103515625 14.499992370605469,55.20001220703125 14.499992370605469,55.20001220703125 14.699996948242188,55.100006103515625 14.999992370605469,54.5 15.599990844726562,53.899993896484375 15.799995422363281,53.5 15.799995422363281,53.399993896484375 15.599990844726562,53.300018310546875 " class="st5"/>
  <path id="svg_92" fill="#232017" d="m14.29999,56.20001l0.4,-0.2l0.2,-0.1l0.4,0.4c0,0.3 -0.3,0.7 -0.6,1.2c-0.3,0.6 -0.6,1 -0.9,1c-0.4,0 -0.9,-0.6 -1.4,-1.5l-0.2,-0.7l0.4,-0.5l0.3,0.1l0.2,0.2l0.7,0.2l0.5,-0.1z" class="st5"/>
  <path id="svg_93" fill="#fff" d="m13.69999,56.80001l-0.3,0l0,0l-0.2,0.3l0.5,1.1l0.2,0.1c0.2,0 0.3,-0.3 0.4,-0.8l0.1,-0.4l0,-0.1l-0.2,-0.2l-0.1,0" class="st1"/>
  <path id="svg_94" fill="#000" d="m72.79999,63.30001c0.5,0.6 1.1,0.9 1.6,0.9l0.7,-0.1l0.4,0l0.2,0.1l-0.1,0.5l-0.2,0.4l-0.1,0.5l-0.3,0.4l-0.4,0.3l-0.1,0.1l0,0.2l0,0.1c0,0.6 -0.2,1 -0.7,1.3l-0.2,0.1l-0.1,0.2c-0.1,0.5 -0.2,0.8 -0.3,0.9l-0.5,0.7c-0.3,0.4 -0.5,0.7 -0.7,1l-0.4,0.3l-0.6,-0.7l-0.1,0.1l-0.3,0.2l-0.5,0.3l-0.4,0.3l-0.3,0.3l-0.2,0.1c-0.1,0 -0.3,-0.2 -0.4,-0.6l-0.3,-0.8l-0.1,-0.8c0,-0.4 0,-0.6 0.2,-0.9c-0.5,0.1 -0.7,0.1 -1,0.2l-0.2,0.1l-0.1,-0.1l0.1,-0.4l0.3,-0.9c0.3,-0.7 1.1,-1.3 1.8,-1.3l0.7,0.1l0.4,0.1l0.5,-0.5l-0.2,-0.3c0,0 -0.4,-0.1 -0.9,-0.3c-0.4,-0.1 -0.7,-0.3 -1.2,-0.8c-0.4,-0.4 -0.5,-0.5 -0.6,-0.5l-0.1,0.2l0,0.3l0,0.2c0,0.7 -0.2,1.3 -0.7,2.3l-0.7,1.3c-0.4,0.6 -0.5,1.1 -0.5,1.5c0,0.5 0.2,0.9 0.5,1l0.4,0.1l0.1,0.1l0.1,0.1l-0.1,0.2l-0.5,0.6c-0.5,0.6 -0.7,0.8 -1.3,0.9c-0.3,0.7 -0.8,1.2 -1.8,1.4l-0.1,0.2c-0.3,0.5 -1,1 -1.5,1l-0.1,0c-0.1,0.5 -0.4,0.9 -0.9,1.3l-0.6,0.4l-0.1,0.2l-0.4,0.4c-0.3,0 -0.5,-0.2 -0.7,-0.7l-0.2,0.1l-0.5,0.3c-0.1,0 -0.4,0.1 -0.9,0.2c-0.7,0.1 -1.2,0.4 -1.3,0.6l-0.2,0.4l-0.1,0.1l-0.3,-0.4c-0.2,-0.5 -0.2,-1.1 -0.2,-1.4c0,-0.9 0.3,-1.5 1.3,-2.4l0,-0.2c0,-1.4 1.1,-2.3 2.7,-2.3l0.3,0l0.9,0.1l0.1,0c0.5,0 0.9,-0.2 1.4,-0.6c0.6,-0.5 0.8,-0.8 0.8,-1.4c0,-0.2 -0.1,-0.4 -0.3,-1c-0.1,-0.4 -0.2,-0.8 -0.2,-1.2c0,-1 0.8,-2.3 1.9,-3l0.5,-0.6l-0.1,-0.1l-0.3,0.2l-0.6,0.4l-0.4,0.2l-0.5,0.2l-0.2,0.2l0.1,0.2l0,0.2l-0.1,0.3l-0.4,0.5c-0.4,0.6 -0.6,0.8 -1.1,1c-0.3,0.8 -0.7,1.2 -1.3,1.3c-0.5,0.9 -0.9,1.3 -1.8,1.4c-0.1,0.4 -0.3,0.7 -0.8,1.1l-0.3,0.4l-0.3,0.4l-0.6,-0.4l-0.2,-0.3l-0.2,-0.4l-0.3,-0.2l-0.2,0l-0.6,0.1l-1.1,0.6l-0.3,0.4l-0.1,0.1c-0.2,0 -0.4,-0.5 -0.4,-1.3c0,-0.7 0.1,-1.2 0.4,-1.5l0.7,-1l0.2,-0.4l-0.1,-0.3l-0.4,-0.3l-0.5,-0.1l-0.1,-0.1l0.1,-0.2l0.7,-0.6c0.6,-0.4 1.1,-0.5 1.5,-0.5c0.5,0 0.9,0.2 1.4,0.4l0.8,0.5l0.4,0.1c0.4,0 0.6,-0.2 0.9,-0.6c0.2,-0.4 0.3,-0.8 0.3,-1.2c0,-1 -0.7,-1.6 -1.7,-1.6c-0.5,0 -0.9,0.2 -1.4,0.5l-0.2,0.3l-0.2,0.5l-0.2,0.2c-0.1,0 -0.4,-0.4 -0.7,-0.8l-0.4,-0.9c-0.1,-0.5 -0.2,-0.9 -0.2,-1.3l0,-0.7c-0.4,-0.5 -0.5,-0.9 -0.5,-1.5c0,-0.2 0,-0.4 0.2,-0.9c-0.2,-0.4 -0.3,-0.6 -0.3,-1.1l0,-0.3l0.1,-0.3l0,-0.3c-0.3,-0.3 -0.3,-0.5 -0.6,-1.6c-0.1,-0.6 -0.2,-0.9 -0.3,-1l-0.1,-0.2c0,-0.1 0.4,-0.3 0.8,-0.3l0.4,0l-0.1,-0.5l0.2,-1c0.1,-0.4 0.2,-0.5 0.2,-0.6l-0.1,-0.8l-0.2,-0.5l-0.1,-0.3l0.1,-0.1c0.5,0 1.5,0.5 2.3,1.2c0.8,0.7 1,1.2 1,2.3l0,0.5c0.7,0.6 1,1.1 1,1.6c0,0.4 -0.1,0.6 -0.5,1c-0.7,0.7 -0.9,1 -0.9,1.9c0,1.3 0.4,2 1.2,2c0.7,0 1.2,-0.7 1.3,-1.7l0.1,-0.9l0.1,-0.9l0.1,-0.7c0,-0.3 -0.2,-0.8 -0.9,-1.5c-0.7,-0.8 -1,-1.3 -1,-1.9c0,-0.8 0.6,-1.3 1.3,-1.3l0.5,0.1c0,-0.4 0,-0.5 0.3,-1.1c0.2,-0.5 0.4,-0.8 0.5,-0.8l0.2,0.1l0.3,0.3l0.3,0.2l0.2,0.2c0.2,-0.5 0.4,-0.8 0.8,-1.3l0.6,-0.4l0.2,0.1l0.3,0.4l0.5,0.5c0.2,0.2 0.2,0.3 0.3,0.8l0.3,-0.1l0.4,-0.2l0.3,-0.2l0.2,-0.1l0.1,0.2l0.2,0.6l0.3,0.6l0.1,0.6l0,0.2l0.2,0c0.5,0 1,0.6 1,1.3c0,0.9 -0.7,2 -1.7,2.6l-0.1,0.7c0,2 0.6,2.4 3.8,2.8c0.8,0.1 1.5,0.3 2.2,0.4c0.1,0 0.8,0.2 2.1,0.7c0.7,0.2 1.2,0.3 1.6,0.3l0.6,-0.3c0,-0.3 -0.5,-0.6 -2.1,-1.2l-2.3,-0.8c-2.3,-0.9 -3.4,-2.2 -3.4,-4.2c0,-2.3 1.8,-4.1 4.3,-4.1c0.9,0 1.8,0.2 3.1,0.6c1.7,0.6 1.8,0.6 1.9,0.6c0.3,0 0.5,-0.2 0.6,-0.6c0,-0.4 0.1,-0.5 0.4,-0.5c0.3,0 0.7,0.3 0.9,0.8c0.2,0.4 0.3,0.9 0.3,1.3c0,0.8 -0.5,1.4 -1.3,1.5c-0.6,0.7 -1.3,1 -2.1,1c-1.1,0 -1.6,-0.2 -3.4,-1.3c-0.6,-0.4 -0.9,-0.5 -1.4,-0.5c-0.6,0 -1.1,0.4 -1.1,0.9c0,0.5 0.4,0.8 1.3,1c0.5,0.1 0.6,0.2 0.9,0.4l0.4,0c0.9,0 1.9,0.4 2.8,1.2c1.6,0.5 3.1,2.1 3.1,3.5c0,1.5 -1.4,2.9 -3,2.9c-1,0.3 -1.8,0.2 -2.6,0" class="st0"/>
  <path id="svg_95" fill="#fff" d="m71.89999,70.30001l0.1,-0.3l0.1,-0.3l0.3,-0.4c0.3,-0.3 0.4,-0.8 0.4,-1.2l-0.1,-0.5l-0.1,-0.2l0.1,-0.1l0.1,-0.1l0,0l0.3,0.2l0.3,0.2l0.3,-0.5l0.1,-0.2l-0.2,-0.7l-0.1,-0.3l0.1,-0.2l0.4,0.2l0.2,0.1c0.2,0 0.3,-0.2 0.4,-0.6l0.1,-0.4l-0.1,-0.1l-0.1,0l-0.3,0c-0.5,0 -1.2,-0.3 -1.5,-0.7l-0.7,-0.9l-0.7,-0.8l-0.6,-0.4l-0.1,-0.2l0.2,-0.1c0.1,0 0.6,0.1 1.4,0.5c0.8,0.3 2,0.6 2.7,0.6c1.2,0 2.3,-1 2.3,-2.1c0,-0.6 -0.3,-1.2 -1.1,-2.1l-0.5,-0.3l-0.1,0.2l0.1,0.3l0.1,0.2l-0.1,0.2c-0.1,0 -0.3,-0.3 -0.5,-0.7c-0.2,-0.6 -0.5,-0.9 -1.3,-1.3l-0.8,-0.3l-0.1,0.1l0.1,0.3l0.2,0.5l0,0l-0.2,0.2c-0.2,0 -0.2,0 -0.6,-0.6c-0.2,-0.3 -0.7,-0.7 -1.2,-0.9l-0.4,-0.1l0,0l-0.2,0.1l0.1,0.2l0.1,0.1l-0.1,0.1c-0.1,0 -0.6,-0.4 -1,-0.8c-0.4,-0.5 -0.7,-1 -0.7,-1.5c0,-0.9 1,-1.8 2,-1.8l0.7,0.1l0.9,0.4l1.1,0.7c0.6,0.4 1.5,0.7 2,0.7c0.2,0 0.3,0 0.8,-0.1l0.4,-0.3l0,0l-0.1,-0.1l-0.6,0c-0.3,0 -1.1,-0.3 -1.6,-0.7l-1.2,-0.7l-1.1,-0.4l-0.1,-0.1l0.1,-0.1l0.3,0l1,0.3c0.3,0.1 0.7,0.2 1.2,0.5c1.1,0.6 1.8,0.8 2.3,0.8c0.6,0 1.1,-0.4 1.1,-0.9l-0.1,-0.7l-0.2,-0.3l-0.1,-0.1l-0.1,0.2l0,0.2l0,0.1c0,0.5 -0.2,0.6 -0.7,0.6c-0.4,0 -1,-0.2 -2.4,-0.7c-1.3,-0.5 -2.1,-0.7 -2.8,-0.7c-2,0 -3.7,1.5 -3.7,3.3c0,1.5 1.1,2.7 3.2,3.5l2.2,0.9c1.9,0.7 2.6,1.2 2.6,1.9c0,0.6 -0.5,0.9 -1.4,0.9c-0.4,0 -0.9,-0.1 -1.7,-0.4c-2.1,-0.6 -3.5,-0.9 -4.7,-0.9c-2,0 -3.4,0.5 -4.5,1.6l-0.4,0.2l-0.4,-0.1l-0.6,-0.2l-0.6,0.3l-0.3,0.3l-0.2,0.1l-0.7,-0.7l-0.3,-0.6l0,-0.7l0,-0.5l0.1,-0.5l0.1,-0.4l0.1,-0.1l0.2,0.4l0,0.2l0,0.1c0,0.7 0.3,1.4 0.6,1.4c0.3,0 0.5,-0.4 0.7,-1.3l0.2,-0.3c0.1,0 0.2,0.1 0.2,0.5l0.4,0.8l0.3,0.2c0.2,0 0.4,-0.3 0.5,-1l0.3,-0.5l0.1,0.1l0.2,0.3l0.3,0.3l0.3,0.1l0.3,-0.1l0.2,-0.2l-0.2,-0.2c-0.2,-0.2 -0.3,-0.4 -0.5,-0.8l-0.2,-0.6l-0.1,-0.2l-0.1,0l-0.1,0l-0.6,0.2l-0.2,0l-0.1,-0.1l0.2,-0.3c0.7,-0.5 1.1,-1.3 1.2,-2.6c0.1,-0.7 0.2,-1 0.5,-1.5l0.2,-0.2l0.1,0.2l-0.1,0.4l-0.1,0.3l0,0.1l0.1,0.1l0.3,-0.1l0.3,-0.3l0.4,-1l-0.2,-0.6l-0.4,-0.3l-0.2,0l-0.2,0l-0.3,-0.2l0,-0.2l0,-0.3l-0.2,-0.6l-0.1,-0.3l-0.1,-0.2l-0.2,0.1l-0.4,0.2l-0.3,0.3c-0.4,0.4 -0.4,0.4 -0.6,0.4l-0.2,-0.1l0,-0.1l0.1,-0.5c0,-0.4 -0.3,-1.1 -0.7,-1.5c-0.5,0.5 -0.8,1.1 -0.8,1.6l0,0.3l-0.1,0.2l0,0l-0.2,-0.1l-0.3,-0.4l-0.4,-0.3l-0.2,-0.2l-0.1,0.2c-0.3,0.5 -0.3,0.8 -0.4,1.2l-0.1,0.4l-0.2,-0.1c-0.4,-0.2 -0.4,-0.2 -0.6,-0.2c-0.5,0 -0.8,0.3 -0.8,0.8l0.3,0.8c0.2,0.4 0.6,0.8 0.7,0.8l0,-0.1l0,-0.1l0,-0.4l-0.1,-0.3l0,0l0.1,-0.1c0.2,0 0.5,0.7 0.6,2c0.2,1.2 0.5,2 1,2.4l0.2,0.3l-0.1,0.1l-0.4,-0.1l-0.3,-0.1l-0.6,0.6l-0.2,1.4l-0.2,2c0,0.4 0,0.9 0.1,1.5c0.1,0.5 0.2,0.9 0.2,1.2c0,1.5 -1,2.7 -2.6,3.1l-1.7,0.5c-1.1,0.3 -1.6,1 -1.7,2.2c0.3,-0.2 0.3,-0.2 0.8,-0.3l0.5,-0.1l0.5,-0.1l0.3,-0.3l0.4,-0.5l0.4,-0.3l0.1,0.1l-0.2,0.4l-0.2,0.6c0,0.3 0.1,0.5 0.4,1l0.1,-0.3l0.4,-0.5c0.4,-0.4 0.6,-0.9 0.6,-1.1c0,-0.4 0,-0.5 0.1,-0.5l0.1,0.2l0.1,0.1l0.2,0.1l0.2,-0.1l0.4,-0.4l0.3,-0.4l0.1,-0.5l0,-0.1l0.1,-0.2l0.3,0.3l0.2,0.1l0,0l0.2,-0.1l0.5,-0.9l0,-0.5l-0.1,-0.4l0,0l0.1,-0.1l0.5,0.5l0.2,0.2l0.5,-0.4l0.2,-0.3l0.1,-0.2l-0.1,-0.2l-0.2,-0.3l0,-0.2c0,-0.4 0.1,-0.7 0.4,-1.2l0.3,-0.6l0.1,-0.2l0.1,0.1l0,0.3l0,0.2l0,0.2l0.2,0.1l0.3,-0.1l0.7,-0.2l0.6,-0.3c1,-0.6 1.3,-0.7 1.8,-0.7c0.3,0 0.7,0.1 1.3,0.4l0.3,0.1l0.2,-0.1l0.1,-0.2l-0.1,-0.3l-0.2,-0.4l0.1,-0.1l0.2,0.1c0.1,0.1 0.3,0.4 0.6,1c0.5,0.8 1.1,1.4 1.7,1.5l1.1,0.3c0.4,0.1 0.5,0.2 0.5,0.6c0,0.8 -0.4,1.5 -1.1,1.9l-0.9,0.6c-0.4,0.2 -0.6,0.8 -0.6,1.3c0,0.3 0.1,0.9 0.2,1.3l0.2,-0.2l0.5,-0.2l0.4,-0.4l0.2,-0.5l0.2,-0.5l0.3,-0.4l0.1,0.4l0,0.1l0,0.1c0.1,0.2 0.2,0.3 0.5,0.9" class="st1"/>
  <path id="svg_96" fill="#fff" d="m56.19999,77.40001c0,-1.2 0.5,-1.7 2.3,-2.6c3.6,-1.7 5.5,-3.3 5.5,-4.5c0,-0.2 -0.1,-0.6 -0.3,-1.3c-0.1,-0.5 -0.2,-0.8 -0.2,-1.1c0,-0.5 0.5,-1.4 1.1,-1.9l0.5,-0.4l0.5,-0.8l0,-0.1l0,-0.1l0.4,-0.3l0.2,0l0.2,0l0.2,0.1l0.1,0.2l0.2,0.2l0.2,0.1l0.2,-0.1l0.3,-0.1l0.2,0.2c0,0.5 -0.3,1.2 -0.9,2c-1,1.3 -1.3,2 -1.3,2.8c0,0.6 0.2,1.2 0.6,1.7l0.1,0.2l-0.2,0.3l-0.2,0.2l-0.5,0.4l-0.3,-0.2l-0.1,-0.3l-0.2,-0.1l-0.1,0.1l-0.1,0.3l0,0.4l-0.2,0.5l-0.4,0.4l-0.2,0.1l-0.2,-0.2l-0.2,-0.5l-0.1,-0.1l-0.2,0.3c-0.1,0.6 -0.2,0.9 -0.3,1.1l-0.4,0.3l-0.3,0.2l-0.2,-0.1l-0.2,-0.4l-0.1,-0.1c-0.1,0 -0.2,0.2 -0.2,0.6c-0.1,0.9 -0.3,1.3 -0.8,1.7c-0.4,0.3 -0.5,0.4 -0.7,0.7c-0.2,-0.3 -0.3,-0.6 -0.3,-1l0.1,-0.5l0.2,-0.4l-0.1,-0.1l-0.1,0.1l-0.3,0.2c-0.5,0.3 -0.6,0.4 -0.7,0.9c-0.2,0.7 -0.5,1 -1.2,1.1c-0.9,0.2 -1,0.2 -1.3,0.5l0,-0.6z" class="st1"/>
  <path id="svg_97" fill="#fff" d="m54.49999,51.60001l0,0.3l0,0.4l-0.1,0.4l-0.1,0.6c0,0.5 0.1,0.7 0.4,1.2l0.3,0.8l-0.1,0.2l-0.1,-0.1l-0.2,-0.3c-0.2,-0.2 -0.3,-0.3 -0.8,-0.3l-0.5,0c0.2,0.4 0.2,0.6 0.3,0.9c0.2,0.8 0.2,0.9 0.7,1.3c0.5,0.4 0.5,0.5 0.5,0.6l-0.2,0.2l-0.2,0l-0.1,0l-0.3,0.5l0.2,0.6l0.2,0.3l0.3,0.2l0.1,0.3l-0.2,0.2l-0.2,-0.1l-0.2,-0.1l-0.2,0.2l0.1,0.4l0.1,0.6l0.3,0.5l0.4,0.3l0.5,0.2l0.1,0.2l-0.2,0.2l-0.3,0l-0.3,0l-0.3,0.2l0,0.4l0.1,0.4c0.1,0.4 0.2,0.7 0.4,0.7l0.2,-0.1c0.4,-0.3 1.1,-0.5 1.6,-0.5c0.5,0 1.1,0.1 1.3,0.1l0.2,0.1l0.1,-0.3l0.1,-0.5l0.1,-0.8l0.1,-0.6l0,-0.3l-0.2,0.2c-0.4,0.4 -0.7,0.5 -1.2,0.5c-1.2,0 -1.9,-1.3 -1.9,-3.5c0,-0.9 0.1,-2.2 0.4,-3.8l0.1,-0.7c0.2,-0.8 -0.4,-1.6 -1.3,-2.2" class="st1"/>
  <polygon id="svg_98" fill="#fff" points="56.399993896484375,55.800018310546875 56.399993896484375,56.20001220703125 56.29999542236328,56.600006103515625 56.29999542236328,57 56.29999542236328,57.20001220703125 56.49999237060547,57 56.69999694824219,56.800018310546875 57.09999084472656,56 56.99999237060547,55.70001220703125 56.59999084472656,55.300018310546875 " class="st1"/>
  <path id="svg_99" fill="#fff" d="m53.89999,67.40001l0.6,0.4c0.3,0.4 0.6,0.5 1,0.5l0.4,0l0.3,-0.1l0.3,-0.1l0.2,-0.1l-0.5,-0.4l-0.6,-0.3l-0.6,-0.2l-1.1,0.3z" class="st1"/>
  <path id="svg_100" fill="#fff" d="m57.49999,74.50001c0,-0.8 0.8,-1.5 1.9,-1.5c0.5,0 0.8,0.1 0.8,0.3c0,0.1 -0.2,0.3 -0.7,0.6c0,0 -0.3,0.2 -0.8,0.4c-0.5,0.3 -0.7,0.4 -1.2,0.6l0,-0.4z" class="st1"/>
  <path id="svg_101" fill="#fff" d="m68.29999,68.40001l0.7,-0.2l0.5,0l0.3,-0.2l0.4,-0.2c0.5,-0.3 0.6,-0.4 0.6,-0.5c0,-0.1 -0.2,-0.2 -0.7,-0.2c-0.9,0 -1.4,0.4 -1.8,1.3" class="st1"/>
  <path id="svg_102" fill="#232017" d="m60.29999,53.20001l0.4,0.2l0.5,0.3c0.4,0.2 0.6,0.2 0.6,0.4l0,0.3l-0.1,0.4l-0.4,0.4c-0.2,0 -0.4,-0.3 -0.7,-0.7l-0.4,-1l0,-0.1l0.1,-0.2" class="st5"/>
  <polygon id="svg_103" fill="#232017" points="63.79999542236328,53.399993896484375 63.19999694824219,53.70001220703125 62.69999694824219,53.899993896484375 62.49999237060547,54.100006103515625 62.49999237060547,54.20001220703125 62.49999237060547,54.600006103515625 62.49999237060547,55 62.79999542236328,55.300018310546875 62.79999542236328,55.300018310546875 62.99999237060547,55.20001220703125 63.29999542236328,54.600006103515625 63.899993896484375,54.100006103515625 64.09999084472656,53.600006103515625 64.19999694824219,53.5 63.99999237060547,53.300018310546875 " class="st5"/>
  <path id="svg_104" fill="#232017" d="m61.19999,55.80001l0.4,0.3l0.4,0.1l0.6,-0.2l0.3,-0.1l0.2,0l0.4,0.5c0,0.4 -0.3,0.7 -0.7,1.3l-0.3,0.6l-0.6,0.4c-0.3,0 -0.5,-0.2 -0.9,-1c-0.3,-0.6 -0.5,-1 -0.5,-1.3l0.3,-0.5l0.4,-0.1z" class="st5"/>
  <path id="svg_105" fill="#fff" d="m61.49999,57.10001l0,0.5l0.4,0.4c0.2,0 0.4,-0.4 0.5,-0.9l0.1,-0.4l-0.3,-0.2l-0.1,0l-0.2,0l-0.1,0l-0.2,0.4" class="st1"/>
  <path id="svg_106" fill="#000" d="m31.69999,45.80001l2.6,0l0,5l3,0l0,-5l7.7,0l0,5l3.1,0l0,-5l2.6,0l0,-12.9l-3,0l-0.1,-0.1c-0.4,-0.5 -0.8,-0.8 -1.4,-0.8c-0.6,0 -1.1,0.3 -1.4,0.9l-2.1,0c-0.2,-0.5 -0.8,-0.9 -1.4,-0.9c-0.7,0 -1.2,0.3 -1.5,0.9l-2.3,0c-0.4,-0.7 -0.8,-0.9 -1.5,-0.9c-0.7,0 -1.1,0.3 -1.4,0.9l-2.8,0l0,12.9l-0.1,0z" class="st0"/>
  <rect id="svg_107" fill="#000" height="10.9" width="16.8" class="st4" y="34.00001" x="32.79999"/>
  <path id="svg_108" fill="#fff" d="m34.59999,36.50001c-0.4,0 -0.8,0.4 -0.8,0.8c0,0.4 0.4,0.7 0.8,0.7c0.4,0 0.8,-0.3 0.8,-0.7c0,-0.5 -0.4,-0.8 -0.8,-0.8" class="st1"/>
  <path id="svg_109" fill="#000" d="m34.59999,38.10001c-0.5,0 -0.9,-0.4 -0.9,-0.9c0,-0.5 0.4,-0.9 0.9,-0.9c0.5,0 0.9,0.4 0.9,0.9c0,0.5 -0.4,0.9 -0.9,0.9m0,-1.5l-0.7,0.6l0.7,0.7l0.7,-0.7l-0.7,-0.6z" class="st0"/>
  <path id="svg_110" fill="#fff" d="m47.79999,36.50001c-0.4,0 -0.8,0.4 -0.8,0.8c0,0.4 0.4,0.7 0.8,0.7c0.4,0 0.8,-0.3 0.8,-0.7c0,-0.5 -0.4,-0.8 -0.8,-0.8" class="st1"/>
  <path id="svg_111" fill="#000" d="m47.79999,38.10001c-0.5,0 -0.9,-0.4 -0.9,-0.9c0,-0.5 0.4,-0.9 0.9,-0.9c0.5,0 0.9,0.4 0.9,0.9c0,0.5 -0.4,0.9 -0.9,0.9m0,-1.5l-0.7,0.6l0.7,0.7l0.7,-0.7l-0.7,-0.6z" class="st0"/>
  <path id="svg_112" fill="#fff" d="m34.59999,42.40001c-0.4,0 -0.8,0.3 -0.8,0.8c0,0.4 0.4,0.8 0.8,0.8c0.4,0 0.8,-0.3 0.8,-0.8c0,-0.5 -0.4,-0.8 -0.8,-0.8" class="st1"/>
  <path id="svg_113" fill="#000" d="m34.59999,44.00001c-0.5,0 -0.9,-0.4 -0.9,-0.9c0,-0.5 0.4,-0.9 0.9,-0.9c0.5,0 0.9,0.4 0.9,0.9c0,0.5 -0.4,0.9 -0.9,0.9m0,-1.5l-0.7,0.7c0,0.4 0.3,0.7 0.7,0.7l0.7,-0.7l-0.7,-0.7z" class="st0"/>
  <path id="svg_114" fill="#fff" d="m47.79999,42.40001c-0.4,0 -0.8,0.3 -0.8,0.8c0,0.4 0.4,0.8 0.8,0.8c0.4,0 0.8,-0.3 0.8,-0.8c0,-0.5 -0.4,-0.8 -0.8,-0.8" class="st1"/>
  <path id="svg_115" fill="#000" d="m47.79999,44.00001c-0.5,0 -0.9,-0.4 -0.9,-0.9c0,-0.5 0.4,-0.9 0.9,-0.9c0.5,0 0.9,0.4 0.9,0.9c0,0.5 -0.4,0.9 -0.9,0.9m0,-1.5l-0.7,0.7l0.7,0.7l0.7,-0.7l-0.7,-0.7z" class="st0"/>
  <path id="svg_116" fill="#fff" d="m37.09999,40.10001c1.1,1.3 2.5,1.9 4.1,1.9c1.6,0 2.6,-0.5 3.9,-1.9c-1.3,-1.2 -2.4,-1.7 -4,-1.7c-1.6,0 -3,0.6 -4,1.7" class="st1"/>
  <path id="svg_117" fill="#000" d="m37.89999,40.10001c1.1,-0.8 2.1,-1.2 3.2,-1.2c1.2,0 2.1,0.3 3.2,1.2c-1,0.9 -1.9,1.3 -3.2,1.3c-1.2,0 -2.3,-0.4 -3.2,-1.3" class="st0"/>
  <path id="svg_118" fill="#fff" d="m39.29999,39.90001c0.7,0.4 1.2,0.5 1.8,0.5c0.7,0 1.4,-0.2 1.9,-0.5c-0.6,-0.3 -1.3,-0.4 -1.9,-0.4c-0.7,-0.1 -1.3,0.1 -1.8,0.4" class="st1"/>
  <rect id="svg_119" fill="#000" height="0.5" width="17.3" class="st0" y="34.50001" x="32.59999"/>
  <path id="svg_120" fill="#1D201D" d="m32.59999,34.60001l17.3,0l0,0.5l-17.2,0l0,-0.5l-0.1,0zm0,0.5l17.3,0l0,-0.6l-17.4,0l0,0.6l0.1,0z" class="st6"/>
  <path id="svg_121" fill="#fff" d="m35.29999,33.80001l0,1.3l0,0.3c0,0.4 0.3,0.7 0.7,0.7c0.5,0 0.7,-0.2 0.7,-0.7l0,-0.3l0,-1.3c0,-0.6 -0.3,-1 -0.7,-1l-0.3,0.1l-0.2,0.1l-0.2,0.2l-0.1,0.3" class="st1"/>
  <path id="svg_122" fill="#fff" d="m40.49999,35.10001l0,0.3c0,0.4 0.3,0.6 0.7,0.6c0.5,0 0.7,-0.2 0.7,-0.6l0,-0.3l0,-1.3c0,-0.6 -0.3,-1 -0.7,-1c-0.5,0 -0.8,0.4 -0.8,0.9" class="st1"/>
  <path id="svg_123" fill="#fff" d="m45.49999,33.80001l0,1.3l0,0.3c0,0.4 0.3,0.7 0.7,0.7c0.5,0 0.7,-0.2 0.7,-0.7l0,-0.3l0,-1.3c0,-0.6 -0.3,-1 -0.7,-1l-0.3,0.1l-0.2,0.1l-0.2,0.2l-0.1,0.3" class="st1"/>
  <rect id="svg_124" fill="#fff" height="1.9" width="1.6" class="st1" y="47.00001" x="34.89999"/>
  <rect id="svg_125" fill="#fff" height="0.6" width="1.6" class="st1" y="49.40001" x="34.89999"/>
  <rect id="svg_126" fill="#fff" height="1.9" width="1.6" class="st1" y="47.00001" x="45.59999"/>
  <rect id="svg_127" fill="#fff" height="0.6" width="1.6" class="st1" y="49.40001" x="45.59999"/>
 </g>
</svg>