<?xml version="1.0" standalone="no"?>
<!DOCTYPE svg PUBLIC "-//W3C//DTD SVG 20010904//EN"
 "http://www.w3.org/TR/2001/REC-SVG-20010904/DTD/svg10.dtd">
<svg version="1.0" xmlns="http://www.w3.org/2000/svg"
 width="2500.000000pt" height="2500.000000pt" viewBox="0 0 2500.000000 2500.000000"
 preserveAspectRatio="xMidYMid meet">

<g transform="translate(0.000000,2500.000000) scale(0.100000,-0.100000)"
fill="#ffffff" stroke="none">
<path d="M12212 24844 c3 -16 67 -44 101 -44 29 0 74 -55 93 -113 19 -57 19
-48 -26 -947 -11 -206 -22 -431 -25 -500 -12 -246 -52 -314 -190 -324 -65 -4
-87 -18 -65 -40 11 -10 115 -19 430 -35 511 -26 480 -26 480 -1 0 16 -7 20
-32 20 -63 0 -113 28 -149 83 l-34 52 2 145 c2 192 31 601 44 616 15 18 125 5
187 -22 60 -27 129 -95 177 -174 44 -72 160 -317 220 -460 59 -143 100 -231
131 -281 l22 -36 209 -12 c381 -21 408 -22 422 -13 18 12 7 42 -15 42 -59 0
-149 93 -220 229 -22 40 -64 121 -94 180 -31 58 -61 115 -66 126 -6 11 -15 29
-21 40 -5 11 -15 30 -21 43 -7 12 -17 32 -24 45 -6 12 -15 29 -19 37 -4 8 -10
22 -13 30 -12 31 -100 147 -157 207 -32 35 -59 69 -59 78 0 8 12 17 28 20 15
3 44 15 64 25 20 11 44 20 53 20 19 0 195 175 195 194 0 7 10 35 22 62 18 41
22 67 22 154 -1 108 -8 134 -75 250 -67 118 -257 233 -426 260 -57 9 -1010 60
-1126 60 -39 0 -48 -3 -45 -16z m933 -152 c174 -48 275 -183 275 -369 0 -291
-158 -442 -461 -443 -77 0 -110 4 -118 13 -6 8 -9 38 -6 78 3 35 15 214 26
398 11 184 23 339 26 344 8 14 185 -1 258 -21z"/>
<path d="M11045 24769 c-43 -8 -146 -24 -265 -40 -41 -6 -106 -17 -145 -25
-38 -8 -106 -19 -150 -24 -44 -6 -116 -17 -160 -25 -44 -8 -111 -19 -150 -25
-38 -6 -92 -15 -120 -20 -27 -5 -102 -16 -165 -25 -151 -22 -175 -28 -175 -45
0 -12 19 -16 90 -18 97 -3 109 -9 137 -64 41 -81 58 -130 58 -170 0 -24 7 -68
15 -98 8 -30 17 -82 21 -115 3 -33 14 -107 24 -165 11 -58 24 -136 30 -175 6
-38 19 -124 30 -190 10 -66 24 -154 30 -195 10 -71 29 -191 64 -396 21 -119
20 -173 -3 -226 -21 -49 -57 -79 -117 -96 -39 -11 -63 -35 -46 -46 5 -3 64 4
132 15 316 50 369 59 435 69 39 6 124 20 190 31 66 11 149 24 185 30 153 25
179 29 265 44 50 8 124 20 165 25 41 6 78 14 83 19 4 4 1 79 -8 167 -8 87 -15
184 -15 214 0 30 -5 62 -10 70 -16 24 -47 -20 -60 -88 -17 -80 -55 -172 -91
-215 -50 -61 -125 -90 -314 -122 -98 -17 -168 -18 -218 -4 -71 19 -124 131
-146 309 -8 64 -25 158 -60 337 -26 131 -23 135 104 151 55 7 163 15 240 18
l140 6 44 -33 c27 -21 54 -54 70 -86 17 -34 32 -53 44 -53 22 0 22 16 -2 143
-11 56 -29 170 -41 252 -26 180 -26 177 -47 173 -13 -2 -20 -16 -24 -53 -8
-70 -24 -104 -72 -153 -48 -49 -119 -76 -232 -87 -39 -4 -103 -14 -144 -22
-41 -8 -84 -12 -97 -9 -27 7 -37 39 -53 161 -16 127 -30 222 -51 345 -28 167
-43 262 -44 289 -1 24 4 25 134 47 153 26 353 40 423 30 31 -5 59 -17 81 -36
33 -30 84 -117 105 -182 13 -39 37 -50 48 -22 6 17 -12 141 -33 224 -8 30 -14
72 -14 93 0 39 -14 76 -34 89 -13 9 -27 8 -81 -3z"/>
<path d="M15640 24361 c-58 -8 -114 -29 -202 -77 -69 -38 -225 -229 -241 -294
-3 -14 -13 -45 -22 -70 -31 -83 -8 -245 53 -365 53 -105 196 -287 434 -552
115 -129 143 -246 86 -364 -32 -64 -79 -105 -161 -138 -153 -62 -373 19 -495
183 -77 103 -113 209 -116 338 -1 37 -7 73 -13 79 -19 19 -40 3 -47 -36 -4
-20 -13 -51 -20 -69 -12 -26 -52 -153 -88 -276 -6 -19 -20 -58 -30 -87 -11
-29 -17 -57 -13 -62 9 -15 38 -14 61 4 10 8 40 15 66 15 47 0 58 -5 173 -71
28 -16 75 -40 105 -55 30 -14 73 -35 95 -45 50 -24 165 -41 312 -46 98 -4 121
-1 196 22 117 35 228 109 280 185 68 101 114 271 103 380 -10 96 -71 240 -128
302 -16 17 -28 39 -28 49 0 10 -4 19 -8 19 -5 0 -39 37 -75 83 -37 45 -123
147 -192 227 -155 178 -205 268 -205 364 0 69 21 124 71 185 39 49 66 59 183
67 81 6 100 4 156 -16 35 -12 70 -28 79 -34 37 -28 127 -124 137 -146 6 -14
19 -43 29 -65 19 -42 32 -102 41 -197 6 -59 23 -84 48 -75 7 3 16 18 19 34 3
15 13 51 21 78 9 28 25 79 36 115 10 36 28 94 40 130 11 36 21 83 23 105 2 44
12 41 -90 28 -54 -7 -131 18 -205 67 -85 56 -164 79 -293 84 -60 3 -139 1
-175 -3z"/>
<path d="M8690 24293 c-45 -22 -79 -36 -165 -69 -38 -14 -83 -32 -100 -40 -16
-7 -61 -24 -100 -39 -93 -34 -160 -71 -160 -87 0 -10 19 -12 83 -9 80 3 85 2
113 -25 16 -16 41 -47 54 -70 23 -39 26 -58 35 -236 20 -362 38 -842 33 -855
-8 -20 -21 -16 -50 19 -50 58 -407 433 -420 441 -7 4 -13 11 -13 15 0 4 -61
70 -136 147 -134 140 -190 209 -200 252 -8 32 3 70 26 91 55 47 70 66 61 75
-7 7 -23 4 -48 -8 -52 -24 -109 -49 -168 -73 -78 -31 -177 -72 -212 -88 -17
-8 -35 -14 -40 -14 -4 0 -26 -9 -48 -19 -22 -11 -65 -29 -95 -41 -30 -12 -73
-30 -96 -41 -22 -10 -50 -19 -61 -19 -11 0 -26 -6 -32 -14 -20 -24 9 -34 104
-39 159 -7 131 16 604 -485 178 -188 328 -342 332 -342 5 0 9 -5 9 -10 0 -6
13 -23 29 -38 16 -15 131 -135 256 -267 258 -272 320 -335 332 -335 5 0 17 6
26 13 16 11 17 29 7 242 -5 127 -19 455 -30 730 -11 275 -24 588 -29 695 -14
288 8 396 97 470 60 50 73 63 69 74 -6 17 -29 16 -67 -1z"/>
<path d="M17350 23825 c0 -16 36 -58 60 -70 16 -8 38 -35 50 -60 42 -87 21
-170 -109 -435 -5 -8 -12 -24 -18 -35 -25 -51 -133 -286 -133 -290 0 -3 -18
-44 -41 -92 -59 -126 -109 -234 -159 -343 -24 -52 -61 -131 -82 -176 -21 -44
-38 -85 -38 -90 0 -5 -9 -20 -20 -34 -11 -14 -20 -31 -20 -39 0 -20 -68 -100
-104 -122 -37 -23 -101 -24 -150 -4 -27 12 -42 13 -56 5 -40 -22 -39 -23 195
-130 39 -17 108 -50 155 -73 47 -22 92 -43 100 -47 8 -4 24 -12 35 -17 19 -10
120 -58 246 -117 31 -14 63 -26 72 -26 24 0 21 37 -3 45 -88 28 -149 169 -105
245 8 14 14 32 15 41 0 9 28 75 61 145 51 108 113 238 151 317 4 9 12 25 17
35 12 22 78 162 171 362 134 288 123 266 150 320 6 11 15 29 20 40 12 25 21
42 51 105 58 123 102 155 213 155 66 0 77 2 74 16 -2 10 -21 22 -43 29 -22 7
-89 36 -150 64 -60 29 -130 61 -155 73 -25 12 -54 26 -65 31 -11 6 -28 14 -37
19 -10 4 -27 13 -38 18 -101 50 -296 140 -305 140 -3 0 -5 -2 -5 -5z"/>
<path d="M5987 23032 c-54 -37 -119 -80 -145 -96 -69 -43 -268 -172 -335 -217
-32 -22 -60 -39 -62 -39 -2 0 -25 -14 -50 -31 -52 -35 -54 -55 -4 -51 19 1 70
4 114 5 75 2 83 0 118 -27 21 -16 53 -52 71 -80 18 -28 55 -85 81 -126 105
-163 225 -347 245 -375 12 -16 41 -61 65 -100 24 -38 58 -90 75 -115 17 -25
44 -65 59 -90 16 -25 77 -119 136 -209 139 -212 162 -256 171 -318 9 -73 -8
-113 -72 -172 -50 -46 -61 -71 -32 -71 9 0 128 75 223 140 17 12 59 40 95 62
36 23 90 57 120 77 30 20 62 41 72 46 147 89 268 173 266 185 -5 23 -42 23
-87 1 -76 -39 -155 -22 -217 47 -26 29 -120 168 -252 372 -45 69 -91 139 -102
155 -24 33 -74 111 -105 162 -11 18 -32 50 -46 70 -50 73 -109 164 -109 167 0
2 -23 37 -50 77 -111 162 -177 271 -200 329 -29 74 -26 127 9 176 17 22 41 46
55 54 31 16 37 60 9 59 -10 0 -62 -30 -116 -67z"/>
<path d="M19035 22988 c-11 -5 -27 -20 -35 -33 -8 -13 -65 -87 -126 -163 -76
-95 -109 -144 -104 -153 10 -16 33 -5 100 45 25 19 57 37 72 41 15 4 30 11 33
16 4 5 41 9 83 9 81 0 88 -3 175 -67 21 -15 85 -62 142 -103 118 -85 122 -94
75 -162 -35 -51 -230 -319 -294 -403 -52 -69 -146 -197 -226 -309 -30 -42 -81
-111 -112 -154 -32 -42 -76 -102 -98 -132 -148 -202 -218 -285 -260 -311 -51
-32 -109 -38 -150 -14 -28 16 -90 45 -96 45 -2 0 -4 -10 -4 -23 0 -17 13 -32
48 -55 26 -17 108 -76 182 -131 74 -55 168 -124 207 -153 69 -50 204 -151 266
-199 30 -23 57 -20 57 7 0 9 -18 33 -39 53 -41 38 -81 110 -81 147 0 35 47
124 103 196 28 37 77 101 107 142 30 42 73 100 95 130 22 30 69 95 105 145 36
50 90 125 120 166 61 83 107 146 204 280 218 302 267 365 280 365 12 0 80 -46
261 -178 140 -102 170 -181 125 -322 -12 -39 -27 -73 -31 -76 -13 -7 -11 -54
1 -54 19 0 55 43 144 175 48 72 97 142 108 157 27 35 18 47 -73 93 -64 32
-118 67 -212 138 -24 17 -78 57 -120 87 -43 30 -111 80 -152 110 -82 61 -145
106 -280 204 -151 109 -233 169 -283 207 -26 19 -69 50 -97 69 -27 18 -84 66
-125 106 -63 60 -78 70 -95 62z"/>
<path d="M4307 21832 c-125 -125 -227 -235 -227 -245 0 -18 25 -24 34 -8 3 4
31 21 63 37 49 25 68 29 137 29 74 -1 85 -3 126 -32 66 -46 705 -690 705 -711
0 -15 -10 -17 -75 -14 -382 13 -1171 33 -1398 35 l-284 2 -244 -250 c-134
-137 -244 -253 -244 -257 0 -12 26 -9 62 6 76 33 149 45 312 52 l168 7 490
-489 c347 -347 496 -503 514 -536 43 -84 28 -199 -38 -288 -19 -27 -20 -32 -7
-45 13 -13 42 12 249 220 129 130 235 241 235 248 0 22 -36 19 -83 -9 -41 -25
-58 -28 -127 -29 -77 0 -83 2 -140 39 -68 44 -875 842 -875 865 0 16 -59 16
1305 -15 413 -10 767 -14 788 -10 20 4 37 12 37 19 0 6 -283 295 -629 642
-569 571 -630 635 -645 679 -28 86 -15 186 31 238 15 17 12 48 -4 48 -5 0
-111 -102 -236 -228z"/>
<path d="M12622 21393 c-18 -17 -62 -132 -62 -163 0 -8 -12 -45 -26 -81 -24
-62 -30 -69 -70 -84 -31 -12 -93 -19 -206 -23 -159 -7 -163 -8 -166 -30 -5
-31 24 -64 116 -132 93 -69 159 -138 168 -176 9 -35 -11 -135 -36 -185 -36
-70 -38 -189 -4 -189 18 0 69 26 99 51 44 36 130 92 161 105 68 29 116 14 207
-62 16 -13 34 -24 41 -24 8 0 24 -8 37 -19 13 -10 41 -24 62 -32 33 -12 39
-11 47 1 15 23 12 84 -6 135 -16 48 -44 195 -44 230 0 13 47 62 129 137 124
113 159 161 131 178 -6 4 -78 10 -160 13 -182 8 -214 20 -254 96 -14 28 -26
57 -26 65 0 30 -53 156 -76 181 -27 30 -35 31 -62 8z"/>
<path d="M13866 21199 c-14 -11 -26 -31 -26 -43 0 -13 -7 -45 -15 -72 -9 -27
-20 -85 -25 -129 -11 -90 -33 -192 -61 -280 -11 -33 -19 -67 -19 -75 -1 -8 -9
-33 -20 -55 -11 -22 -19 -47 -20 -55 0 -8 -9 -30 -20 -48 -11 -18 -20 -37 -20
-43 0 -6 -7 -20 -15 -32 -8 -12 -45 -67 -82 -122 -94 -141 -188 -254 -410
-487 -240 -253 -426 -527 -552 -810 -12 -27 -30 -68 -41 -92 -11 -24 -20 -49
-20 -57 -1 -8 -9 -32 -20 -54 -11 -22 -19 -48 -20 -57 0 -10 -8 -44 -19 -75
-54 -166 -76 -345 -68 -568 3 -115 11 -186 26 -250 27 -112 70 -244 87 -270 8
-11 14 -28 14 -38 0 -10 8 -37 19 -60 10 -23 22 -63 25 -89 6 -41 5 -47 -14
-53 -17 -5 -37 8 -98 66 -108 102 -252 270 -252 294 0 4 -18 28 -40 54 -22 26
-40 52 -40 59 0 6 -10 27 -23 45 -50 74 -102 235 -128 392 -13 81 -10 263 6
365 29 184 42 241 85 365 33 95 60 190 60 211 0 11 7 43 15 70 17 61 45 292
45 383 0 37 -7 118 -15 181 -40 318 -200 587 -539 907 -76 73 -353 301 -397
328 -9 6 -36 23 -60 40 -84 57 -111 66 -125 43 -12 -20 -5 -81 15 -128 20 -48
50 -145 76 -249 9 -35 23 -137 32 -225 14 -139 15 -181 4 -320 -8 -89 -20
-185 -28 -216 -8 -30 -18 -77 -24 -105 -5 -27 -15 -66 -23 -85 -15 -39 -21
-57 -76 -214 -21 -60 -43 -113 -49 -119 -6 -6 -11 -20 -11 -31 -1 -12 -9 -39
-20 -61 -11 -22 -19 -48 -20 -58 0 -9 -9 -34 -20 -54 -11 -21 -20 -46 -20 -55
0 -10 -9 -37 -19 -60 -41 -92 -52 -154 -63 -356 -18 -319 7 -622 68 -806 20
-61 39 -111 92 -236 86 -204 97 -247 64 -258 -18 -5 -115 99 -217 234 -86 113
-162 247 -208 364 -48 121 -101 398 -117 615 -38 507 -111 789 -265 1025 -43
66 -134 161 -192 202 -149 105 -216 148 -227 148 -7 0 -25 9 -39 20 -14 11
-31 20 -39 20 -7 0 -24 9 -38 20 -14 11 -31 20 -38 20 -7 0 -25 8 -39 17 -15
10 -41 23 -58 29 -16 7 -52 21 -80 32 -224 89 -256 100 -325 117 -30 8 -75 20
-100 28 -314 101 -327 81 -138 -208 108 -166 118 -183 167 -283 50 -100 78
-177 96 -260 8 -34 16 -66 20 -71 16 -27 37 -322 45 -657 12 -456 25 -613 71
-814 10 -47 19 -92 19 -100 1 -8 9 -33 20 -55 11 -22 19 -48 20 -57 0 -29 123
-258 180 -338 101 -141 266 -333 428 -497 7 -7 12 -23 10 -35 -2 -18 -9 -23
-28 -21 -56 5 -92 16 -103 34 -8 13 -23 19 -49 19 -25 0 -45 7 -58 20 -11 11
-26 20 -34 20 -13 0 -178 86 -227 118 -14 9 -47 31 -74 47 -77 48 -254 205
-327 291 -75 89 -238 327 -238 349 0 8 -5 17 -11 21 -6 3 -18 21 -25 38 -32
69 -151 250 -227 343 -124 154 -253 266 -407 353 -52 29 -101 58 -109 64 -8 6
-37 17 -65 24 -224 57 -319 65 -681 60 -298 -4 -316 -6 -475 -37 -91 -17 -183
-37 -205 -44 -77 -23 -53 -68 68 -131 237 -123 315 -175 448 -295 75 -69 217
-227 266 -297 119 -170 193 -301 286 -504 11 -25 24 -52 29 -60 4 -8 13 -26
19 -40 6 -14 15 -32 20 -40 5 -8 18 -33 29 -55 22 -43 71 -128 108 -185 12
-19 22 -41 22 -47 0 -7 7 -13 15 -13 8 0 15 -9 15 -20 0 -10 9 -24 20 -30 12
-6 20 -21 20 -35 0 -14 6 -25 13 -25 7 0 21 -13 30 -30 31 -53 205 -237 291
-309 96 -80 232 -175 280 -195 19 -8 37 -19 40 -25 4 -6 14 -11 22 -11 8 0 27
-8 41 -17 15 -10 41 -23 58 -29 16 -7 62 -24 100 -39 39 -15 81 -29 95 -32 55
-10 140 -58 146 -81 4 -13 4 -26 1 -29 -41 -41 -643 -41 -747 -1 -14 6 -51 16
-83 24 -32 8 -68 20 -80 28 -12 7 -39 17 -59 20 -46 8 -148 54 -148 67 0 5 -8
9 -17 9 -10 0 -29 9 -43 20 -14 11 -30 20 -36 20 -6 0 -18 7 -25 16 -7 9 -23
20 -35 25 -36 13 -237 174 -348 277 -55 52 -146 128 -201 168 -55 40 -111 82
-125 92 -26 19 -118 72 -182 104 -21 10 -38 23 -38 28 0 6 -20 10 -45 10 -32
0 -45 4 -45 14 0 8 -14 17 -32 21 -18 4 -60 15 -93 26 -138 43 -425 43 -615
-1 -47 -10 -102 -22 -123 -25 -21 -3 -41 -13 -44 -21 -3 -10 -21 -14 -58 -14
-37 0 -55 -4 -58 -14 -3 -8 -23 -18 -44 -22 -21 -4 -60 -17 -88 -29 -27 -12
-70 -30 -95 -40 -194 -78 -419 -198 -444 -237 -8 -13 -8 -23 -1 -34 10 -16 97
-45 190 -64 168 -34 349 -82 390 -104 17 -9 37 -16 45 -16 8 0 29 -9 45 -20
17 -11 35 -20 42 -20 23 0 259 -165 373 -259 63 -53 200 -181 305 -285 200
-198 432 -404 531 -471 32 -21 76 -52 96 -68 47 -35 121 -77 218 -123 41 -19
96 -46 121 -59 55 -29 214 -83 284 -96 28 -5 75 -16 105 -24 30 -8 93 -15 141
-15 47 0 141 -3 207 -7 104 -5 122 -9 122 -23 0 -19 -52 -71 -95 -93 -97 -52
-238 -117 -254 -117 -18 0 -92 -26 -156 -55 -28 -13 -69 -22 -260 -62 -95 -19
-363 -29 -428 -15 -29 6 -72 15 -97 20 -81 17 -169 43 -197 58 -16 7 -33 14
-39 14 -18 0 -240 102 -314 144 -58 32 -347 136 -379 136 -9 0 -43 8 -76 19
-83 27 -188 41 -303 41 -145 0 -310 -19 -361 -41 -24 -10 -50 -19 -58 -19 -9
0 -32 -8 -52 -19 -20 -10 -65 -32 -101 -50 -74 -36 -72 -35 -200 -119 -109
-72 -120 -80 -255 -186 -117 -93 -191 -161 -333 -304 -85 -86 -103 -110 -100
-131 l3 -26 110 2 c61 1 220 5 354 8 200 6 265 4 360 -10 137 -19 217 -41 271
-74 8 -5 74 -37 145 -71 72 -34 153 -74 180 -88 28 -14 86 -44 130 -65 155
-77 286 -142 315 -159 8 -4 26 -13 40 -19 14 -6 54 -24 90 -41 129 -60 273
-109 410 -140 177 -39 569 -37 730 5 25 7 95 12 155 12 107 0 110 -1 113 -23
7 -49 -334 -353 -553 -493 -128 -82 -302 -159 -402 -179 -32 -6 -74 -15 -93
-20 -95 -24 -208 -32 -362 -26 -198 7 -305 18 -338 36 -40 22 -143 32 -368 37
-224 4 -381 -11 -443 -42 -15 -8 -36 -15 -45 -15 -30 0 -126 -50 -244 -128
-167 -110 -384 -331 -520 -528 -80 -116 -128 -189 -158 -240 -12 -22 -34 -57
-47 -79 -13 -22 -27 -47 -30 -55 -4 -8 -10 -22 -15 -30 -64 -106 -93 -196 -68
-211 24 -16 59 -9 136 27 108 50 130 60 187 80 28 10 59 24 70 31 11 7 29 13
40 13 11 1 38 8 60 16 22 9 58 19 80 24 22 4 69 16 105 26 55 15 105 18 325
18 178 0 274 -4 305 -12 25 -7 81 -19 125 -26 44 -8 98 -21 120 -30 22 -8 56
-15 76 -16 20 0 55 -7 78 -15 23 -8 115 -27 204 -42 148 -26 182 -28 407 -27
223 0 251 2 310 22 36 12 73 22 83 22 10 0 42 9 70 21 29 11 75 30 102 41 28
11 73 29 100 41 68 27 136 62 341 173 90 49 112 4 47 -95 -60 -91 -268 -298
-414 -411 -79 -62 -230 -149 -304 -176 -62 -23 -215 -66 -265 -74 -168 -29
-264 -42 -400 -55 -354 -34 -401 -44 -645 -134 -62 -23 -100 -42 -170 -84
-129 -78 -312 -282 -419 -467 -39 -69 -156 -308 -156 -320 0 -6 -9 -28 -19
-48 -10 -20 -24 -53 -31 -72 -7 -19 -25 -73 -41 -120 -17 -47 -37 -105 -45
-130 -18 -52 -40 -139 -56 -222 -8 -46 -8 -61 3 -74 15 -19 60 -13 97 14 14 9
35 24 47 32 12 8 49 34 81 57 114 82 145 103 150 103 3 0 32 18 64 40 32 22
65 40 72 40 7 0 24 9 38 20 14 11 31 20 38 20 7 0 30 9 50 20 190 100 352 125
902 140 317 8 399 14 530 35 85 13 179 31 207 40 103 31 158 45 175 45 17 0
60 18 173 72 70 34 72 34 195 116 151 100 176 119 267 205 105 101 260 219
281 215 8 -2 24 -15 35 -30 17 -23 21 -47 25 -170 4 -130 2 -153 -22 -247 -14
-57 -32 -114 -41 -127 -8 -13 -15 -30 -15 -37 0 -8 -9 -26 -20 -40 -11 -14
-20 -30 -20 -37 0 -18 -66 -103 -145 -187 -70 -75 -195 -176 -264 -213 -20
-11 -43 -24 -51 -29 -8 -5 -35 -18 -60 -29 -25 -11 -66 -30 -91 -41 -25 -12
-52 -21 -60 -21 -8 0 -41 -9 -74 -20 -33 -11 -109 -29 -170 -41 -60 -11 -139
-28 -175 -36 -36 -8 -85 -18 -110 -22 -40 -6 -89 -20 -185 -53 -16 -5 -52 -16
-80 -23 -27 -7 -63 -20 -80 -29 -16 -9 -35 -16 -42 -16 -6 0 -24 -6 -40 -14
-15 -8 -57 -29 -93 -46 -36 -17 -87 -44 -115 -60 -27 -16 -60 -34 -73 -39 -12
-6 -25 -18 -28 -26 -4 -8 -17 -15 -30 -15 -13 0 -24 -4 -24 -8 0 -4 -23 -32
-51 -62 -94 -100 -170 -213 -245 -365 -41 -82 -74 -156 -74 -165 -1 -8 -9 -33
-20 -55 -11 -22 -19 -45 -20 -51 0 -6 -9 -33 -19 -60 -64 -167 -171 -611 -160
-668 2 -10 11 -23 19 -28 21 -13 120 53 320 212 141 113 363 250 403 250 7 0
24 8 37 18 27 18 55 27 230 72 63 16 136 30 162 30 26 0 58 4 73 10 14 5 99
15 188 21 164 11 427 48 527 73 30 8 89 24 132 35 42 12 82 21 89 21 17 0 112
36 160 61 20 11 43 19 50 19 19 0 248 116 273 138 12 10 41 31 66 47 67 44
350 332 390 397 19 32 40 57 45 58 6 0 16 12 23 27 39 88 141 213 173 213 35
0 42 -27 47 -186 9 -281 -37 -464 -164 -659 -29 -45 -91 -118 -141 -166 -84
-81 -245 -199 -271 -199 -6 0 -12 -4 -12 -9 0 -5 -12 -12 -27 -16 -14 -3 -38
-15 -51 -26 -14 -10 -31 -19 -38 -19 -7 0 -33 -9 -56 -19 -114 -50 -204 -80
-318 -106 -30 -7 -71 -18 -90 -25 -90 -32 -201 -79 -245 -103 -11 -6 -36 -19
-55 -29 -145 -77 -296 -211 -381 -340 -32 -49 -59 -94 -59 -100 0 -5 -9 -21
-20 -35 -11 -14 -20 -33 -20 -42 0 -9 -9 -27 -20 -41 -11 -14 -20 -33 -20 -42
0 -10 -8 -37 -19 -60 -29 -66 -40 -103 -71 -228 -47 -190 -61 -259 -71 -348
-5 -47 -11 -88 -13 -91 -9 -14 -27 -247 -28 -359 -1 -129 6 -152 46 -152 14 0
38 21 71 62 130 161 352 370 512 482 112 79 362 188 503 220 30 7 64 17 75 23
11 6 43 13 70 17 28 3 73 13 100 21 155 47 200 62 300 97 141 50 182 68 340
146 182 89 184 91 345 194 238 153 495 407 631 623 49 77 55 88 97 160 40 68
55 80 76 60 32 -33 13 -271 -33 -404 -21 -62 -79 -178 -124 -252 -86 -139
-325 -373 -520 -509 -404 -281 -576 -519 -664 -915 -28 -124 -25 -461 5 -660
12 -82 29 -172 37 -200 16 -56 41 -153 61 -235 31 -131 48 -179 69 -206 l23
-29 26 24 c27 25 76 121 76 148 0 9 8 32 19 52 10 20 38 76 62 126 147 300
424 601 734 796 17 10 39 24 50 31 265 167 408 280 616 487 270 270 433 489
565 757 41 83 74 158 74 167 0 8 9 39 19 69 24 67 49 183 57 272 6 65 27 106
53 106 26 0 62 -96 88 -235 25 -139 26 -510 0 -601 -9 -34 -17 -72 -17 -84 0
-12 -6 -36 -14 -53 -8 -18 -25 -59 -39 -92 -14 -33 -28 -67 -32 -75 -3 -8 -17
-33 -30 -55 -13 -22 -33 -56 -44 -75 -11 -19 -38 -60 -61 -90 -22 -30 -47 -68
-56 -85 -9 -16 -38 -55 -64 -85 -61 -72 -180 -234 -180 -245 0 -2 -13 -23 -29
-47 -51 -76 -142 -278 -161 -358 -39 -162 -43 -194 -37 -313 5 -124 12 -168
49 -312 36 -142 76 -245 187 -475 72 -149 202 -381 259 -460 44 -60 95 -110
114 -110 12 0 20 13 28 43 6 23 13 48 16 55 2 8 9 66 14 130 19 218 64 444
115 577 15 39 32 84 39 100 6 17 19 43 29 58 9 14 17 29 17 33 0 24 192 292
289 404 107 123 302 389 360 492 9 15 34 58 55 95 60 103 81 141 104 191 5 9
13 26 19 37 23 47 53 114 71 160 19 47 32 83 77 210 9 28 21 66 25 85 4 19 14
58 22 85 26 85 49 225 59 355 25 336 34 384 67 378 53 -10 152 -292 173 -493
22 -206 -19 -470 -103 -665 -36 -82 -60 -135 -71 -155 -52 -94 -134 -259 -150
-300 -56 -145 -70 -186 -89 -255 -72 -274 -60 -552 34 -785 23 -55 99 -213
126 -260 123 -214 372 -521 546 -673 37 -32 79 -42 92 -21 4 6 10 172 15 368
9 370 27 549 64 620 8 17 15 36 15 44 0 29 170 353 241 459 21 33 39 66 39 73
0 8 4 16 8 19 4 2 23 35 41 73 18 37 37 76 42 86 25 48 24 44 88 204 12 28 21
58 21 65 1 7 9 31 20 53 11 22 19 47 20 56 0 9 7 36 15 60 16 43 36 126 56
224 5 28 16 80 24 117 24 105 45 350 45 508 0 163 -22 374 -44 435 -8 22 -15
50 -16 62 0 12 -8 41 -18 65 -25 57 -34 106 -21 113 5 4 25 -3 44 -15 42 -26
170 -162 192 -203 8 -17 30 -51 48 -77 18 -25 35 -56 39 -67 4 -12 13 -27 21
-33 8 -7 15 -19 15 -27 0 -7 8 -26 17 -40 10 -15 23 -41 29 -58 7 -16 24 -61
39 -100 15 -38 39 -117 53 -175 23 -97 25 -122 25 -320 0 -118 -5 -235 -11
-260 -9 -39 -22 -103 -62 -295 -5 -22 -13 -101 -20 -175 -9 -110 -8 -161 4
-275 8 -77 21 -157 30 -177 9 -21 16 -45 16 -55 1 -10 9 -36 20 -58 11 -22 19
-47 20 -55 0 -9 4 -20 9 -25 5 -6 19 -27 30 -47 12 -21 30 -55 42 -75 35 -63
129 -182 219 -276 194 -204 484 -417 760 -558 36 -18 72 -38 80 -45 25 -20 83
-27 103 -12 16 12 17 16 3 48 -8 19 -27 53 -43 75 -16 22 -41 65 -55 95 -111
235 -142 399 -143 735 0 238 11 348 55 525 26 106 37 163 67 345 23 145 26
187 27 450 0 192 -4 317 -12 370 -7 44 -17 116 -22 160 -13 126 -62 333 -108
460 -14 39 -33 93 -43 121 -10 27 -34 79 -53 113 -20 35 -36 66 -36 69 0 15
-100 151 -166 224 -70 79 -94 124 -78 149 12 20 222 -13 281 -44 18 -9 40 -17
50 -17 10 0 35 -9 56 -20 20 -11 43 -20 51 -20 11 0 163 -73 229 -110 9 -6 23
-13 31 -17 98 -55 225 -169 290 -262 31 -43 56 -85 56 -92 0 -7 6 -20 14 -28
20 -23 60 -132 87 -236 20 -80 23 -114 23 -310 0 -121 -3 -308 -8 -415 -5
-130 -5 -227 3 -290 32 -280 132 -510 300 -690 34 -35 61 -68 61 -72 0 -5 3
-8 8 -8 4 0 41 -30 82 -68 41 -37 102 -85 134 -107 111 -76 171 -115 201 -130
17 -9 55 -31 85 -50 30 -19 60 -34 66 -35 6 0 22 -8 35 -18 13 -11 37 -22 54
-26 16 -4 60 -23 98 -42 37 -19 73 -34 78 -34 6 0 22 -9 36 -20 14 -11 35 -20
47 -20 12 0 31 -6 42 -14 28 -20 102 -38 124 -31 21 7 29 58 11 69 -5 3 -12
18 -16 33 -4 16 -32 73 -63 128 -75 133 -142 273 -142 298 0 6 -7 25 -15 41
-21 39 -43 128 -68 271 -18 109 -20 152 -17 480 7 699 5 848 -8 940 -16 110
-49 273 -69 340 -9 28 -21 73 -28 100 -14 54 -38 122 -59 170 -8 17 -25 59
-39 95 -24 61 -105 227 -127 260 -5 8 -29 47 -53 85 -23 39 -68 105 -101 148
-70 94 -241 265 -273 273 -13 4 -23 12 -23 20 0 8 -6 14 -13 14 -8 0 -22 9
-32 20 -10 11 -22 20 -26 20 -13 0 -83 50 -92 66 -14 26 3 34 71 34 110 0 300
-39 417 -85 219 -87 340 -169 482 -328 53 -59 153 -201 153 -216 0 -5 8 -19
18 -32 20 -26 88 -181 120 -269 10 -30 27 -77 37 -105 9 -27 21 -70 25 -95 5
-25 15 -61 23 -80 8 -19 20 -51 27 -70 32 -90 44 -120 81 -194 133 -262 290
-431 515 -551 82 -44 247 -112 289 -120 21 -4 51 -12 65 -19 23 -12 98 -30
294 -72 120 -25 308 -43 536 -50 171 -6 207 -5 217 7 15 19 -8 69 -41 89 -49
30 -285 242 -342 308 -90 102 -137 161 -180 227 -42 64 -145 268 -189 375 -15
36 -33 79 -41 97 -8 17 -14 36 -14 43 0 7 -7 26 -14 43 -19 40 -55 143 -65
182 -5 17 -16 47 -25 69 -9 21 -16 47 -16 58 0 11 -7 34 -14 51 -19 41 -56
143 -65 182 -4 17 -15 44 -24 62 -10 18 -17 37 -17 43 0 7 -7 28 -16 48 -9 21
-27 62 -41 92 -25 58 -143 294 -171 345 -23 41 -88 141 -123 190 -16 22 -45
63 -64 90 -39 57 -246 265 -263 265 -7 0 -12 4 -12 9 0 9 -28 30 -150 111 -30
20 -116 67 -190 104 -74 37 -142 73 -150 80 -8 7 -23 16 -32 19 -11 4 -18 17
-18 32 0 25 1 25 80 25 148 0 348 -62 513 -157 86 -50 267 -193 267 -210 0 -7
9 -13 20 -13 11 0 20 -6 20 -13 0 -8 12 -24 26 -38 39 -35 162 -193 215 -274
25 -38 53 -81 62 -95 141 -211 303 -378 482 -495 96 -63 230 -125 270 -125 14
0 40 -7 58 -16 17 -9 86 -28 152 -41 112 -23 136 -24 365 -20 182 3 260 8 305
20 33 9 98 21 145 26 82 10 212 34 351 65 85 19 139 45 139 66 0 18 -102 100
-124 100 -7 0 -24 8 -37 19 -13 10 -35 22 -49 26 -49 15 -246 122 -345 187
-198 130 -304 240 -532 555 -21 29 -41 52 -45 53 -5 0 -8 5 -8 11 0 6 -15 32
-34 58 -18 25 -50 70 -70 99 -20 28 -51 73 -69 100 -18 26 -55 79 -82 117 -83
121 -276 356 -375 459 -124 128 -279 263 -356 308 -83 48 -273 128 -305 128
-9 0 -36 7 -59 15 -65 23 -296 53 -493 64 -98 6 -182 13 -187 16 -6 3 -10 15
-10 26 0 14 31 40 107 89 59 39 113 70 121 70 8 0 26 7 40 15 31 17 97 41 217
79 85 27 221 39 380 33 153 -6 229 -22 331 -68 23 -11 46 -19 51 -19 19 0 191
-95 275 -152 80 -53 139 -100 268 -213 87 -75 133 -111 207 -161 74 -50 283
-154 308 -154 9 0 32 -7 53 -16 136 -57 473 -60 672 -4 36 10 101 28 145 40
135 37 322 109 457 177 48 23 96 43 107 43 10 0 24 7 31 15 6 8 20 17 31 20
10 4 63 31 116 61 182 103 232 143 215 171 -4 7 -57 14 -127 17 -293 16 -561
97 -873 266 -129 70 -354 227 -518 363 -203 167 -282 227 -454 344 -96 65 -97
66 -177 111 -32 18 -65 37 -73 42 -29 18 -218 110 -225 110 -4 0 -26 8 -49 19
-23 10 -68 29 -101 41 -33 12 -81 30 -107 41 -26 10 -57 19 -70 19 -13 0 -66
9 -118 20 -126 26 -524 29 -635 5 -39 -9 -98 -20 -133 -25 -34 -4 -74 -15 -87
-24 -13 -9 -39 -16 -57 -16 -18 0 -63 -10 -101 -22 -62 -20 -69 -21 -84 -5
-15 15 -13 20 23 71 21 31 44 65 50 77 18 33 195 221 291 309 95 87 285 210
325 210 7 0 27 7 43 16 39 21 190 44 285 44 85 0 201 -19 275 -45 69 -24 235
-96 263 -114 13 -8 37 -21 53 -30 65 -35 208 -127 271 -175 111 -85 187 -136
202 -136 7 0 19 -6 25 -14 14 -17 194 -97 281 -124 115 -37 171 -45 365 -49
153 -4 206 -1 270 12 114 24 242 65 370 117 47 19 59 24 103 47 9 5 46 23 82
40 121 59 212 112 363 212 32 22 61 39 65 39 4 0 19 9 32 19 14 11 49 38 77
60 60 47 91 87 77 101 -5 5 -73 14 -149 20 -77 6 -167 14 -200 19 -33 5 -91
14 -130 20 -196 29 -386 94 -560 190 -16 10 -52 29 -80 44 -27 15 -63 36 -80
47 -16 11 -43 27 -60 36 -16 9 -55 33 -85 52 -30 19 -71 45 -90 57 -46 29
-201 129 -270 174 -30 20 -69 47 -86 61 -28 23 -50 37 -164 107 -19 12 -48 29
-65 37 -16 9 -50 28 -75 42 -25 14 -76 39 -115 55 -38 17 -83 36 -100 44 -118
54 -316 111 -500 144 -299 54 -779 17 -953 -73 -17 -9 -36 -16 -42 -16 -24 0
-167 -69 -209 -102 -13 -10 -29 -18 -36 -18 -6 0 -20 -9 -30 -20 -10 -11 -23
-20 -30 -20 -6 0 -49 -34 -94 -75 -46 -41 -89 -75 -96 -75 -7 0 -18 7 -25 15
-16 19 6 96 54 195 159 324 180 363 261 485 64 97 243 284 314 329 66 42 123
73 151 81 14 4 33 15 44 24 15 14 48 16 225 16 204 0 291 -10 396 -47 17 -6
55 -16 85 -23 30 -7 71 -19 90 -28 19 -8 53 -20 75 -27 22 -7 69 -26 103 -42
35 -17 76 -34 90 -38 15 -5 52 -18 82 -30 30 -12 98 -33 150 -48 88 -24 111
-26 310 -26 183 -1 221 2 258 17 23 9 57 17 76 17 18 0 55 9 82 21 78 33 175
82 180 91 3 4 11 8 19 8 26 0 267 168 401 280 136 113 330 300 469 454 76 85
79 89 60 103 -17 12 -50 14 -205 8 -102 -3 -212 -11 -245 -16 -92 -14 -436
-10 -545 6 -136 20 -339 75 -410 112 -14 7 -31 13 -38 13 -13 0 -83 26 -157
59 -22 10 -56 23 -75 30 -19 7 -57 22 -85 33 -65 25 -181 67 -222 79 -18 5
-45 16 -60 24 -15 8 -35 15 -43 15 -15 0 -104 28 -195 62 -77 28 -181 37 -425
37 -218 1 -413 -15 -505 -40 -22 -6 -65 -15 -95 -20 -30 -5 -71 -16 -90 -24
-19 -8 -51 -19 -70 -24 -96 -27 -207 -73 -220 -91 -3 -3 -34 -21 -70 -39 -237
-119 -466 -308 -577 -476 -25 -38 -62 -95 -82 -125 -36 -54 -64 -71 -83 -52
-21 21 24 310 74 477 68 230 145 370 280 511 111 115 235 175 453 218 149 30
232 36 676 46 363 9 443 16 539 43 30 9 71 20 90 25 77 22 196 74 255 112 17
11 49 29 73 40 58 27 247 213 336 330 39 52 74 102 78 111 4 10 23 39 42 67
20 27 36 52 36 56 0 3 15 29 34 58 51 81 212 408 262 532 33 83 27 101 -34
100 -37 0 -185 -65 -198 -86 -3 -4 -13 -8 -22 -8 -9 0 -28 -9 -42 -20 -14 -11
-30 -20 -37 -20 -6 0 -49 -18 -96 -40 -46 -22 -89 -40 -95 -40 -6 0 -31 -9
-54 -19 -24 -11 -60 -23 -81 -26 -21 -3 -41 -13 -44 -21 -4 -11 -29 -14 -123
-14 -86 0 -119 -3 -122 -12 -4 -10 -182 -14 -829 -18 l-824 -6 -98 -27 c-54
-15 -108 -34 -120 -42 -12 -8 -30 -15 -40 -15 -10 0 -35 -9 -55 -19 -20 -10
-84 -42 -142 -71 -58 -29 -124 -65 -148 -81 -24 -16 -45 -29 -48 -29 -18 0
-204 -152 -290 -236 -90 -89 -194 -216 -234 -285 -53 -93 -111 -214 -121 -253
-7 -27 -17 -46 -25 -46 -10 0 -14 -13 -14 -44 0 -41 -2 -45 -31 -51 -37 -8
-40 -6 -57 53 -51 178 -39 397 29 537 10 22 19 46 19 52 0 7 9 18 20 25 12 8
20 24 20 40 0 18 5 28 15 28 8 0 21 12 29 28 23 44 143 159 219 210 93 62 159
101 175 101 7 1 25 9 39 18 15 10 41 23 58 29 16 7 62 24 100 39 39 15 88 32
110 37 22 6 45 17 51 24 7 9 32 14 69 14 36 0 65 5 74 14 13 12 97 30 326 72
55 10 243 72 283 94 9 4 46 23 82 40 113 56 225 137 306 223 85 87 119 134
180 243 37 67 124 267 124 288 1 6 9 29 20 51 11 22 19 50 20 63 0 13 5 32 10
43 12 22 44 140 70 254 10 44 22 100 28 125 25 103 51 228 56 270 3 25 9 60
12 78 13 67 -45 82 -120 32 -24 -17 -93 -75 -153 -130 -111 -102 -120 -109
-262 -207 -165 -115 -350 -206 -471 -232 -19 -4 -55 -14 -80 -23 -75 -26 -311
-80 -435 -99 -33 -5 -73 -13 -90 -18 -16 -5 -109 -21 -205 -36 -96 -15 -206
-35 -245 -46 -38 -10 -77 -19 -86 -19 -9 0 -38 -8 -65 -19 -27 -10 -67 -24
-89 -31 -75 -22 -155 -55 -155 -62 0 -5 -8 -8 -18 -8 -15 0 -97 -43 -220 -115
-65 -38 -166 -110 -212 -151 -123 -109 -292 -306 -341 -398 -3 -6 -13 -24 -22
-41 -113 -205 -153 -352 -181 -653 -7 -78 -16 -145 -19 -148 -15 -15 -57 7
-63 34 -4 15 -15 43 -25 62 -49 95 -95 284 -105 425 -26 401 169 730 583 979
76 45 297 152 336 162 16 3 70 28 120 55 51 27 108 57 127 66 19 10 40 21 45
26 6 4 31 21 57 38 94 60 243 213 303 310 43 70 115 229 115 256 0 7 7 32 15
56 51 151 80 484 71 822 -10 380 -29 495 -78 495 -23 0 -107 -75 -132 -118
-17 -30 -60 -103 -71 -122 -38 -64 -195 -259 -243 -302 -23 -21 -42 -41 -43
-45 -2 -27 -370 -293 -404 -293 -8 0 -16 -4 -20 -10 -8 -13 -270 -141 -445
-217 -82 -36 -123 -54 -162 -73 -72 -33 -172 -80 -188 -89 -23 -12 -63 -33
-85 -44 -11 -6 -27 -14 -35 -19 -8 -4 -26 -14 -40 -21 -68 -33 -182 -118 -250
-186 -75 -75 -212 -250 -251 -320 -11 -20 -31 -54 -44 -76 -36 -57 -155 -301
-155 -317 0 -7 -7 -25 -14 -40 -17 -32 -55 -172 -67 -243 -4 -27 -12 -75 -17
-105 -6 -30 -13 -117 -17 -192 -8 -145 -16 -169 -52 -149 -34 18 -123 212
-167 363 -20 69 -46 251 -46 328 0 95 28 262 55 335 15 39 32 84 39 100 6 17
19 43 29 58 9 14 17 31 17 37 0 6 8 23 18 38 10 15 40 61 67 102 53 82 140
193 219 281 70 77 103 120 174 225 62 94 162 286 162 314 0 8 6 27 14 42 22
43 55 184 67 288 12 99 5 324 -11 395 -5 22 -14 63 -20 90 -14 63 -48 177 -70
235 -47 120 -67 165 -133 298 -92 184 -90 181 -154 286 -29 49 -53 93 -53 97
0 7 -53 49 -63 49 -2 0 -16 -9 -31 -21z m-1046 -4575 c8 -3 60 -10 114 -17
103 -13 125 -25 80 -46 -23 -10 -25 -16 -20 -44 3 -18 19 -57 34 -87 37 -72
54 -71 122 4 45 49 54 63 52 92 -3 37 -2 37 63 35 61 -2 115 -12 115 -21 0 -4
-16 -11 -35 -14 -27 -5 -60 -31 -135 -102 -54 -53 -102 -104 -105 -114 -6 -20
127 -300 167 -352 30 -39 18 -61 -28 -52 -20 4 -82 9 -138 13 -80 5 -101 9
-101 21 0 10 12 16 32 18 42 4 50 31 25 79 -11 21 -30 60 -43 87 -13 26 -30
50 -37 53 -15 6 -126 -98 -147 -138 -10 -19 -11 -29 -3 -37 6 -6 8 -18 4 -27
-5 -14 -17 -16 -84 -10 -42 4 -81 11 -86 16 -11 10 14 32 59 53 33 15 209 177
226 208 8 15 6 26 -7 46 -23 35 -100 191 -109 220 -3 12 -22 43 -41 68 -34 45
-37 72 -5 59 9 -4 23 -9 31 -11z m-534 -54 c3 -74 34 -493 40 -517 9 -43 107
-71 134 -39 6 8 27 20 46 26 24 8 40 23 54 51 34 66 47 49 42 -51 l-4 -58 -86
-6 c-48 -3 -147 -8 -220 -11 -111 -4 -134 -2 -139 10 -3 9 0 22 7 30 15 18
-15 527 -32 555 -26 41 14 59 122 56 34 -1 35 -2 36 -46z m-420 -101 c55 -36
78 -59 102 -100 34 -62 48 -154 37 -251 -7 -57 -11 -64 -69 -122 -55 -56 -171
-126 -207 -126 -6 0 -32 -6 -58 -14 -82 -25 -175 -48 -206 -49 -30 -2 -30 -2
-27 46 2 29 -4 75 -16 115 -11 37 -30 103 -42 147 -12 44 -30 109 -40 145 -10
36 -21 77 -24 92 -4 17 -18 34 -36 43 -37 19 -38 33 -2 40 15 3 54 12 87 21
33 8 84 19 112 24 29 4 60 16 69 25 14 14 35 16 133 13 l116 -3 71 -46z m1807
-8 c86 -37 143 -60 165 -66 26 -7 27 -17 6 -50 -14 -21 -15 -36 -5 -107 6 -45
15 -86 19 -90 17 -17 167 66 179 100 4 8 1 23 -5 33 -7 10 -12 22 -12 25 0 15
141 -35 147 -52 2 -5 -12 -15 -30 -22 -19 -7 -56 -26 -83 -44 -130 -83 -174
-114 -178 -124 -2 -6 2 -40 10 -75 8 -35 22 -102 30 -149 19 -104 60 -189 100
-210 22 -11 25 -15 12 -18 -9 -2 -30 4 -47 12 -16 9 -36 16 -43 16 -7 0 -31 9
-53 19 -22 10 -68 32 -102 47 -35 15 -63 30 -63 33 0 3 14 14 31 24 34 19 34
12 10 147 -7 36 -16 69 -22 75 -10 10 -68 -17 -146 -68 -51 -34 -70 -62 -53
-82 6 -7 7 -16 2 -19 -15 -9 -115 34 -139 60 l-22 24 22 0 c36 0 108 26 167
59 30 17 69 37 85 44 17 8 40 25 52 38 21 23 21 26 7 89 -8 36 -21 99 -29 140
-14 75 -47 164 -65 175 -13 8 -13 35 0 35 6 0 29 -8 53 -19z m846 -400 c36
-26 76 -54 89 -60 27 -14 28 -33 3 -69 -26 -37 -37 -174 -16 -192 13 -10 23
-10 53 3 20 8 48 18 63 21 14 3 42 22 62 42 l37 37 43 -30 c58 -42 55 -57 -14
-63 -31 -3 -62 -10 -70 -16 -8 -6 -32 -15 -54 -19 -22 -4 -44 -10 -50 -15 -5
-4 -26 -13 -46 -19 l-37 -12 -8 -147 c-11 -197 -10 -250 4 -264 15 -15 16 -48
2 -48 -12 0 -70 40 -154 107 -29 22 -62 43 -72 45 -10 2 -20 11 -22 20 -3 13
6 17 40 20 l43 3 8 104 c10 115 3 136 -36 111 -12 -7 -42 -17 -67 -21 -58 -9
-120 -45 -120 -69 0 -34 -20 -32 -76 6 -76 53 -70 68 31 74 44 3 89 10 100 16
11 6 39 14 62 17 23 3 58 15 77 26 l34 21 7 136 c4 75 5 169 3 210 -3 45 -1
74 5 74 5 0 39 -22 76 -49z m-3537 -126 c12 -26 -2 -55 -26 -55 -6 0 -22 -9
-36 -20 -14 -11 -31 -20 -38 -20 -7 0 -26 -9 -41 -21 -40 -29 -75 -22 -79 16
-3 28 2 33 80 77 97 54 124 58 140 23z m-898 -239 c8 -14 28 -32 44 -41 27
-16 67 -73 58 -82 -2 -3 -15 2 -28 10 -113 72 -324 -51 -305 -178 12 -78 68
-165 153 -235 63 -51 99 -63 188 -58 62 3 77 7 108 33 64 53 92 102 98 174 5
66 23 90 36 49 14 -42 7 -113 -15 -153 -11 -22 -21 -44 -21 -48 0 -18 -74 -98
-121 -132 -89 -64 -209 -72 -315 -20 -107 52 -124 70 -174 192 -24 56 -24 113
0 208 17 65 108 178 183 225 31 19 61 45 66 58 13 28 25 28 45 -2z m5093 -173
l62 -67 -26 -30 c-20 -24 -84 -146 -171 -328 -7 -14 40 -19 56 -6 9 8 42 26
72 40 176 82 189 90 196 111 4 12 7 33 5 46 -1 13 1 22 6 20 20 -9 103 -108
103 -123 0 -15 -7 -16 -45 -10 -33 4 -55 2 -83 -11 -20 -9 -57 -26 -82 -37
-25 -11 -57 -26 -72 -34 -14 -8 -35 -14 -46 -14 -10 0 -31 -9 -45 -20 -14 -11
-30 -20 -36 -20 -11 0 -77 -28 -141 -60 -46 -23 -97 -34 -104 -22 -3 5 7 36
23 68 27 56 42 88 121 259 17 39 49 104 71 147 23 45 39 90 39 110 0 68 20 65
97 -19z m-4553 -105 c36 -51 10 -103 -53 -103 -66 0 -97 51 -60 98 27 36 90
38 113 5z m-1118 -333 c-10 -38 15 -84 104 -197 44 -57 89 -114 100 -128 10
-14 53 -69 95 -124 84 -108 89 -131 28 -121 -39 6 -175 34 -293 61 -92 20
-227 45 -278 51 -32 4 -48 1 -62 -12 -17 -16 -20 -16 -26 -2 -3 9 13 44 43 87
26 40 54 83 61 96 17 31 28 30 44 -3 11 -24 25 -30 113 -50 55 -12 129 -29
163 -38 98 -23 105 -8 37 81 -25 33 -53 70 -63 83 -43 58 -104 111 -127 111
-40 0 -30 46 23 103 32 34 46 35 38 2z m6100 -67 c22 -49 39 -76 59 -98 24
-26 13 -50 -23 -50 -17 0 -37 -9 -48 -21 -10 -12 -55 -46 -99 -76 -44 -30 -96
-65 -115 -78 -19 -14 -57 -39 -83 -57 -95 -64 -107 -77 -107 -114 0 -19 -3
-34 -6 -34 -7 0 -64 57 -64 64 0 3 -18 31 -40 62 -22 31 -37 61 -34 65 3 5 17
9 32 9 15 1 41 9 58 18 36 20 163 109 237 167 29 22 78 58 110 80 33 22 65 52
73 67 19 36 32 35 50 -4z m-5556 -178 c16 -30 12 -62 -12 -87 -28 -30 -49 -29
-87 3 -39 33 -40 66 -3 92 50 35 80 33 102 -8z m5777 -191 c24 -45 40 -85 37
-90 -3 -5 -22 -9 -43 -9 -38 0 -50 -6 -197 -90 -126 -72 -138 -79 -164 -92
-46 -24 -85 -51 -122 -86 -35 -33 -58 -36 -58 -7 0 15 -42 99 -61 121 -21 26
-2 44 45 44 25 0 48 5 51 10 3 6 23 18 43 28 38 19 106 56 222 120 36 21 78
44 94 52 17 8 44 29 60 47 17 17 36 32 41 32 6 0 29 -36 52 -80z m-6073 -211
c9 -12 16 -35 16 -50 0 -28 -30 -68 -50 -68 -21 0 -70 30 -80 49 -15 29 -13
39 15 66 31 32 78 33 99 3z m6206 -69 c6 -22 18 -43 26 -46 9 -3 14 -19 14
-44 0 -35 -3 -39 -25 -39 -13 0 -46 -10 -72 -21 -70 -31 -96 -42 -218 -94
-176 -75 -209 -92 -234 -119 -14 -14 -28 -26 -32 -26 -3 0 -13 19 -22 43 -8
23 -22 60 -30 82 -18 47 -9 65 33 65 22 0 248 93 338 139 9 5 42 19 72 32 30
13 65 34 79 47 37 34 58 29 71 -19z m-6250 -105 c0 -11 -53 -160 -67 -186 -16
-32 -20 -33 -42 -14 -21 19 -186 10 -206 -11 -8 -8 -20 -33 -26 -56 -14 -53
-16 -58 -31 -80 -11 -16 -7 -24 32 -59 66 -59 117 -83 147 -69 30 14 30 14 36
-3 9 -22 -34 -126 -51 -126 -5 0 -14 16 -21 35 -6 19 -26 45 -44 57 -38 27
-53 38 -76 58 -9 8 -37 28 -61 44 -25 17 -49 35 -55 40 -5 6 -30 24 -55 41
-25 16 -74 53 -110 81 -36 28 -75 57 -87 63 -27 14 -29 40 -8 80 14 28 16 29
132 35 447 24 541 35 564 63 12 13 29 18 29 7z m-1249 -1652 c13 -14 19 -121
8 -128 -7 -4 -36 18 -72 55 -49 50 -65 61 -92 61 -18 0 -39 -7 -46 -16 -7 -9
-23 -20 -35 -24 -30 -12 -40 -69 -19 -109 8 -17 49 -54 91 -83 181 -126 224
-175 224 -254 0 -50 -42 -110 -109 -157 -38 -26 -58 -32 -112 -35 -46 -3 -77
1 -100 12 -19 8 -52 16 -74 18 l-40 3 0 75 c0 59 3 75 15 75 8 0 18 -15 23
-38 7 -30 20 -44 62 -72 64 -43 126 -48 171 -13 39 30 44 38 44 76 0 39 -23
64 -124 129 -94 62 -140 106 -169 161 -23 45 -24 49 -11 102 8 30 19 66 25 80
17 38 77 83 123 91 45 8 207 1 217 -9z m1829 8 c0 -5 -7 -10 -15 -10 -8 0 -15
5 -15 10 0 6 7 10 15 10 8 0 15 -4 15 -10z m6003 -28 c15 -14 27 -31 27 -37 0
-7 14 -43 31 -81 123 -274 120 -269 144 -269 15 0 21 9 26 40 4 21 11 41 17
43 6 2 14 20 18 40 3 20 15 51 25 68 11 17 19 39 19 47 0 9 9 31 20 49 11 18
20 41 20 50 0 9 12 30 26 47 25 30 28 31 109 31 l84 0 -24 -42 c-20 -38 -22
-50 -15 -98 5 -30 13 -142 19 -248 9 -144 15 -199 27 -217 9 -13 14 -34 12
-47 -3 -22 -8 -23 -93 -26 l-90 -3 0 93 c0 104 -14 371 -21 406 -2 12 -8 22
-12 22 -8 0 -62 -113 -62 -130 0 -6 -9 -27 -20 -47 -11 -21 -20 -46 -20 -57 0
-11 -6 -27 -14 -35 -15 -16 -35 -67 -62 -152 -17 -54 -49 -88 -65 -72 -6 6
-22 35 -34 65 -31 74 -104 236 -125 278 -10 19 -20 47 -24 63 -6 27 -21 33
-42 19 -7 -4 -17 -77 -25 -189 -11 -166 -11 -183 4 -207 31 -47 24 -56 -44
-56 l-61 0 7 33 c4 17 11 37 16 43 5 6 14 51 19 100 21 191 32 269 39 279 4 6
8 40 9 76 1 62 -1 68 -32 102 -19 21 -41 37 -50 37 -9 0 -16 4 -16 8 0 4 46 6
103 4 93 -4 104 -6 130 -30z m-7175 -9 c117 -64 164 -154 165 -318 1 -90 -2
-105 -27 -155 -30 -59 -72 -110 -92 -110 -6 0 -17 -7 -24 -14 -6 -8 -28 -20
-48 -26 -20 -7 -51 -18 -69 -26 -40 -18 -146 -18 -181 0 -15 7 -43 17 -62 21
-80 17 -161 118 -196 243 -17 60 -17 66 0 140 10 42 25 88 34 102 9 14 25 42
35 62 23 45 29 50 103 88 56 28 66 30 177 30 117 0 118 0 185 -37z m477 -4
c-12 -32 -15 -99 -15 -297 0 -249 1 -256 22 -279 18 -20 31 -23 90 -23 81 0
121 17 143 61 18 34 38 34 43 0 5 -32 -5 -67 -24 -85 -13 -14 -48 -16 -231
-16 l-215 0 8 23 c4 12 10 141 11 287 4 274 -2 340 -36 360 -11 6 23 9 101 10
l117 0 -14 -41z m1053 32 c74 -7 86 -11 116 -40 61 -59 70 -167 20 -243 -35
-54 -74 -71 -194 -83 l-105 -10 1 -120 c0 -66 4 -132 9 -147 l7 -28 -88 0 -89
0 3 297 c3 243 1 306 -11 341 l-15 42 132 -1 c72 0 168 -4 214 -8z m697 -15
c20 -31 17 -111 -4 -111 -8 0 -18 14 -23 31 -12 48 -89 94 -156 94 -40 0 -53
-4 -62 -19 -15 -28 -13 -264 2 -279 7 -7 41 -12 84 -12 70 0 74 1 95 31 28 40
39 25 39 -58 0 -69 -14 -88 -39 -54 -17 22 -23 24 -113 37 -73 10 -78 2 -78
-126 0 -107 0 -109 28 -132 27 -22 35 -24 100 -18 63 6 77 11 118 45 l46 38
-7 -44 c-14 -84 1 -80 -238 -77 l-212 3 4 25 c2 14 6 135 8 270 4 240 -3 335
-29 368 -8 9 34 12 206 12 l216 0 15 -24z m563 -8 c62 -31 82 -62 89 -135 5
-55 3 -64 -22 -97 -15 -19 -35 -38 -45 -41 -32 -10 -35 -44 -8 -73 28 -31 45
-57 89 -138 17 -32 44 -74 60 -93 50 -61 42 -71 -55 -71 -95 0 -90 -4 -154
120 -19 36 -40 72 -48 81 -8 8 -14 20 -14 25 0 5 -13 23 -29 40 -31 33 -96 53
-113 36 -10 -10 -5 -232 7 -275 l7 -28 -93 3 c-94 3 -94 3 -90 28 2 14 6 147
8 296 3 221 1 279 -11 314 l-15 43 196 -6 c177 -5 199 -8 241 -29z m871 -5
c43 -42 252 -262 320 -336 28 -31 47 -45 53 -39 6 6 9 80 8 173 l-1 164 -29
30 c-17 17 -30 34 -30 38 0 4 37 7 83 7 45 0 77 -4 70 -8 -6 -4 -19 -30 -29
-57 -14 -42 -17 -95 -18 -325 -1 -236 -3 -275 -16 -278 -9 -1 -112 99 -245
238 -126 132 -235 240 -242 240 -19 0 -18 -364 1 -411 33 -82 34 -79 -33 -79
-34 0 -61 2 -61 4 0 2 7 20 15 39 12 29 15 86 15 283 l0 246 -38 37 c-76 73
-77 71 37 71 l102 0 38 -37z m1099 8 c63 -32 124 -92 146 -144 8 -18 22 -67
32 -110 14 -62 16 -83 7 -110 -7 -17 -17 -51 -22 -73 -19 -71 -59 -133 -101
-154 -21 -11 -41 -24 -44 -29 -3 -5 -22 -12 -43 -16 -20 -4 -46 -13 -57 -21
-50 -35 -228 0 -317 62 -72 49 -149 243 -128 318 5 17 9 41 9 54 0 13 21 59
46 102 44 76 49 82 117 115 68 34 75 35 184 35 106 0 118 -2 171 -29z m633 22
c-38 -3 -58 -10 -70 -24 -9 -11 -27 -25 -40 -32 -13 -7 -36 -30 -52 -52 -25
-34 -31 -56 -41 -148 -9 -87 -9 -119 2 -160 19 -78 66 -145 122 -173 91 -46
242 -23 286 43 17 27 37 30 46 7 8 -21 -15 -47 -79 -89 -72 -48 -96 -55 -188
-55 -200 1 -320 96 -347 275 -17 116 -2 191 55 270 84 118 134 144 270 142 58
0 71 -2 36 -4z m247 -113 c-3 -98 -22 -115 -44 -42 -13 45 -22 55 -86 98 -21
13 -38 31 -38 40 0 13 9 15 58 10 33 -4 63 -2 72 4 28 19 41 -18 38 -110z
m669 103 c13 -34 9 -98 -7 -98 -8 0 -17 11 -20 25 -6 25 -18 30 -122 49 -82
14 -80 21 -76 -333 l3 -306 -82 0 -83 0 0 309 c0 371 8 353 -134 318 -37 -9
-54 -19 -65 -39 -9 -15 -19 -28 -23 -28 -10 0 -11 104 -1 113 3 4 141 7 305 7
271 0 299 -2 305 -17z m529 -7 c8 -34 1 -89 -13 -93 -7 -3 -19 12 -27 31 -8
20 -21 36 -29 36 -8 0 -26 9 -40 21 -39 30 -117 24 -134 -11 -20 -39 -17 -244
3 -264 23 -23 149 -23 162 1 18 31 42 8 42 -42 0 -51 -19 -68 -48 -42 -9 8
-44 18 -78 22 -88 10 -94 1 -94 -128 0 -90 2 -103 22 -124 19 -20 31 -23 92
-23 60 0 77 4 108 25 20 14 39 34 43 45 11 36 35 24 35 -18 0 -26 -8 -45 -25
-65 l-26 -27 -211 0 -210 0 8 23 c4 12 10 141 11 287 4 274 -2 340 -36 360
-10 6 64 9 211 10 l228 0 6 -24z m-1144 -2095 c-4 -39 24 -132 52 -176 7 -11
16 -32 19 -46 4 -14 16 -38 28 -54 l22 -27 150 7 c150 7 272 31 288 57 4 7 10
10 13 7 7 -6 -20 -65 -39 -89 -7 -8 -27 -44 -45 -78 -18 -35 -39 -66 -47 -69
-8 -3 -24 4 -36 15 -20 18 -32 19 -124 15 -83 -5 -103 -9 -103 -21 0 -21 23
-95 33 -107 4 -5 16 -26 25 -45 12 -24 27 -38 50 -45 17 -5 32 -14 32 -21 0
-21 -61 -129 -73 -129 -7 0 -15 25 -19 60 -6 56 -41 157 -65 187 -6 7 -14 27
-17 44 -10 47 -37 54 -210 54 -141 0 -156 -2 -197 -24 -49 -26 -55 -51 -19
-76 23 -16 181 -138 310 -239 57 -45 91 -64 113 -65 19 -1 32 -7 32 -15 0 -14
-116 -180 -127 -180 -4 -1 -12 17 -18 39 -11 42 -3 35 -294 261 -120 93 -130
99 -150 86 -28 -19 -37 -78 -29 -197 7 -116 14 -138 50 -146 27 -5 63 -16 214
-63 37 -12 94 -21 129 -21 48 0 61 -3 58 -15 -4 -19 -176 -165 -194 -165 -8 0
-14 10 -14 24 0 24 -13 30 -177 81 -30 10 -40 -22 -35 -107 6 -99 15 -128 41
-128 11 0 22 -4 25 -9 9 -14 -4 -41 -20 -41 -8 0 -19 -9 -26 -20 -7 -11 -19
-20 -26 -20 -8 0 -22 -10 -31 -22 -10 -12 -23 -18 -29 -14 -17 10 -15 36 2 36
22 0 30 95 18 220 -5 60 -13 113 -16 118 -3 5 -42 21 -88 35 -46 14 -105 34
-133 43 -27 9 -80 19 -117 21 -59 4 -69 2 -75 -14 -3 -10 -13 -26 -21 -35 -9
-11 -16 -48 -19 -105 -2 -48 -9 -100 -15 -115 -17 -46 -2 -66 79 -105 41 -20
77 -42 80 -49 3 -8 20 -14 39 -14 19 0 37 -6 41 -15 13 -22 120 -47 168 -39
l40 6 -31 -30 c-28 -28 -192 -122 -213 -122 -5 0 -17 14 -28 31 -12 21 -45 45
-102 75 -92 48 -96 47 -106 -16 -3 -19 -11 -51 -16 -70 -16 -52 -8 -93 19
-105 12 -5 22 -15 22 -21 0 -15 -40 -50 -67 -58 -11 -4 -27 -13 -33 -21 -15
-18 -40 -20 -40 -2 0 7 9 30 20 52 11 22 20 51 20 66 0 15 7 70 16 121 20 118
12 148 -41 148 -23 0 -35 5 -35 14 0 8 -12 17 -26 20 -14 4 -71 29 -127 56
-55 28 -107 50 -114 50 -16 0 -17 12 0 31 17 22 152 99 172 99 9 0 21 -13 27
-30 6 -20 19 -32 36 -37 15 -3 38 -14 52 -23 43 -30 67 -33 89 -11 23 23 34
69 29 131 -2 38 -7 47 -30 58 -37 17 -35 29 7 46 54 23 143 84 218 150 66 58
70 60 83 41 8 -10 14 -22 14 -26 0 -5 33 -18 73 -29 39 -12 77 -23 83 -25 28
-9 37 14 35 91 -2 90 -12 114 -46 114 -41 0 -38 19 8 60 24 22 71 74 103 117
32 43 85 110 116 149 32 39 58 74 58 78 0 4 14 27 31 52 29 42 31 44 52 29 36
-25 217 -19 217 8 0 22 -76 159 -93 169 -11 5 -29 8 -42 6 -21 -5 -21 -3 12
61 30 59 55 91 73 91 3 0 4 -18 2 -39z m-4473 -177 c31 -40 26 -60 -31 -127
-29 -33 -62 -73 -73 -88 -11 -15 -77 -98 -147 -183 -94 -115 -128 -164 -128
-184 0 -15 -4 -33 -9 -41 -11 -17 -31 -6 -31 18 0 10 -8 29 -17 42 -35 48 -83
132 -83 147 0 4 16 8 36 8 37 0 56 16 122 102 26 35 29 74 6 92 -8 8 -21 27
-29 44 -7 17 -24 44 -38 60 l-24 30 -51 -22 c-28 -12 -60 -22 -71 -22 -34 0
-51 -11 -51 -35 0 -58 -49 -27 -87 55 -10 19 -19 38 -21 43 -2 4 3 7 12 7 9 0
16 -4 16 -10 0 -14 186 -13 211 1 11 5 59 17 107 24 96 16 169 30 252 50 87
20 106 18 129 -11z m292 -454 c198 -177 249 -256 249 -390 0 -61 -5 -78 -42
-150 -42 -82 -62 -102 -144 -146 -38 -20 -59 -24 -132 -24 -134 1 -189 35
-382 233 -109 112 -115 127 -50 127 19 0 64 39 192 172 95 98 177 192 189 216
12 24 25 42 28 40 4 -2 46 -37 92 -78z m-507 -192 c18 -72 -34 -120 -93 -87
-20 11 -27 24 -29 56 -4 50 24 75 78 71 31 -3 36 -7 44 -40z m4906 -18 c0 -5
-4 -10 -10 -10 -5 0 -10 5 -10 10 0 6 5 10 10 10 6 0 10 -4 10 -10z m-3773
-324 c15 -8 48 -22 73 -32 25 -10 50 -22 57 -28 8 -8 13 -80 17 -225 3 -118 8
-216 10 -219 3 -2 14 2 25 10 35 25 151 139 151 149 0 5 9 9 20 9 11 0 20 5
20 11 0 6 24 35 53 64 51 52 55 54 86 45 45 -13 121 -50 121 -59 0 -4 -11 -13
-25 -19 -14 -6 -25 -18 -25 -27 0 -8 -4 -15 -10 -15 -5 0 -10 -7 -10 -15 0 -8
-5 -24 -12 -34 -12 -20 -5 -51 12 -51 6 0 13 8 17 18 11 30 74 82 100 82 14 0
33 10 42 22 17 20 26 21 125 20 114 -2 188 -14 194 -31 2 -7 50 -11 128 -11
92 0 124 -3 124 -12 0 -7 8 -26 17 -43 32 -60 97 -182 130 -245 19 -36 38 -66
43 -68 12 -4 48 71 56 117 4 20 10 41 15 47 8 10 52 129 71 194 13 46 17 49
74 60 82 15 178 41 191 52 6 5 22 8 34 6 19 -3 23 -10 24 -50 2 -27 7 -54 13
-60 5 -7 15 -29 20 -48 15 -51 51 -150 68 -187 7 -17 14 -38 14 -47 0 -9 9
-34 20 -56 11 -22 20 -48 20 -59 0 -28 29 -41 94 -41 48 0 58 4 86 31 32 33
60 79 60 101 0 7 5 20 10 28 17 25 30 -7 30 -72 0 -64 -13 -80 -80 -93 -19 -4
-39 -11 -45 -15 -5 -5 -48 -20 -95 -35 -47 -15 -100 -33 -118 -41 -18 -8 -44
-14 -57 -14 -23 0 -24 2 -18 50 3 30 1 60 -5 73 -6 12 -18 41 -27 65 -37 104
-47 129 -60 159 -8 17 -15 39 -15 50 0 10 -7 29 -16 41 -8 12 -18 41 -22 64
-5 28 -13 43 -22 43 -20 0 -25 -55 -10 -112 6 -24 19 -99 30 -166 42 -273 43
-273 83 -279 12 -2 22 -10 22 -18 0 -12 -22 -16 -109 -22 -127 -9 -144 -3
-121 43 17 32 13 102 -12 211 -8 37 -18 100 -21 140 -11 113 -37 93 -77 -57
-7 -27 -20 -67 -29 -87 -9 -21 -16 -45 -16 -55 -1 -10 -9 -36 -20 -58 -11 -22
-19 -50 -20 -62 0 -48 -40 -98 -61 -76 -6 7 -62 112 -168 318 -32 60 -62 107
-76 117 -21 15 -27 7 -20 -24 4 -18 10 -111 14 -206 l6 -174 30 -24 c38 -30
27 -40 -51 -48 -47 -5 -64 -3 -73 8 -10 12 -8 19 11 38 22 22 23 30 26 214 3
163 1 192 -12 204 -9 7 -16 18 -16 25 0 7 -7 15 -15 18 -8 4 -23 23 -34 45
-11 21 -31 43 -45 50 -14 6 -26 18 -26 27 0 12 -17 15 -102 15 l-103 -1 -40
-49 c-30 -37 -45 -69 -62 -132 -28 -105 -29 -163 -3 -213 11 -22 20 -44 20
-50 1 -23 52 -66 102 -85 91 -35 137 -27 246 41 36 22 45 -1 16 -39 -45 -58
-88 -72 -214 -72 -121 0 -154 10 -233 73 -39 32 -97 137 -97 176 0 12 -7 38
-16 59 -15 35 -16 36 -30 18 -8 -11 -14 -28 -14 -38 0 -10 -9 -44 -20 -75 -24
-68 -26 -116 -5 -133 8 -7 15 -16 15 -21 0 -16 -34 -9 -110 22 -41 17 -88 34
-105 38 -35 8 -40 35 -7 39 29 4 53 44 86 141 14 42 33 96 42 121 43 125 56
171 50 177 -3 4 -13 -3 -22 -15 -8 -12 -22 -22 -30 -22 -8 0 -14 -4 -14 -9 0
-15 -292 -311 -306 -311 -7 0 -15 4 -18 9 -4 5 -10 104 -15 220 -8 211 -14
241 -47 241 -9 0 -14 -11 -14 -29 0 -16 -7 -36 -15 -45 -8 -8 -15 -18 -15 -22
0 -4 -20 -48 -44 -98 -54 -111 -60 -134 -48 -180 6 -20 10 -36 9 -36 -25 2
-107 36 -124 52 -27 26 -30 38 -5 32 23 -7 62 36 104 114 18 34 43 79 55 100
13 20 30 54 39 75 10 20 21 37 25 37 13 0 59 110 59 140 0 16 -11 42 -25 58
-14 17 -25 33 -25 36 0 11 38 6 67 -8z m-531 -251 c20 -31 11 -74 -21 -97 -23
-17 -55 -15 -55 3 0 5 -11 9 -25 9 -21 0 -25 5 -25 30 0 68 91 108 126 55z"/>
<path d="M11503 16447 c-50 -19 -54 -27 -38 -77 8 -25 24 -83 35 -130 12 -47
30 -117 41 -157 10 -39 19 -80 19 -90 0 -26 58 -93 80 -93 48 0 132 31 160 59
40 40 70 112 70 170 0 61 -25 156 -50 191 -11 16 -20 32 -20 37 0 14 -61 69
-97 87 -38 19 -152 21 -200 3z"/>
<path d="M9205 14053 c-58 -6 -86 -35 -47 -47 10 -4 37 -24 60 -46 35 -34 44
-39 66 -30 19 7 26 19 31 54 12 78 8 81 -110 69z"/>
<path d="M8832 12576 c-93 -95 -119 -377 -47 -515 38 -72 76 -95 156 -95 55 0
71 4 97 24 17 14 36 41 43 60 6 19 15 40 20 45 20 26 29 144 19 249 -12 120
-26 157 -89 224 -39 41 -42 42 -103 41 -58 0 -66 -3 -96 -33z"/>
<path d="M10495 12570 c-13 -14 -15 -42 -13 -151 l3 -134 39 -3 c27 -2 48 3
75 21 31 21 40 34 51 80 16 68 1 138 -37 171 -34 29 -98 38 -118 16z"/>
<path d="M11656 12584 c-12 -30 -7 -259 6 -272 17 -17 74 -15 112 3 70 33 90
144 39 211 -39 51 -145 90 -157 58z"/>
<path d="M13613 12573 c-22 -21 -52 -60 -67 -87 -28 -47 -28 -53 -29 -200 l-1
-151 32 -57 c18 -31 51 -70 72 -86 34 -25 47 -28 99 -27 106 4 150 58 171 210
10 68 10 114 2 188 -12 106 -28 143 -91 209 -33 35 -40 38 -93 38 -52 0 -60
-3 -95 -37z"/>
<path d="M10075 10260 c-27 -10 -60 -19 -73 -19 -12 -1 -25 -7 -28 -15 -7 -19
54 -106 74 -106 25 1 123 135 109 149 -14 14 -22 13 -82 -9z"/>
<path d="M10441 9610 c-104 -109 -181 -197 -181 -208 0 -27 78 -112 117 -128
40 -17 118 -18 164 -2 54 18 137 88 179 150 31 46 40 71 45 123 4 35 4 77 1
92 -13 53 -101 163 -130 163 -7 0 -95 -85 -195 -190z"/>
<path d="M12406 8893 c-9 -10 -7 -43 3 -43 11 0 21 39 11 45 -4 2 -10 2 -14
-2z"/>
<path d="M21695 20655 c-16 -7 -52 -22 -80 -33 -27 -11 -75 -30 -105 -42 -30
-12 -75 -30 -100 -40 -25 -10 -67 -27 -95 -38 -27 -11 -77 -30 -110 -42 -33
-13 -78 -30 -100 -40 -22 -10 -67 -28 -100 -40 -33 -12 -78 -30 -100 -40 -22
-10 -67 -28 -100 -40 -33 -12 -78 -31 -101 -41 -23 -11 -46 -19 -52 -19 -6 0
-31 -9 -54 -19 -49 -21 -119 -50 -303 -123 -27 -11 -69 -29 -93 -39 -23 -10
-56 -19 -72 -19 -16 0 -49 -9 -72 -19 -90 -40 -253 -52 -318 -22 -14 6 -37 21
-52 33 -23 18 -30 19 -43 8 -8 -7 -15 -16 -15 -21 0 -5 64 -80 143 -167 78
-87 165 -184 193 -217 51 -59 74 -66 74 -22 0 13 -9 40 -20 62 -27 54 -26 97
5 133 36 43 120 96 201 127 38 15 83 33 99 41 17 7 48 20 70 28 22 7 65 24 95
36 95 38 85 43 200 -91 58 -67 142 -165 188 -218 45 -53 82 -102 82 -110 0
-22 -172 -360 -223 -437 -57 -89 -74 -103 -128 -109 -47 -6 -61 0 -123 49 -28
22 -40 26 -48 18 -21 -21 4 -57 182 -263 96 -111 224 -258 284 -328 60 -69
118 -127 128 -129 27 -5 23 40 -7 93 -22 36 -26 56 -27 126 -1 92 6 113 107
294 24 44 47 87 50 95 4 8 11 23 16 33 5 9 14 27 21 40 6 12 15 29 20 37 4 8
23 44 41 80 18 36 40 76 49 90 8 14 39 70 68 125 44 86 81 155 138 263 7 12
17 32 24 45 46 89 106 203 173 327 43 80 96 179 117 220 22 41 44 79 49 85 5
5 9 17 9 26 0 9 7 22 15 29 8 7 15 22 15 34 0 27 -148 206 -170 205 -8 0 -28
-6 -45 -14z m-339 -300 c4 -8 -2 -27 -12 -43 -11 -15 -24 -38 -31 -52 -7 -14
-17 -32 -21 -40 -5 -8 -15 -26 -22 -40 -8 -14 -31 -56 -52 -95 -21 -38 -56
-105 -78 -147 -22 -42 -44 -79 -49 -82 -5 -4 -12 -20 -16 -36 -4 -17 -16 -35
-27 -41 -18 -10 -26 -4 -67 42 -25 30 -92 104 -148 166 -57 62 -103 116 -103
120 1 20 20 35 68 53 29 11 76 29 105 41 28 11 75 29 102 39 28 10 75 28 105
40 30 12 73 29 95 37 22 8 58 23 80 34 48 23 64 24 71 4z"/>
<path d="M2225 19506 c-20 -35 -42 -70 -50 -76 -8 -7 -15 -17 -15 -22 0 -6
-17 -37 -37 -70 -21 -32 -51 -80 -67 -106 -16 -26 -47 -73 -68 -104 -42 -64
-44 -71 -24 -87 12 -10 24 -3 62 33 47 45 48 46 116 46 66 0 70 -2 128 -47 33
-25 95 -90 137 -142 43 -53 121 -148 173 -211 53 -63 107 -129 121 -146 45
-58 193 -239 199 -244 16 -14 51 -72 46 -77 -3 -3 -43 1 -88 10 -46 9 -137 25
-203 36 -66 11 -147 25 -180 30 -33 6 -112 20 -175 31 -457 77 -486 83 -534
117 -50 35 -58 74 -28 132 28 53 12 78 -23 36 -22 -27 -104 -158 -147 -236 -9
-17 -23 -38 -31 -47 -7 -9 -29 -43 -48 -76 -19 -32 -42 -70 -51 -85 -10 -14
-25 -39 -34 -56 -16 -28 -33 -56 -112 -179 -58 -89 -33 -103 47 -27 31 29 71
56 98 65 52 18 198 22 265 7 24 -6 108 -19 188 -31 80 -12 192 -30 250 -40 58
-10 168 -28 245 -40 77 -12 190 -30 250 -40 61 -10 169 -28 240 -40 72 -11
180 -30 240 -40 61 -11 135 -22 165 -25 30 -3 81 -13 113 -21 80 -20 141 -16
145 11 3 20 -36 69 -483 615 -104 128 -264 323 -354 434 -90 110 -187 228
-216 261 -68 79 -160 205 -168 230 -3 11 -13 40 -22 65 -17 44 -16 119 1 193
5 23 3 27 -14 27 -15 0 -31 -18 -57 -64z"/>
<path d="M22660 18617 c-82 -29 -96 -37 -169 -97 -76 -63 -147 -162 -177 -248
-26 -75 -45 -222 -69 -547 -18 -234 -31 -297 -80 -371 -45 -69 -132 -114 -222
-114 -118 0 -236 89 -294 220 -6 14 -18 41 -27 60 -9 21 -17 77 -20 140 -4 95
-2 112 23 185 32 92 75 161 139 225 49 47 54 61 31 80 -12 10 -20 9 -42 -6
-32 -21 -46 -29 -135 -76 -311 -161 -309 -160 -306 -188 2 -20 10 -26 40 -31
20 -3 43 -11 51 -18 16 -12 77 -187 77 -218 0 -25 53 -170 78 -215 63 -110
111 -174 175 -234 87 -81 147 -119 210 -136 26 -6 47 -15 47 -20 0 -4 63 -8
140 -8 79 0 140 4 140 9 0 5 17 15 37 22 80 26 141 65 208 133 74 75 113 141
140 239 22 82 52 321 65 522 19 298 52 407 143 473 51 36 152 58 229 49 121
-15 247 -204 248 -372 0 -88 -53 -215 -134 -319 -48 -62 -52 -72 -37 -95 11
-18 11 -18 329 161 67 38 122 76 122 83 0 8 -21 26 -48 39 -33 17 -53 35 -65
60 -21 45 -57 151 -57 169 0 7 -11 35 -24 63 -13 27 -35 74 -49 104 -52 113
-184 224 -327 274 -64 23 -89 26 -199 25 -103 0 -138 -4 -191 -22z"/>
<path d="M23525 15029 c-16 -5 -60 -16 -98 -24 -37 -8 -77 -21 -90 -29 -12 -8
-33 -17 -47 -21 -28 -9 -100 -52 -196 -117 -70 -47 -254 -251 -254 -281 0 -9
-5 -19 -10 -22 -17 -11 -51 -85 -81 -179 -50 -154 -51 -449 -3 -614 75 -255
190 -421 407 -585 45 -35 53 -37 120 -37 63 0 111 11 97 23 -3 2 -41 31 -85
64 -44 34 -104 85 -133 114 -58 57 -137 171 -154 222 -6 18 -15 37 -19 42 -9
12 -35 136 -44 210 -6 46 -1 91 24 231 18 100 67 181 170 284 75 75 112 103
171 132 115 56 150 70 210 84 30 7 75 18 100 25 31 9 130 13 310 13 253 1 268
0 340 -23 107 -34 156 -63 227 -133 136 -133 200 -358 163 -574 -10 -54 -39
-137 -61 -174 -5 -8 -17 -28 -27 -44 -43 -72 -95 -125 -176 -180 -48 -32 -102
-63 -119 -69 -60 -19 -102 -46 -105 -66 -4 -27 14 -27 183 -2 156 24 391 58
460 67 28 3 53 8 57 10 16 10 -10 47 -47 67 -63 36 -69 57 -56 211 18 213 18
225 9 366 -5 80 -17 161 -29 199 -10 35 -19 71 -19 80 0 9 -14 52 -31 96 -17
44 -35 93 -41 108 -17 46 -96 158 -151 216 -90 93 -196 170 -314 227 -162 78
-238 94 -453 93 -96 0 -188 -5 -205 -10z"/>
<path d="M2057 14068 c-10 -5 -17 -21 -17 -38 0 -39 -50 -95 -108 -120 -54
-24 -154 -33 -617 -55 -181 -8 -419 -20 -527 -25 -356 -18 -436 -12 -487 34
-21 19 -51 96 -51 132 0 28 -28 53 -39 35 -13 -21 -20 -573 -7 -593 6 -10 24
-23 41 -29 26 -10 58 -24 135 -59 8 -4 24 -11 35 -17 11 -5 40 -19 65 -30 25
-11 92 -42 150 -68 58 -26 139 -62 180 -80 133 -58 264 -117 301 -136 20 -11
42 -19 48 -19 7 0 24 -8 38 -17 26 -17 52 -28 141 -60 69 -25 51 -49 -78 -97
-41 -16 -93 -36 -115 -46 -22 -9 -67 -28 -100 -40 -33 -12 -78 -30 -100 -40
-22 -10 -67 -28 -100 -40 -33 -12 -82 -31 -110 -42 -27 -11 -71 -29 -97 -39
-27 -11 -72 -29 -100 -40 -29 -12 -74 -30 -100 -40 -247 -98 -279 -113 -283
-134 -3 -11 -9 -145 -14 -298 -6 -152 -13 -282 -16 -288 -10 -16 4 -59 19 -59
13 0 56 74 56 97 0 20 87 123 131 156 40 29 50 32 112 31 37 -1 127 -11 200
-22 124 -20 240 -36 572 -83 77 -11 181 -26 230 -34 50 -8 131 -19 181 -24 50
-5 124 -19 164 -32 59 -18 81 -30 117 -68 24 -25 46 -57 49 -71 3 -14 10 -36
16 -50 9 -24 10 -24 23 -6 18 23 22 69 36 350 8 172 8 231 -1 240 -15 14 -40
-18 -40 -51 0 -60 -67 -142 -134 -163 -49 -16 -326 -8 -506 14 -69 9 -183 22
-255 30 -71 8 -186 22 -255 30 -69 9 -147 17 -175 18 -72 4 -64 24 25 59 41
16 84 34 95 39 11 5 52 21 90 36 39 14 84 32 100 40 17 7 62 25 100 40 39 14
84 32 100 40 17 7 62 25 100 40 39 14 84 32 100 40 17 7 62 25 100 40 39 14
84 32 100 40 17 7 62 25 100 40 39 14 84 32 100 40 17 7 62 25 100 40 223 86
226 99 40 179 -60 27 -141 63 -180 80 -38 18 -119 54 -180 80 -60 26 -135 59
-165 72 -78 35 -140 63 -175 78 -16 7 -69 31 -118 54 -48 23 -90 41 -94 41 -3
0 -31 12 -62 26 -31 14 -69 31 -86 39 -16 7 -52 23 -80 36 -27 13 -79 35 -114
49 -36 15 -67 32 -69 38 -5 17 35 20 453 38 497 21 859 24 900 6 34 -14 85
-96 94 -152 4 -22 12 -35 21 -35 13 0 16 42 21 275 4 151 10 336 14 411 7 144
2 160 -38 137z"/>
<path d="M3950 13994 c-11 -21 -25 -58 -30 -85 -12 -60 -63 -169 -92 -196 -35
-31 -81 -41 -226 -49 -127 -6 -162 -16 -162 -43 0 -8 65 -70 185 -176 37 -32
74 -75 82 -93 16 -38 11 -108 -12 -172 -37 -105 -46 -142 -43 -177 3 -33 6
-38 30 -41 22 -3 45 10 100 55 118 95 143 108 218 108 73 0 81 -4 203 -107 47
-40 76 -58 95 -58 60 0 65 38 26 175 -47 162 -50 181 -32 218 9 19 46 60 83
93 37 32 95 85 129 116 59 55 60 57 43 76 -16 17 -37 21 -155 27 -174 9 -209
16 -238 52 -21 25 -74 172 -74 204 0 8 -14 35 -30 62 -38 60 -68 64 -100 11z"/>
<path d="M20951 14001 c-12 -16 -35 -73 -51 -127 -17 -53 -40 -112 -51 -131
-33 -54 -67 -65 -234 -78 -237 -17 -248 -37 -88 -161 49 -37 112 -88 140 -113
61 -53 65 -74 34 -168 -66 -205 -72 -241 -47 -262 19 -16 40 -6 123 58 119 93
137 101 207 101 48 0 69 -5 89 -20 14 -11 29 -20 33 -20 4 0 33 -17 63 -37
129 -85 130 -85 156 -79 21 5 25 12 25 45 0 21 -13 78 -30 127 -63 190 -53
228 102 355 99 81 131 120 112 139 -6 6 -78 17 -162 24 -181 17 -216 30 -248
95 -12 24 -27 63 -34 85 -56 185 -94 231 -139 167z"/>
<path d="M22920 12505 c-7 -8 -18 -74 -26 -147 -37 -352 -42 -414 -35 -421 14
-14 59 32 65 68 12 65 33 75 144 75 87 0 102 -3 130 -23 17 -13 51 -32 74 -42
43 -18 150 -67 261 -120 33 -16 61 -34 64 -40 2 -7 -5 -93 -16 -191 -11 -99
-23 -221 -27 -273 -8 -104 -24 -134 -81 -146 -15 -3 -53 -13 -83 -21 -30 -8
-74 -19 -98 -24 -24 -5 -64 -16 -90 -24 -119 -37 -164 -46 -236 -46 -68 0 -80
3 -101 25 -21 20 -25 34 -25 87 0 77 -11 101 -36 77 -17 -18 -28 -92 -64 -459
-12 -118 -28 -267 -36 -331 -17 -140 -17 -129 0 -129 18 0 56 47 56 69 0 29
64 110 110 139 48 29 128 55 413 131 101 27 216 59 297 81 36 10 100 28 143
39 165 45 234 64 297 82 36 10 70 19 75 19 6 0 39 8 75 19 36 11 101 29 145
41 44 12 109 30 145 41 36 11 70 19 75 19 6 0 39 8 75 19 36 11 91 27 123 36
70 20 80 36 96 164 10 81 10 96 -4 117 -8 13 -20 24 -26 24 -5 0 -39 14 -74
30 -36 17 -95 44 -132 61 -61 28 -206 97 -258 122 -38 19 -50 25 -140 67 -49
23 -107 51 -128 61 -21 10 -44 19 -52 19 -8 0 -15 5 -15 10 0 6 -5 10 -10 10
-11 0 -84 32 -230 103 -47 22 -93 44 -102 49 -10 4 -26 12 -35 17 -10 5 -56
27 -103 49 -190 89 -238 113 -300 147 -123 69 -197 134 -235 207 -14 26 -25
59 -25 72 0 51 -17 69 -40 41z m917 -751 c43 -20 85 -41 93 -45 8 -5 39 -20
69 -34 63 -29 226 -108 291 -141 25 -13 45 -29 45 -36 0 -12 -54 -30 -185 -63
-30 -8 -89 -23 -130 -35 -41 -12 -100 -28 -130 -35 -30 -8 -85 -22 -121 -33
-39 -12 -72 -16 -80 -12 -16 11 -14 52 11 237 11 79 20 160 20 181 0 65 10 66
117 16z"/>
<path d="M256 10741 c-4 -5 0 -36 8 -68 8 -32 24 -101 35 -153 11 -52 29 -138
40 -190 11 -52 22 -108 23 -125 2 -22 8 -30 23 -30 17 0 21 9 27 53 11 93 89
152 200 152 76 0 300 -26 698 -80 80 -11 163 -20 185 -20 22 0 47 -5 55 -10
13 -9 9 -15 -20 -41 -51 -46 -716 -487 -807 -536 -113 -61 -181 -53 -201 22
-6 21 -16 31 -32 33 -22 4 -23 2 -17 -45 4 -26 16 -86 27 -133 11 -47 29 -128
39 -180 11 -52 28 -129 37 -170 9 -41 23 -104 30 -140 15 -81 31 -140 38 -147
3 -3 12 -3 20 0 10 4 14 26 14 87 1 69 5 88 26 125 29 49 67 83 134 122 72 41
1424 942 1450 966 12 11 22 26 22 33 0 28 -21 32 -350 74 -91 11 -226 29 -300
40 -74 11 -209 29 -300 40 -91 11 -226 30 -300 40 -74 11 -209 29 -300 40
-281 36 -384 81 -440 193 -18 35 -55 63 -64 48z"/>
<path d="M22523 9824 c-3 -8 2 -33 12 -54 10 -21 15 -47 12 -57 -18 -59 -36
-95 -71 -142 -21 -30 -48 -73 -60 -95 -12 -23 -29 -52 -38 -66 -18 -28 -46
-107 -77 -220 -37 -133 -23 -322 32 -425 6 -11 20 -37 31 -57 11 -21 33 -54
49 -73 31 -38 129 -115 146 -115 5 0 25 -9 44 -20 37 -22 128 -39 249 -47 62
-4 89 0 133 16 100 38 169 78 293 172 68 52 136 103 150 114 15 11 68 52 117
90 50 39 111 84 137 100 26 17 47 36 48 43 0 7 13 12 33 12 22 0 36 7 45 21
12 19 21 21 113 17 82 -2 103 -6 113 -20 7 -10 22 -18 32 -19 21 0 76 -70 99
-125 44 -107 -12 -290 -121 -394 -29 -27 -56 -50 -60 -50 -4 0 -36 -14 -71
-30 -73 -35 -147 -52 -212 -48 -43 2 -71 -17 -71 -48 0 -11 72 -39 220 -84 41
-12 91 -29 110 -38 35 -15 98 -31 135 -35 15 -2 21 5 23 27 2 16 -1 33 -7 39
-23 23 0 116 50 197 121 197 152 313 128 478 -27 188 -171 382 -344 466 -77
38 -83 39 -210 43 -122 5 -134 3 -199 -22 -78 -29 -142 -68 -287 -172 -68 -49
-161 -126 -212 -175 -16 -16 -35 -28 -42 -28 -8 0 -18 -6 -22 -14 -14 -25
-107 -93 -157 -115 -38 -16 -68 -21 -142 -21 -84 0 -99 3 -134 25 -41 26 -76
73 -100 135 -7 19 -17 39 -22 45 -4 5 -8 41 -8 80 0 110 43 221 120 308 44 49
137 117 161 117 8 0 24 7 35 15 25 17 179 38 248 33 36 -2 51 1 59 13 16 26 1
47 -42 59 -21 6 -52 17 -68 25 -15 8 -37 15 -48 15 -11 0 -37 9 -58 20 -20 11
-45 20 -54 20 -10 0 -30 6 -45 14 -15 8 -52 21 -82 30 -30 9 -58 21 -61 26
-10 16 -45 12 -52 -6z"/>
<path d="M2515 9080 c-4 -6 -4 -27 -1 -48 4 -20 2 -50 -3 -67 -21 -64 -37
-101 -54 -125 -9 -14 -49 -72 -87 -130 -38 -58 -96 -143 -129 -190 -125 -176
-161 -232 -161 -245 0 -8 -5 -17 -10 -20 -14 -9 -70 -133 -70 -156 0 -62 -29
-63 -100 -3 -30 25 -84 60 -120 76 -63 30 -67 30 -192 26 -94 -3 -131 -8 -145
-19 -10 -8 -31 -21 -46 -29 -40 -20 -143 -116 -160 -148 -7 -15 -18 -36 -24
-47 -79 -152 -44 -419 88 -666 10 -20 19 -42 19 -48 0 -7 8 -24 17 -38 10 -15
23 -41 29 -58 11 -28 133 -295 174 -380 30 -62 90 -195 100 -221 10 -25 46
-49 54 -35 3 4 1 23 -4 42 -6 19 -10 61 -10 94 1 53 4 64 31 94 34 37 126 101
146 101 11 0 123 50 206 91 35 18 47 23 230 108 49 23 91 41 94 41 4 0 43 17
87 38 124 59 171 80 301 139 66 30 163 75 215 101 89 44 99 47 175 47 88 0
123 -16 155 -72 9 -15 21 -28 28 -31 20 -6 13 32 -17 94 -16 32 -43 91 -61
129 -17 39 -49 106 -70 150 -88 185 -120 256 -126 280 -3 14 -9 25 -14 25 -4
0 -12 18 -19 40 -9 29 -17 40 -32 40 -16 0 -18 -5 -13 -27 3 -16 10 -41 16
-56 14 -36 -5 -101 -41 -140 -14 -15 -68 -48 -121 -74 -93 -45 -110 -53 -150
-73 -11 -6 -29 -14 -40 -20 -27 -13 -40 -20 -145 -69 -49 -23 -109 -51 -131
-62 -46 -23 -83 -22 -94 1 -34 68 -45 110 -44 173 2 58 8 81 39 145 21 41 51
94 67 116 16 23 36 52 45 66 10 14 51 68 92 120 134 171 160 204 226 293 36
49 65 98 65 108 0 19 -42 116 -112 262 -4 9 -12 25 -16 35 -5 9 -19 37 -30 62
-12 25 -22 53 -22 62 0 9 -4 18 -8 20 -5 2 -15 21 -24 43 -16 40 -40 56 -53
35z m-536 -1302 c50 -29 119 -96 142 -138 11 -19 33 -57 49 -85 16 -27 29 -62
29 -78 1 -24 -6 -30 -56 -53 -93 -41 -154 -70 -203 -95 -18 -9 -160 -76 -250
-117 -141 -65 -182 -82 -190 -77 -5 3 -15 18 -23 33 -7 15 -18 36 -24 47 -43
77 -56 132 -57 230 -1 95 1 103 31 155 42 72 83 110 168 156 90 48 118 54 244
49 83 -4 111 -9 140 -27z"/>
<path d="M21849 8012 c-156 -325 -249 -522 -249 -526 0 -2 -20 -40 -45 -84
-25 -44 -45 -87 -45 -96 0 -27 38 -19 54 12 8 15 28 41 46 57 29 28 37 30 118
33 72 2 93 0 122 -17 19 -11 96 -50 170 -86 74 -37 227 -112 340 -167 113 -56
213 -105 223 -110 9 -4 26 -12 37 -18 11 -5 29 -14 40 -20 11 -5 29 -14 40
-20 11 -5 29 -14 40 -20 11 -5 28 -14 38 -18 9 -5 31 -17 47 -26 17 -10 39
-20 50 -23 11 -4 72 -32 135 -63 63 -31 135 -65 160 -76 62 -27 99 -61 121
-112 23 -53 24 -84 3 -127 -17 -37 -16 -76 3 -83 7 -2 17 9 23 25 5 15 14 35
19 43 21 33 261 534 261 543 0 3 17 36 39 74 41 73 67 141 57 150 -8 8 -54
-35 -61 -57 -3 -10 -23 -30 -45 -45 -33 -23 -46 -26 -92 -22 -78 7 -154 29
-233 69 -38 20 -185 91 -325 159 -267 128 -651 314 -685 332 -11 6 -29 15 -40
20 -11 6 -29 15 -40 20 -11 6 -28 14 -37 19 -10 4 -28 13 -40 20 -13 6 -36 18
-53 26 -87 43 -152 127 -142 181 3 14 10 46 15 71 6 25 8 48 6 52 -14 22 -33
-2 -75 -90z"/>
<path d="M21053 6552 c-337 -411 -344 -422 -309 -422 8 0 36 15 63 33 73 49
98 57 170 57 56 0 78 -6 141 -37 41 -20 76 -42 79 -49 3 -8 105 -94 227 -192
358 -288 579 -465 615 -493 19 -14 32 -30 28 -36 -4 -6 -50 -13 -104 -17 -54
-4 -181 -13 -283 -21 -102 -8 -309 -24 -460 -35 -151 -11 -360 -27 -465 -35
-200 -16 -347 -27 -617 -46 -139 -9 -165 -14 -180 -30 -9 -10 -14 -27 -11 -36
3 -10 45 -49 95 -88 49 -38 132 -104 183 -145 51 -41 141 -113 199 -160 59
-47 149 -119 200 -160 52 -41 142 -113 201 -160 59 -47 134 -108 168 -136 68
-56 146 -116 219 -171 65 -48 142 -148 158 -205 14 -54 3 -116 -32 -176 -19
-32 -19 -62 1 -62 21 0 431 502 431 527 0 24 -30 26 -54 4 -12 -11 -27 -21
-33 -21 -6 0 -16 -7 -23 -16 -23 -27 -92 -54 -139 -54 -77 0 -180 60 -361 210
-218 180 -469 384 -503 408 -17 13 -32 31 -32 40 0 18 46 23 655 71 151 12
379 30 505 41 127 10 306 24 398 31 197 14 166 -4 322 190 55 68 146 179 203
247 57 68 101 129 99 135 -6 21 -52 19 -72 -3 -10 -11 -23 -20 -29 -20 -6 0
-23 -7 -39 -14 -27 -15 -115 -40 -192 -57 -22 -4 -79 -8 -127 -9 l-88 0 -182
147 c-168 135 -233 187 -433 351 -38 31 -151 122 -250 201 -99 79 -191 157
-205 174 -57 72 -72 159 -40 244 12 32 28 66 37 75 18 20 14 52 -7 55 -9 1
-63 -57 -127 -135z"/>
<path d="M3335 6464 c-102 -20 -134 -29 -206 -59 -263 -110 -513 -385 -590
-650 -20 -70 -23 -101 -23 -250 0 -159 2 -175 28 -249 15 -44 34 -93 43 -110
9 -17 21 -40 26 -51 6 -11 19 -36 29 -55 48 -92 175 -241 287 -336 81 -70 283
-176 361 -190 118 -21 447 -2 508 30 17 9 40 16 51 16 11 0 22 4 25 8 2 4 35
23 73 42 142 70 328 252 411 401 11 20 25 45 31 55 18 32 51 112 51 123 0 6
10 39 22 73 18 53 22 85 22 198 -1 115 -5 149 -27 231 -34 123 -65 191 -131
293 -127 194 -322 370 -479 430 -131 50 -165 56 -333 55 -87 -1 -168 -3 -179
-5z m656 -284 c58 -30 135 -95 165 -139 13 -20 37 -55 54 -79 16 -23 30 -46
30 -50 1 -4 9 -25 20 -47 28 -57 27 -193 0 -266 -37 -96 -101 -216 -144 -266
-81 -98 -393 -357 -491 -409 -225 -119 -303 -144 -459 -144 -83 0 -95 3 -162
36 -92 45 -205 159 -248 249 -48 103 -54 251 -12 330 9 17 16 36 16 43 0 22
105 173 178 257 72 82 240 230 332 292 82 55 126 79 286 154 22 10 48 19 58
19 9 0 26 5 37 11 80 42 264 47 340 9z"/>
<path d="M7187 5932 c-18 -20 -67 -126 -67 -145 0 -16 -48 -106 -69 -131 -33
-39 -95 -55 -228 -60 -71 -3 -131 -5 -135 -6 -5 0 -8 -8 -8 -18 0 -26 58 -90
169 -189 53 -47 99 -93 102 -102 4 -9 -1 -44 -11 -76 -69 -231 -76 -263 -57
-289 12 -17 18 -17 53 -6 21 7 87 48 146 92 131 95 142 97 236 30 85 -61 126
-86 182 -112 43 -20 45 -20 58 -3 15 21 10 68 -18 158 -40 131 -45 170 -26
218 16 43 72 96 158 150 48 30 108 93 108 114 0 19 -9 20 -137 27 -167 8 -203
17 -243 59 -34 35 -80 117 -80 141 0 22 -48 127 -67 148 -9 10 -24 18 -33 18
-9 0 -24 -8 -33 -18z"/>
<path d="M17947 5939 c-19 -11 -67 -99 -67 -122 0 -22 -50 -128 -78 -165 -33
-43 -93 -59 -254 -68 -120 -6 -128 -8 -128 -27 0 -22 70 -93 169 -171 34 -27
69 -59 78 -73 21 -32 18 -119 -7 -197 -55 -173 -58 -194 -38 -214 27 -27 63
-8 252 128 42 30 80 50 96 50 24 0 106 -52 250 -158 28 -21 53 -32 70 -30 24
3 25 5 24 70 0 37 -8 84 -16 105 -9 21 -24 74 -34 117 -16 76 -16 80 2 114 11
21 67 74 136 128 155 124 165 154 50 154 -37 0 -107 5 -156 10 -142 17 -181
52 -233 210 -29 88 -65 150 -86 150 -7 0 -20 -5 -30 -11z"/>
<path d="M5210 4945 c0 -9 33 -58 52 -76 9 -10 22 -43 28 -76 20 -96 7 -115
-375 -534 -88 -96 -264 -290 -392 -430 -128 -139 -249 -267 -270 -284 -32 -25
-47 -30 -94 -30 -46 1 -65 6 -98 29 -40 28 -71 29 -71 4 0 -7 87 -89 192 -183
105 -93 248 -221 317 -283 69 -62 127 -109 129 -104 1 5 -13 39 -33 75 -42 79
-48 155 -15 197 11 14 20 29 20 33 0 8 237 273 756 849 227 251 260 278 341
278 26 0 62 -11 99 -30 32 -17 63 -29 71 -26 21 8 15 34 -11 48 -13 7 -149
126 -303 263 -286 258 -343 304 -343 280z"/>
<path d="M19370 4634 c-101 -78 -214 -163 -305 -228 -65 -47 -95 -75 -95 -88
0 -15 4 -18 18 -12 9 4 50 9 90 12 l73 4 42 -45 c42 -47 64 -95 107 -237 12
-41 30 -100 40 -130 47 -148 52 -170 46 -194 -3 -14 -10 -26 -14 -26 -7 0 -75
-47 -197 -135 -286 -207 -258 -195 -325 -151 -30 19 -68 44 -85 55 -16 12 -91
61 -165 109 -130 85 -230 176 -230 208 0 26 37 88 75 127 51 52 31 80 -25 35
-16 -13 -56 -43 -91 -68 -34 -25 -92 -67 -130 -95 -37 -27 -109 -79 -159 -115
-50 -36 -114 -83 -143 -105 -29 -22 -83 -60 -120 -85 -79 -52 -88 -75 -24 -65
180 28 265 15 373 -58 42 -29 104 -70 138 -91 67 -43 149 -96 217 -140 70 -45
110 -70 174 -111 33 -20 71 -46 85 -56 14 -10 38 -26 53 -34 15 -9 87 -54 160
-102 73 -47 148 -96 167 -108 19 -12 62 -40 95 -61 66 -43 69 -45 139 -89 26
-16 104 -67 173 -113 69 -45 136 -82 148 -82 13 0 64 30 114 67 101 75 108 90
74 169 -9 22 -20 55 -24 74 -4 19 -15 58 -24 85 -8 28 -25 82 -36 120 -38 126
-60 199 -71 230 -5 17 -16 54 -23 83 -8 30 -20 75 -29 100 -8 26 -25 79 -36
117 -12 39 -26 84 -32 100 -5 17 -16 54 -23 83 -8 30 -20 75 -29 100 -8 26
-25 79 -36 117 -12 39 -26 84 -32 100 -5 17 -16 53 -23 80 -7 28 -20 75 -29
105 -55 187 -56 192 -56 301 0 116 14 163 62 216 20 21 22 54 3 59 -5 2 -30
-13 -55 -32z m74 -1086 c8 -13 22 -48 30 -79 8 -31 21 -78 30 -105 8 -27 24
-83 36 -124 32 -113 61 -210 76 -255 8 -23 14 -46 14 -53 0 -29 -56 -3 -185
88 -24 17 -209 135 -273 175 -109 68 -139 100 -109 119 41 25 207 144 276 199
41 31 78 57 82 57 5 0 15 -10 23 -22z"/>
<path d="M6365 3677 c-16 -7 -59 -21 -94 -31 -144 -40 -295 -151 -416 -306
-75 -97 -156 -277 -176 -390 -5 -30 -13 -77 -18 -105 -6 -27 -10 -77 -10 -110
-1 -72 32 -249 53 -290 9 -17 16 -36 16 -43 0 -16 43 -97 94 -175 65 -103 237
-254 401 -354 11 -7 51 -31 88 -55 38 -24 84 -52 102 -63 19 -11 93 -56 165
-100 71 -44 138 -85 147 -90 10 -6 44 -27 76 -48 31 -20 61 -37 66 -37 4 0 16
-9 26 -20 10 -11 23 -20 28 -20 6 0 41 -21 78 -46 37 -25 76 -44 86 -42 28 5
28 37 1 47 -32 12 -86 74 -94 108 -9 36 12 134 39 186 21 38 70 120 105 173 7
10 18 30 25 44 10 22 56 96 95 156 7 10 18 30 25 44 6 14 29 51 50 83 20 31
37 60 37 64 0 3 7 14 16 24 9 10 23 31 32 48 15 27 39 68 117 197 11 18 38 63
60 100 22 37 50 83 62 103 12 20 35 61 51 91 38 71 109 137 156 146 33 6 107
0 149 -12 34 -10 17 25 -29 55 -25 17 -48 31 -51 31 -3 0 -33 17 -67 38 -33
20 -70 42 -81 49 -11 7 -31 18 -45 25 -14 7 -51 30 -83 51 -31 20 -61 37 -66
37 -5 0 -14 7 -21 16 -8 8 -27 22 -44 30 -17 7 -62 34 -101 58 -38 25 -83 52
-100 60 -16 9 -39 21 -50 28 -215 140 -316 192 -420 218 -108 27 -135 30 -290
35 -123 5 -167 3 -190 -8z m614 -227 c51 -10 101 -26 110 -34 10 -9 24 -16 32
-16 23 0 125 -71 184 -128 83 -81 86 -142 12 -285 -36 -71 -61 -113 -125 -212
-7 -11 -19 -34 -27 -52 -8 -17 -19 -34 -24 -37 -5 -4 -27 -36 -48 -72 -21 -37
-47 -81 -58 -100 -11 -18 -38 -62 -60 -99 -22 -37 -48 -79 -57 -93 -10 -15
-27 -43 -38 -62 -11 -19 -28 -47 -38 -62 -19 -29 -88 -144 -112 -186 -9 -15
-29 -47 -44 -72 -73 -115 -99 -150 -110 -150 -21 0 -158 70 -210 107 -70 50
-139 116 -194 188 -58 74 -73 102 -107 190 -65 173 -35 473 68 670 22 43 26
50 31 65 14 38 106 154 191 242 69 70 111 105 155 126 33 17 67 35 74 41 61
51 235 64 395 31z"/>
<path d="M17132 3148 c-6 -6 -12 -20 -12 -29 0 -37 -61 -68 -166 -84 -248 -38
-253 -39 -414 -118 -158 -78 -304 -251 -346 -411 -27 -102 -13 -261 31 -346
64 -123 134 -197 235 -247 14 -7 32 -17 40 -22 54 -32 188 -72 300 -91 148
-23 250 -43 296 -56 28 -8 79 -17 115 -20 81 -8 209 -67 261 -121 38 -40 78
-126 78 -169 0 -14 -9 -54 -21 -89 -16 -49 -31 -73 -67 -107 -66 -62 -87 -74
-167 -94 -76 -18 -201 -15 -265 8 -50 18 -151 90 -209 149 -51 52 -82 61 -89
25 -4 -16 30 -104 88 -231 10 -22 22 -52 25 -67 4 -16 10 -28 14 -28 4 0 12
-19 18 -43 12 -42 47 -97 63 -97 4 0 24 22 43 49 29 40 41 49 76 55 23 3 44
13 47 21 5 12 24 15 84 15 59 0 79 4 83 14 3 8 23 18 44 21 62 10 175 72 232
128 173 169 239 396 181 621 -23 89 -39 122 -96 191 -93 113 -302 212 -489
231 -38 4 -84 13 -102 20 -18 8 -49 14 -69 14 -20 0 -76 9 -123 19 -47 11
-108 24 -136 29 -27 6 -66 16 -85 23 -51 20 -125 77 -141 107 -7 15 -21 39
-31 54 -26 38 -24 124 5 185 51 109 81 140 192 203 60 34 60 35 190 34 134 0
181 -7 250 -40 59 -27 156 -107 200 -165 45 -59 71 -62 68 -9 -1 19 -11 53
-23 75 -11 21 -20 45 -20 53 0 7 -9 30 -19 50 -11 20 -29 61 -40 90 -55 138
-64 159 -75 182 -13 29 -36 36 -54 18z"/>
<path d="M9263 2508 c-21 -29 -82 -109 -136 -178 -55 -69 -123 -156 -152 -195
-29 -38 -92 -119 -140 -180 -48 -60 -111 -141 -140 -180 -29 -38 -92 -119
-140 -180 -47 -60 -105 -135 -128 -165 -141 -188 -277 -336 -322 -349 -16 -5
-64 -13 -105 -16 -80 -8 -100 -17 -100 -46 0 -16 8 -19 50 -19 36 0 50 -4 50
-14 0 -8 15 -16 38 -20 20 -4 62 -15 92 -25 30 -10 89 -28 130 -41 41 -12 98
-31 127 -42 29 -11 60 -18 69 -16 29 5 27 27 -3 40 -15 7 -45 30 -67 51 l-39
38 5 73 c3 50 11 81 25 102 11 16 33 49 49 74 16 25 98 133 182 240 85 107
169 215 188 240 133 173 167 210 181 196 7 -6 9 -28 17 -196 4 -69 16 -262 27
-429 26 -416 26 -458 -6 -502 -23 -30 -32 -35 -83 -39 -43 -4 -58 -9 -60 -22
-2 -12 5 -19 25 -23 42 -9 257 -74 348 -105 121 -42 181 -60 195 -60 8 0 28
-7 45 -16 16 -8 52 -20 80 -26 27 -6 59 -17 71 -24 11 -8 24 -11 27 -7 11 10
8 33 -4 33 -24 0 -119 93 -149 145 l-31 53 -19 304 c-11 167 -29 449 -40 628
-51 798 -61 935 -73 942 -26 17 -47 6 -84 -44z"/>
<path d="M14027 2140 c-33 -37 -60 -44 -134 -35 -32 4 -152 9 -268 11 -197 5
-214 3 -280 -18 -38 -12 -81 -30 -94 -40 -13 -10 -29 -18 -36 -18 -7 0 -40
-20 -73 -44 -125 -92 -202 -245 -202 -401 0 -79 22 -186 50 -244 28 -57 137
-164 231 -225 41 -27 86 -58 101 -68 15 -10 34 -18 43 -18 8 0 20 -9 27 -20 9
-14 24 -20 49 -20 22 0 39 -6 42 -14 3 -8 18 -20 34 -28 229 -118 224 -115
306 -194 73 -72 96 -119 97 -197 0 -45 -6 -69 -27 -105 -38 -68 -52 -81 -115
-113 -51 -26 -68 -29 -150 -29 -89 0 -97 2 -175 41 -105 52 -176 123 -232 229
-35 66 -46 76 -66 60 -12 -10 -15 -25 -10 -64 3 -28 12 -128 19 -222 7 -94 16
-177 20 -183 12 -19 44 -12 64 16 22 30 35 31 312 18 159 -7 198 0 321 61 68
34 186 153 218 220 13 27 30 63 38 79 26 51 42 188 32 276 -17 146 -88 258
-221 347 -22 15 -66 44 -97 64 -31 21 -67 43 -81 50 -14 6 -32 17 -40 24 -22
17 -156 87 -230 119 -84 38 -156 91 -202 152 -47 62 -58 92 -58 159 0 64 27
119 94 187 63 64 117 79 268 75 117 -3 126 -5 193 -38 117 -58 211 -169 264
-313 12 -30 37 -45 52 -30 9 9 -24 477 -36 511 -7 19 -19 14 -48 -18z"/>
<path d="M11133 2119 c-18 -19 3 -39 41 -39 37 0 96 -34 126 -73 28 -35 28
-110 1 -422 -11 -126 -29 -351 -41 -500 -46 -582 -59 -708 -73 -722 -11 -11
-37 -11 -163 2 -206 21 -258 32 -308 62 -56 34 -68 57 -96 175 -22 94 -42 123
-54 81 -4 -16 -11 -370 -7 -400 1 -10 33 -13 122 -13 115 0 209 -7 659 -50
183 -18 545 -51 720 -66 36 -3 86 -13 112 -22 33 -11 51 -13 58 -6 10 10 41
272 44 374 2 78 -20 72 -58 -15 -48 -109 -72 -141 -131 -174 -65 -37 -121 -40
-309 -16 -182 24 -169 18 -162 73 3 26 13 130 21 232 9 102 22 255 30 340 14
147 41 463 66 760 12 146 26 204 65 263 26 39 34 42 127 37 53 -2 77 11 70 39
-4 16 -23 20 -146 30 -78 7 -230 21 -337 31 -326 31 -364 33 -377 19z"/>
</g>
</svg>
